<?xml version="1.0" encoding="utf-8"?>
<!-- Generator: Adobe Illustrator 21.0.0, SVG Export Plug-In . SVG Version: 6.00 Build 0)  -->
<svg version="1.1" id="Capa_1" xmlns="http://www.w3.org/2000/svg" xmlns:xlink="http://www.w3.org/1999/xlink" x="0px" y="0px"
	 viewBox="0 0 158.5 185.5" style="enable-background:new 0 0 158.5 185.5;" xml:space="preserve">
<style type="text/css">
	.st0{fill:#36221A;}
	.st1{fill:#FCF1DC;}
	.st2{fill:#FCF8ED;}
	.st3{fill:#FCF4E1;}
	.st4{fill:#FBEDD6;}
	.st5{fill:#FBB416;}
	.st6{fill:#FCF6E6;}
	.st7{fill:#DC2D2B;}
	.st8{fill:#FBF6EA;}
	.st9{fill:#E1BDA1;}
	.st10{fill:#E83638;}
	.st11{fill:#9D1C20;}
	.st12{fill:#D86D25;}
	.st13{fill:#FDFDFD;}
	.st14{fill:#F17E7F;}
	.st15{fill:#FCD35C;}
</style>
<g id="Capa_1_00000081606107039848036120000011391621827182847658_">
	<g>
		<g>
			<path class="st0" d="M95.5,5.5c1.7,0.4,3.3,0.7,5,1.2c5,1.4,9.6,3.6,12.6,8.1c2.5,3.6,3.5,7.7,4.1,12c0.3,2.6,0.5,5.2,0,7.8
				c-0.1,0.4-0.1,0.8,0.1,1.1c1.9,4.2,2.2,8.8,2.5,13.3c0.1,2,0.6,3.4,2.5,4.5c5.7,3.4,7.6,9,6.1,16.5c-0.9,4.9-2.7,9.4-5.4,13.5
				c-0.6,0.9-0.5,1.5,0.1,2.3c1.7,1.9,3.7,2.9,6.2,3c0.8,0,1.7,0,2.5,0.2c1.8,0.5,2.7,1.6,2.6,3.5c0,0.4-0.1,0.8,0.3,1.2
				c4.8,3.6,5.7,8.9,5.8,14.5c0.1,3.5-0.4,6.9-0.9,10.4c-0.8,6.3-0.7,12.5-0.1,18.8c0.6,6.7,1.3,13.4,1.8,20.2
				c0.1,1.1,0.4,1.8,1.2,2.5c0.6,0.4,1.1,0.9,1.6,1.4c1.7,1.3,3.1,2.7,4,4.7c0,0.9,0,1.7,0,2.6c-1.2,1.8-2.9,2-4.8,1.4
				c0-0.1-0.1-0.2-0.2-0.1c0,0,0.1,0.2,0.1,0.3c0.2,0.4,0.4,0.8,0.6,1.1c1.9,3.6,1.3,5.8-2.2,7.7c-1,0-2.1,0-3.1,0
				c-1.7-0.9-3.6-1.6-5-3.1c-0.4-0.5-0.6-0.1-0.9,0.2c-0.9,1-2,1.2-3.2,1c-2.7-0.4-4.9-1.8-6.9-3.7c-0.7-0.6-1.3-0.9-2.2-0.9
				c-2.4,0.2-4.9,0.2-7.3-0.4c-11-3-21.3-7.5-29.5-16c-1-1.1-2.1-2.2-3.3-3.1c-2.4,5.5-6.1,9.6-10.9,12.8c-2.4,1.5-4.9,2.3-7.8,2.1
				c-3.1-0.2-4.3-2.1-3.3-5.2c0.6-1.7,1.7-3.1,2.7-4.6c1.2-1.7,2.5-3.3,3.2-5.3c0.2-0.2,0.3-0.4,0.1-0.6c-0.1-0.1-0.3,0-0.4,0.2
				c-0.7,0.7-1.5,1.5-2.2,2.2c-4,4-8.6,7.2-13.9,9.2c-2.1,0.8-4.3,1.3-6.6,1.1c-3.9-0.3-5.3-2.7-3.7-6.2c0,0,0-0.1,0-0.2
				c-1.2,0.1-2.5,0.5-3.5-0.2c-1.3-0.9-0.2-2.3-0.4-3.5c-0.8,0.1-1.4,0.7-2,1c-2,1-3.8,2.3-6.2,2.2c-1.7,0-2.6-1.2-2.3-2.9
				c0.2-1,0.7-1.8,1.4-2.5c0.7-0.8,1.3-1.6,1.5-2.6c0.2-0.7,0.1-1.2-0.5-1.8c-6.4-6.1-10-13.7-11.4-22.5c-0.2-1.3-0.1-2.8-0.8-4
				c0-4.7,0-9.5,0-14.2c0.7-1.5,0.5-3.2,0.7-4.7c0.4-3.2,0.9-6.4,1.8-9.5c0.2-0.6,0-1.2-0.1-1.8c-2-7.5-2.1-14.8,1-22
				c0.5-1.2,0.6-2.5,0.9-3.8c1.1-3.9,2.9-7.4,4.6-11C23,53,23.7,51.1,24,49c0.2-1.7,0-3.2-1.1-4.6c-1.2-1.5-2.1-3.1-0.9-5
				c0.8-1.4,3-1.8,5.2-1.2c3.2,0.9,5.5,3,7.3,5.8c1.9,3.1,3.1,6.5,3.4,10.2c0.1,0.9,0.3,1,1.1,0.8c2.2-0.6,4.4-0.8,6.7-0.6
				c5.3,0.5,8.3,6.3,5.6,11c-0.6,1-0.5,1.6,0.2,2.6c2.3,3.2,2.8,7,2.3,10.9c-0.1,0.8,0,1.4,0.6,2c2.9,3.2,3.1,6.9,1.8,10.8
				c-1.3,3.8-3.8,6.4-7.9,6.9c-1,0.1-2-0.1-3.1-0.4c0.2,3.3,0.8,6.3,2.3,9.2c0.9,1.7,2.1,3.3,3.2,4.9c1.6,2.2,3.1,4.5,3.9,7.3
				c2.4-2.2,5.2-0.3,7.7-1c-1.4-1.7-1.2-2.7,0.7-3.5s3.5-1.8,4.6-3.6c0.4-0.6,0.6-1-0.4-1.2c-0.6-0.1-1.2-0.4-1.7-0.7
				c-1.8-1.1-2.1-3-0.8-4.7c1-1.2,2.2-2.1,3.5-2.8c4.4-2.5,6.2-6.6,6.7-11.5c0-0.4,0.1-0.8-0.2-1.1c-1.5-1.7-2.6-3.8-3.7-5.9
				c-0.6,0.9-0.5,1.8-0.5,2.7c0,0.3,0.2,0.7-0.1,0.9c-0.4,0.2-0.7-0.1-1-0.3c-0.9-0.6-1.6-1.5-2.2-2.4c-2.1-3.4-3-7.1-3.4-11.1
				c-0.6-5.1-0.2-10,2-14.7c1.8-3.6,4.3-6.4,8.4-7.3c0.4-0.1,0.7-0.3,0.8-0.7c0.7-3.8,2-7.3,4-10.8c-1.6,0.4-2.9,0.9-4.3,1.1
				c-6.3,0.8-11.4-4.7-10.2-11c0.1-0.8,0.3-1.5,0.6-2.2c0.7-1.9,1.4-3.5,0.4-5.8c-1.2-2.6,0.1-5.4,1.8-7.7c2.7-3.9,6.7-5.8,11-7
				c2.2-0.6,4.5-1,6.8-1.4c0.3,0,0.7,0.1,0.8-0.4C89.3,5.5,92.4,5.5,95.5,5.5z M73.7,10.7c-0.1,0.1-0.3,0.2-0.4,0.3l0,0
				c-0.6,0.1-1.1,0.4-1.5,0.9c-0.1,0.1-0.2,0.1-0.2,0.2c-0.2,0-0.4,0.2-0.5,0.4l0,0c-0.3,0-0.5,0.2-0.6,0.5l0,0
				c-0.8,0.5-1.5,1.2-1.8,2.2c-1.2,1.3-1.7,3-1.9,4.8c-0.1,0.8,0,1.6,0.4,2.4c0.3,0.5,0.5,0.5,0.8,0.1c0.8-1.1,1.6-2.2,2.4-3.3
				c0.3-0.3,0.6-0.5,0.8-0.8c3.1-3.3,6.7-5.8,11-6.9c0.5-0.1,1-0.4,1.8,0c-4.3,1.6-8.2,3.7-11.1,7.3c-2.7,2.8-5.1,5.9-6.2,9.8
				c-0.1,0.1-0.1,0.2-0.2,0.4c0,0.3,0,0.5,0,0.8c-1.2,4,1.5,8.9,5.6,9.6c3.6,0.6,6.7-0.5,9.7-2.4c0.4-0.2,0.7-0.5,0.4-1
				c-1-1.7-1.2-3.6-1.2-5.6c0.1-2,0.8-3.8,1.6-5.5c2.4-3.6,5.8-5.6,9.8-6.7c1.4-0.2,2.7-0.7,4.3-0.5c-0.6,0.7-1.3,0.7-1.9,0.9
				c-2.3,0.7-4.6,1.3-6.7,2.6c-2.1,1.2-3.8,2.8-4.5,5.2c-0.6,1-0.9,2.1-1,3.2c-0.3,2.3-0.3,4.6,1.3,6.4c2.5,2.9,6.2,3.5,9.5,1.6
				c2.7-1.6,4.7-3.9,6.6-6.4c1.7-2.3,3.3-4.8,5.8-6.3l0.1,0.1c-0.2,0.9-1.1,1.3-1.5,2c-0.5,0.8-0.7,1.1,0.5,1.1
				c2.9,0.2,5.5,1.2,7.9,2.7c1.2,0.8,2.1,1.8,3.4,2.8c0.3-2.9-0.1-5.5-0.6-8.2c-0.3-1.6-0.4-3.2-1.3-4.6c-1-4.7-3.9-7.9-7.8-10.2
				c-3-1.8-6.4-2.8-9.9-3.2c-3-0.4-5.8-0.5-8.8-0.4c-1.6,0-3.3,0.2-4.8,0.6c-3,0.6-6,1.2-8.7,2.9l0,0C74.1,10.4,73.8,10.4,73.7,10.7
				L73.7,10.7z M122.6,130.2c-0.1-0.4-0.4-0.2-0.6-0.2c-0.7,0-1.3,0-2.2,0c6.4,4.6,7.1,5.6,8.2,10.4c-0.1,0.3,0,0.8-0.4,0.8
				s-0.4-0.4-0.5-0.7c-1.3-3.7-3.1-7-7.1-8.4c-0.4-0.3-0.9-0.6-1.4-0.6c-0.2-0.3-0.5-0.3-0.8-0.3c-4.6-2-9.2-1.6-13.9-0.6
				c-0.5,0-1,0.1-1.5,0.1c-0.4,0.1-0.7,0.1-1.1,0.2c-0.6,0-1.1,0-1.7,0.1c-0.2,0-0.4,0-0.6,0c-2.4-0.2-4.8,0-7.2-0.6
				c-0.9-0.3-2-0.2-3-0.4c-0.3-0.6-0.9-0.5-1.4-0.6c-0.2-0.2-0.5-0.3-0.8-0.2c-1.7-0.6-3.4-1-5.1-1.7c-6.7-2.5-13.7-4.4-20.4-7
				c-2.1-0.8-4.3-1.2-6.2,0.3c-1.3,1-2.4,2.1-3.3,3.5c-3.8,5.6-7.7,11.2-12.4,16c-2.4,2-5,3.6-8,4.5c-0.5,0.1-0.9,0.5-1.3,0.8
				c-1.4,1.1-1.5,2,0,2.9c0.6,0.4,1.3,0.6,1.9,0.8c5.3,1.4,10.3,0.3,15.1-2c0.8-0.4,1.7-0.8,2.1-1.6c1.1-2.2,2.4-4.3,3.1-6.7
				c0.9-1.4,1.3-3.1,2.2-4.9c0.2,1.7-0.2,3-0.7,4.2c-1.5,4.2-3.5,8.3-5.5,12.3c-0.7,0.5-0.9,1.3-1.3,1.9c-1.8,2.3-4.2,3.8-6.3,5.7
				c-0.7,0.5-1.3,1.2-1.9,1.9c-1.1,1.5-0.8,2.7,0.9,3.4c1.5,0.6,3.1,0.7,4.6,0.3c8.5-2.1,15.1-7.2,20.5-14.1
				c0.5-0.7,0.7-1.5,0.7-2.3c0.2-2.3,0.6-4.5,0.7-6.9c0.2,0.6,0.3,1.2,0.5,1.7c0.1,2.8,0,5.6-0.3,8.3c-0.5,2.8-1.6,5.2-3.3,7.5
				c-0.7,0.9-1.5,1.8-1.9,2.9c-0.7,0.8-1.1,1.8-1.5,2.7c-0.7,1.9,0.1,3,2.1,3c2.5,0.1,4.9-0.6,6.9-2c5.9-4.1,10.3-9.4,11.7-16.8
				c0.1-0.5,0.2-0.9,0.3-1.4c0.1,0.1,0.2,0.2,0.3,0.3c-0.1,1.4-0.2,2.7-0.3,4.2c1.1-0.5,1.8-1.3,2.3-2.2s1-1.9,1.5-2.8
				c0,0.2,0.1,0.4,0.1,0.5s0,0.2,0,0.3c0,0.4-0.1,0.8-0.1,1.2c-0.6,0.9-0.9,1.9-1.6,2.7c-0.5,0.7-1.9,1-1.7,1.8s1.3,1.3,2,2
				c7.6,8,17.2,12.4,27.3,15.9c3,1,6.1,1.3,9.3,1c-0.7-1.3-1.9-1.9-2.4-3.1c0.1-0.1,0.2-0.1,0.4-0.2c2.6,2.4,5,5,8.1,6.7
				c1.4,0.8,2.8,1.4,4.4,1.3c1.6-0.1,2.2-0.9,1.6-2.5c-0.3-0.9-0.9-1.8-1.6-2.5c-0.5-0.8-1.1-1.6-1.6-2.4c-0.2-0.3-0.5-0.7,0.1-0.9
				c0.3,0.3,0.6,0.7,1.1,0.8c0.2,0.2,0.4,0.4,0.6,0.5c1.3,1.6,2.7,3.1,2.8,5.3c0,0.2,0.2,0.4,0.3,0.5c2.1,2,4.4,3.3,7.4,2.9
				c1.9-0.2,2.9-1.7,2.4-3.6c-0.4-1.7-1.2-3.1-2.4-4.3c-0.8-1.4-1.9-2.3-2.9-3.5c-0.2-0.3-0.7-0.6-0.2-1c0.6-0.3,1,0.1,1.5,0.5
				c1.5,1.3,3,2.6,4.9,3.3c1.6,0.6,2.7-0.5,2.5-2.1c-0.2-1.5-1-2.6-2.2-3.4c-0.5-0.4-1-0.8-1.5-1.2c-0.1-0.1-0.4-0.2-0.5-0.2
				c-0.8,0.3-0.8,0.3-1.1-0.2c-0.8-1.4-1.5-2.9-1.6-4.6c-0.7-7.3-1.4-14.7-2.1-22c-0.1-0.9-0.1-1.7-0.2-2.6c0-2.9,0-5.8,0-8.7
				c0-0.5,0.1-1,0.1-1.4c0.3-2.3,0.5-4.6,0.8-6.9c0.1-0.4,0.1-0.7,0.2-1.1c0-0.3,0-0.6,0.1-0.9c0.2-0.9,0.3-1.7,0.3-2.6
				c0.2-1.4,0.2-2.9,0.1-4.3c0-0.7,0-1.3,0-2c-0.4-3.7-1.7-6.9-4.5-9.3c-0.4-0.3-0.8-1-1.4-0.2c-1.1,1.4-2.5,2.2-4,3.1
				c-0.2,0-0.3,0.1-0.5,0.1c-1.2,0-1.2,0.1-0.9,0.8c1.6,3.3,0.8,5.2-2.7,6.3c-2,0.7-4.1,0.5-6.1,0.1c-1-0.4-2-0.8-3.3-1.4
				c0.3,0.9,0.5,1.5,0.7,2.1c0.7,2.6,0.6,5.2-1.2,7.2c-1.1,1.4-1.9,2.9-2.8,4.3c-2.2,3.5-5.5,4.7-9.4,4.8c-0.4,0-0.9-0.3-1.3,0.3
				c-0.6,1.1-1.5,1.5-2.6,1.8c-1.7,0.2-3.4-0.1-5-0.5c-0.2-0.3-0.5-0.3-0.8-0.4c-2.9-1.5-4.1-4-4.5-7.2c0.1-1.1-0.1-2.2-0.4-3.4
				c-1.6,2.7-3.7,4-6.7,3.7c-3.3-1.4-4.7-4.1-5.1-7.5c0-0.9,0-1.7,0-2.8c-2.3,1.9-4.4,3.5-7.1,3.8c-0.4,0-0.5,0.4-0.5,0.8
				c-0.9,2-2.4,3.3-4.2,4.4c-0.8,0.3-1.6,0.6-2.2,1.5c1.8,0.4,3.2-0.1,4.7-0.5c0.4-0.1,0.9-0.4,0.7,0.4c-1,0.7-2.1,1.3-3.4,1.3
				c-0.8,0.1-1.4,0.5-2.1,1.3c8.8,2.4,17.1,5.8,25.7,8.1c3.8,1,7.6,1.6,11.6,1.2c1.2,0.1,2.3-0.1,3.5-0.3c4-0.6,7.9-1.2,11.9-0.2
				c0.8,0.2,1-0.1,1-0.9c0.1-1.3,0.2-2.7,0.3-4c0.1-1.3,0.2-2.6,0.4-3.9c0.2-1.3,0.8-2.6,0.6-3.8c-0.2-1.4,1.1-1.9,1.2-3
				c0-0.3,0.1-0.8,0.7-0.8c-0.2,1.2-0.5,2.3-0.7,3.4c-1.1,4.4-0.8,9-1.3,13.5c2.5-0.5,4.4-0.3,5.8,0.5c0.2,0.1,0.7,0.3,0.2,0.6l0,0
				C123.3,130.1,123,129.9,122.6,130.2L122.6,130.2z M28.6,96.9c-0.3-0.2-0.6-0.4-0.9-0.5c-0.3-0.5-0.9-0.8-0.9-1.4
				c3.8,2.2,7.7,2.1,11.6,0.6c2.7-1.1,5-2.7,7.3-4.5c0.4-0.3,0.6-0.8,1.2-0.7c0,0.2,0,0.4,0,0.6c-0.5,0.5-1.6,0.8-0.6,1.8
				c0.2,0.2,0.5,0.4,0.2,0.7c-0.3,0.3-0.6,0-0.7-0.2c-0.5-0.7-0.9-0.4-1.3,0.1c-0.7,0.6-1.5,1.2-2.3,1.7c-0.5,0.3-0.6,0.7,0,0.9
				c2,0.8,4,1.9,6.2,1.5c3.7-0.6,6.7-4.2,6.9-8.2c0.9-5.8-2.5-9.6-8.3-9.2c-0.5,0-1,0-1.5,0.1c-2.9,0.4-5.7,1.4-8.4,2.5
				c-0.1-0.1-0.2-0.2-0.3-0.3c0.3-0.8,1.1-0.8,1.7-1.1c4.4-1.9,8.8-3.3,13.6-1.6c0.6,0.2,0.8-0.1,0.8-0.6c0-1.6,0-3.2-0.5-4.8
				c-0.1-0.6-0.2-1.2-0.3-1.8c-0.7-3.8-3.8-6-7.5-5.5c-3.3,0.5-6,2.1-8.5,4.1c-0.4,0.3-0.8,0.8-1.5,0.6c2.5-2.9,5.6-4.9,9.3-5.8
				c1.4-0.4,2.9-0.4,4.3,0c2,0.6,2,0.6,2.5-1.6c0-0.2,0.1-0.4,0.1-0.6c0.5-2.9-1-6.1-3.3-6.9c-0.6-0.4-1.2-0.5-1.8-0.6
				c-3.5-0.4-6.8,0.6-10,1.8c-0.8,0.2-1.5,0.5-2.3,0.9c-0.5,0-0.8,0.2-1.2,0.5c-0.3,0-0.6,0.1-0.8,0.3c-0.8,0.2-1.5,0.6-2.1,1.1
				c-3.6,1.9-7.4,3.7-9.7,7.3c-3.4,5.2-4.4,11.1-3.6,17.3c0,0.6,0,1.2,0.1,1.8c0.4,3.2,1.3,6.2,2.1,9.3c-1,0.5-0.9-0.5-1.3-1
				c-0.3,0.6-0.3,1.1-0.3,1.7c-0.9,3.9-1.3,7.9-1.4,11.9c-0.4,4.2-0.4,8.3,0,12.4c0.2,10.1,6.5,23.5,12.6,27
				c-0.2-3.1,0.2-3.9,3.2-5.2c0.3-0.1,0.5-0.2,0.8-0.3c3-0.9,5.4-2.7,7.6-4.9c3.3-3.3,6-7,8.7-10.8c0.3-0.4,0.7-0.8,1-1.2
				c1.1-1.5,2-3.3,3.4-4.4c1.4-1.1,1-2,0.5-3.2c-1.1-2.7-2.9-5-4.5-7.3c-2.1-3.1-3.7-6.4-4-10.2c-0.2-2.1-0.4-3.8-2.8-4.2
				c-0.1,0-0.2-0.1-0.2-0.2c-0.5-0.9-1.1-0.4-1.8-0.2c-2.3,0.7-3.9,3-6.4,3.1c-0.7,0-1.5,0-2.2-0.1c0.4-0.6,1.1-0.3,1.7-0.5
				c1-0.3,1.9-0.4,3-1.3c-1.6,0-2.8,0-4.1,0c-0.6-0.2-1.2-0.3-1.7-0.5C29.3,97.1,28.9,97,28.6,96.9z M90.6,79.9
				c-0.8-1.8-1.1-1.9-3.2-1.3c0.7,0.8,1.4,1.6,2.2,2.4c0.8,1.6,1.5,3.2,2,5C93,83.5,91.6,81.8,90.6,79.9z M95.8,82.1
				c-2.7,2.2-3.4,5.2-3.3,8.5c-0.2,2.5,0.2,5.1-0.3,7.6c4.2-0.2,8.7-2.9,11.5-6.3c2.1-2.6,2.9-5.3,2.5-8.5c-0.1-0.9-0.5-1.7-0.1-2.8
				c0.6,1.7,0.9,3.2,1.1,4.8c0.6-1.2,0.9-2.5,1.2-3.8c0.2-1,0.5-1.8-0.5-2.6c-1-0.8-2-1.1-3.2-0.5c-1.9,0.3-3.4,1.3-4.5,2.9
				c-1.7,1.9-2.3,4.3-2.8,6.6c-0.2,0.5-0.3,1-0.5,1.5c-0.5,1.3-0.7,2.8-1.8,3.8c-0.1,0-0.2,0-0.3,0c0.2-0.6,0.3-1.1,0.5-1.7
				c0.5-1,0.5-2.1,0.7-3.2c0.6-2.8,1.4-5.5,3.3-8.1C97.9,80.5,96.7,81,95.8,82.1z M35.9,151.4c-0.9-0.1-1.7-0.2-2.6-0.3
				c-1.5-0.4-2.9-0.8-4.5-1.3c0.2,0.3,0.2,0.4,0.3,0.5c0.2,0.3,0.6,0.5,0.3,0.8c-0.3,0.4-0.6-0.1-0.8-0.2c-0.4-0.2-0.9-0.5-1.5-0.9
				c0.1,1.7-0.9,2.7-1.8,3.7c-0.5,0.6-1.1,1.2-0.9,2.2c0.2,1.7,1.4,1.2,2.4,1c2.6-0.7,5-2,7.1-3.6c0.4-0.3,0.8-0.8,1.5-0.6
				c0.3,1.1-0.6,2.1-0.6,3.2c-0.5,1.7-0.1,2.1,1.5,1.8c3.8-0.7,6.6-3.2,9.3-5.9c0.9-0.9,1.7-2.1,2.2-3.7c-2,1.2-4,1.7-5.8,2.4
				C39.9,151,37.9,151.3,35.9,151.4z M97.8,98.1c-2.7,1-5.4,1.4-8.2,1.5c-0.6,0-1.1,0-1.7-0.1c-1.1-0.1-2.3-0.2-3.2-1.2
				c0.8-0.3,1.4,0.2,2.2,0.2c4,0.1,4.6,0,4.2-4c0-0.3,0.1-0.7-0.2-0.9c-2,3-5,3.5-8.3,3.2c-0.3-0.2-0.7-0.4-1.2-0.3
				c0.9,1.6,2,2.8,3.4,3.8c3.3,2.2,6.9,2.6,10.7,2.4c7.5-0.4,14.2-5.5,16.8-12.8c1.6-4.5,1.4-9.1,0.9-13.7c-0.2-2.1-0.7-4.3-1.1-6.4
				c-0.2-1.1-0.6-1.7-1.7-0.9c-0.3,0.2-0.6,0.3-0.9,0.4c-0.5,0.2-0.8,0.5-0.5,1.1c0.7,1.8,0.9,3.7,1.3,5.6c0.3,4.1-0.8,7.9-2.3,11.6
				C105.6,92.3,102.4,95.9,97.8,98.1z M107,107.1L107,107.1c-1-1.4-2.7-2.3-3.5-3.9c-0.4-0.8-0.9-0.8-1.6-0.5
				c-1.9,0.8-3.9,1.3-6,1.5c-1.3,0.1-3-0.6-3.7,0.4c-0.6,0.9-0.1,2.6-0.1,3.9c-0.3,1.6-1,3.2-1.2,4.9c-1.1,2.5-0.8,4.9,0.6,7.1
				c1.6,2.5,5.7,3.8,8.3,2.7c0.4-0.2,1.5-0.4,0.4-1.1c-1.1-0.7-1.8-1.8-2.8-2.6c-0.2-0.6-0.4-1.3-0.8-1.8c-0.2-0.8-0.3-1.5-0.5-2.3
				c0-1.6,0-3.3,0.3-4.9c0.2-0.5-0.2-1.3,0.6-1.5c0,2.2-0.1,4.4,0.2,6.6c0.5,2.9,2.3,5,4.8,5.6c3.4,0.8,7.9-1.2,9.6-4.4
				c1.4-2.7,0.3-6.5-2.7-7.8c-0.4-0.8-1-1.3-1.8-1.7C107.2,107.3,107.1,107.2,107,107.1z M24.7,52.9c-0.5,1.3-1.1,2.5-1.6,3.8
				c-1.6,2.8-3,5.7-4,8.8c0,0.1-0.1,0.3-0.1,0.3c0.1,0.1,0.2,0,0.2-0.1c0.8-0.7,1.6-1.5,2.5-2.2c4.2-3.2,8.8-5.5,13.7-7.3
				C36,56,36.5,56,36.5,55c-0.1-2.4-0.4-4.7-1.5-6.8c-0.5-1.9-1.4-3.5-2.7-5c-1.7-2-3.7-3.7-6.4-4c-1.1-0.1-2.3-0.2-2.9,0.9
				c-0.6,1.1-0.1,2.1,0.5,2.9c1,1.3,1.7,2.7,2.4,4.2c0.2,1.4,0.7,2.7,0.5,4.2c-0.7-0.1-0.4-0.8-0.7-1c0-0.2,0.1-0.5-0.2-0.6
				c0,0.2-0.1,0.4-0.1,0.6C25.2,51.4,25,52.1,24.7,52.9z M79.8,46.2c-0.7,1.3-1,2.8-1.4,4.2c-0.2,0.8,0,1,0.7,1.2
				c1.6,0.4,3,1.2,4.5,2.1c0.5,0.3,1,0.9,1.8,0.9c-0.1-1.5-0.1-3,0.1-4.5c0.2-0.8,0.3-1.6,0.5-2.3c0.8-2.1,1.7-2.5,3-1.4
				c0.2-1.4,0.3-2.8,0.3-4.2c0-1.3-0.1-2.5-1.9-2.4c-0.4,0-0.9-0.2-1.3-0.5c-0.6-0.4-1-0.2-1.5,0.3C82.5,41.5,80.8,43.6,79.8,46.2z
				 M103.4,41.6c-0.2-0.1-0.4-0.2-0.6-0.3c-0.4-0.3-0.9-0.5-1.4-0.5c-3.8-1.2-7.3,0.7-8.8,4.9c-1,2-1.2,4.2-1.1,6.4
				c-0.1,3.2,1,5.9,3,8.3c0.3,0.4,0.6,0.8,1.2,0.2c3.6-3.2,7.9-4.3,12.6-4.1c0.6,0,0.9-0.1,1.1-0.7c0.9-3.2,0.8-6.4-1-9.3
				C107,44.6,105.8,42.5,103.4,41.6z M124.4,56.7c0-0.3-0.2-0.4-0.5-0.5c-1.1-1.3-2.4-2.3-3.9-3c-1-0.8-2.5-0.3-3.2-1.7
				c0.2,0,0.4-0.1,0.6,0c1.2,0.4,1.4-0.2,1.2-1.3c-0.3-2.2-0.3-4.4-0.6-6.6c-0.5-3.5-1-7-3.6-9.7c-2.8-3.5-6.6-4.7-10.8-5
				c-0.4,0-0.7,0.2-0.9,0.6c-0.8,1.3-1.7,2.5-2.5,3.8c-0.6,0.5-1,0.9,0.2,1.2c3.2,1,5.9,2.7,8.1,5.3c0.6,0.7,0.6,0.7,0.4,1.6
				c-2.6-2.8-5.7-4.7-9.3-5.7c-0.8-0.2-1.4-0.1-2,0.5c-1.8,1.9-3.9,3.1-6.4,3.7c-0.8,0.2-1.3,0.6-1.3,1.6c0,1.5,0,3.1-0.2,4.6
				c-0.4,3.3-0.8,6.7-1.6,10c-0.1,0.3-0.4,0.8,0.2,0.7c1.1-0.1,2.1,0.4,3.3,0.9c-1.7-4.5-1.2-8.7,0.1-12.8c0.6-0.9,1.2-1.8,1.8-2.7
				c0.2-0.3,0.1-0.4-0.2-0.5c0-0.3,0.1-0.5,0.4-0.7c1.7-1.2,3.5-1.5,5.6-1.5c6.3,0.1,13.1,7.2,11.2,15.4c-0.3,1.4-0.3,2.1,1.2,2.3
				c0,0,0,0.2,0.1,0.4c-1.9-0.3-3.8-0.5-5.6-0.3c-3.9,0.4-7.4,1.5-10.3,4.5c-2.8,2.5-2.2,6.1,1.1,7.4c0.7,0.3,1.4,0.5,2.2,0.5
				c6.4,0.4,11.8-1.7,16.2-6.5c0.4-0.4,0.7-1,1.3-1.3c-0.1,0.4-0.1,0.7-0.2,1.1c-0.9,1.5-2,3-3.4,4.1c-0.3,0.2-0.5,0.4-0.3,0.8
				c0.6,2,1.1,4.1,1.6,6.1c0,0.7,0.1,1.3,0.1,2c0.3,4.5,0.6,8.9-0.6,13.3c-0.6,1.5-1.2,3.1-1.8,4.6c-1.9,2.8-4,5.4-7,7.1
				c-0.9,0.5-0.7,0.9-0.3,1.6c1.6,2.2,3.8,3.8,5.9,5.5c1.5,1.5,2.8,3.2,3.1,5.6c1.3-1.2,1.9-2.4,2-3.8c0.3-2.5-0.4-4.6-1.7-6.7
				c-0.2-0.7-1.5-1.3-0.1-2c0.6,0.5,1.1,1,1.8,1.4c3.1,2.2,6.4,2.8,10,1.3c2.2-0.9,2.6-2.7,1-4.6c-0.7-0.9-1.6-1.5-2.6-1.9
				c-0.5-0.6-1.4-0.6-1.8-1.5c0.5,0.1,0.9,0.2,1.3,0.3c1,0.7,2,1.6,3.2,1.4c2.4-0.3,4.4-1.7,5.9-3.7c0.6-0.9,0.8-1.9,0.3-2.9
				s-1.3-1.3-2.3-1.2c-3.8,0.1-6.7-1.4-8.9-4.6c-1.1,1.3-2.1,2.6-3.2,3.8c-0.3,0.3-0.6,0.8-1.1,0.5c1.7-2.9,3.5-5.7,5.1-8.6
				c3.1-5.4,5.3-11.2,4.7-17.6c-0.2-2.5-0.9-4.9-2.8-6.7C124.5,56.8,124.5,56.7,124.4,56.7z M80.9,94.7c0.8,1.4,2.2,1.3,3.5,1.3
				c1.9-0.1,3.6-0.6,4.9-2.2c0.5-0.4,0.8-1,1-1.5C92,88,89.8,81.4,85.9,79c-0.4-0.4-0.9-0.5-1.4-0.5c-1.9,0-3.8,0.1-5.6,0.4
				c-2.1,0.3-4,1.2-5.8,2.5c-0.8,0.6-0.9,1.1-0.5,2.1c1.6,3.2,3.7,5.9,6.1,8.4c0.4,0.4,1,0.7,0.9,1.4c-1.4-0.2-2-1.7-3.3-2.1
				c-0.5,5.6-2.9,9.9-7.8,12.6c-1.1,0.6-2.3,1.4-2.9,2.7c-0.4,0.7-0.2,1.3,0.4,1.8c1.1,0.9,2.3,1.3,3.7,1c1.9-0.3,3.5-1.3,5-2.5
				c1.3-1.1,2.5-2.2,3.5-3.5c0,1.2,0,2.4-0.1,3.5c-0.5,2.2-0.2,4.4,0.9,6.4c1.8,3.3,5.2,3.6,7.6,0.6c0.9-1.1,1.6-2.4,2-3.8
				c0.1-0.4,0.3-0.8,0.8-0.7c0.7,0.1,0.4,0.6,0.3,1c0,0.2,0,0.4,0.3,0.5c0.6-0.8,0.7-1.7,0.8-2.6c0.3-1,0.2-2,0.3-3
				c0.1-0.9-0.3-1.2-1.2-1.4c-2.3-0.4-4.4-1.2-6.3-2.7c-1.8-1.3-3-3.1-3.4-5.3C80.3,95.4,80,94.7,80.9,94.7L80.9,94.7z M69,84.8
				c0.2,0.6,0.7,1,1.3,1.3c0.1-4.1,1.6-6.3,5.3-7.7c2.9-1.1,5.9-1.1,8.9-1.2c4.6-0.1,9.2-0.7,13.4-2.8c1.4-0.7,2.8-1.5,4.2-2.9
				c-3.1-0.1-5.8-0.4-7.9-2.6c-1-1.5-1.7-3.3-0.7-4.9c1.1-1.8,0.3-2.9-0.8-4.1c-0.6-0.7-1.2-1.3-2-1.8s-1-0.5-2.1-0.3
				c0.6,0.5,1.2,0.9,1.8,1.3c-0.8,0.1-1.5,0.5-2.2-0.2c-1.8-1.6-3.6-3-5.5-4.4c-4.1-2.9-9.1-2.6-12.6,1c-1.7,1.7-2.8,3.7-3.5,6
				c-1.3,4.4-1.4,8.9-0.7,13.4C66.2,78.5,67,81.8,69,84.8z M84.4,38.5c-0.6-0.3-0.7-1.3-1.5-0.9c-0.7,0.3-1.4,0.7-1.9,1.5
				c-2,3.5-3.7,7.1-4.4,11c-0.1,0.3-0.5,0.9,0.2,1.1c0.7,0.1,0.5-0.6,0.6-0.9C78.6,45.6,80.8,41.7,84.4,38.5z"/>
			<path class="st1" d="M137.9,122.7c0,0.5-0.1,1-0.1,1.4c-0.6-0.1-0.7,0.3-0.9,0.8c-0.3,0.9,0.3,1.9-0.2,2.8
				c-0.9,1.6,0.3,3.1,0.4,4.6c0,0.3,0.4,0.4,0.7,0.4c0.1,0.9,0.1,1.7,0.2,2.6c-1.1,0.5-1.3,1.9-2.4,2.5c-0.2,0.1-0.2,0.7-0.3,1.1
				c0,0.8,0,1.5,0,2.3c0,0.7,0.1,1.2,1,1.2c0.8,0,0.8,0.6,0.7,1.1c-0.3,1.1-0.5,2.3-0.5,3.5c0,0.5,0,1-0.6,1.1s-0.6-0.5-0.8-0.9
				c-0.1-0.4-0.3-0.9-0.9-0.7c-0.5,0.1-0.8,0.5-0.9,1c0,0.5,0.1,1.2-0.3,1.5c-0.9,0.7-0.8,1.6-0.8,2.6s0,1.9-1.1,2.4
				c-0.3,0.1-0.6,0.4-0.4,0.8c0.2,0.3,0.4,0.2,0.7,0.2c1.4-0.1,1.9,0.7,1.1,1.8c-1.1,1.3-1.1,3.1-2.3,4.3c-0.4,0.4-1,0.9-1,1.3
				c-0.1,1.7-1,1.8-2.3,1.8c-0.4,0-0.8-0.1-0.9,0.5s0.2,0.9,0.8,0.9c1,0.1,1,0.5,0.4,1.1c-0.8,0.8-1.3,1.7-1.8,2.7
				c-0.4,0.8-1.3,1.3-2,0.3c-0.5-0.6-0.8-0.2-1.2-0.1c-0.2,0-0.3,0-0.5-0.1c0-0.8-0.1-1.6-1.1-0.8c-0.5,0-0.8-0.5-1.3-0.7
				c-0.4-0.1-0.8-0.8-1.3-0.2c-0.1,0.1-0.2,0.1-0.4,0.2c-1.9-0.3-3.8-0.4-5.6-1.1c-2.5-0.9-5.1-1.4-7.3-3.1c0.2-0.3,0.4-0.3,0.7-0.2
				s0.7,0.3,0.8-0.2c0.1-0.4-0.6-0.2-0.5-0.6c1.8-0.8,3-2.5,4-3.8c3-4.3,5.4-9,7-14.1c0.2-0.6,0.5-1.1,1-1.6
				c0.6-0.6,1.1-1.4,0.8-2.2c-0.5-1.4,0-2.8,0.5-3.9c0.8-1.7,0.6-3.6,1-5.3c3.9,1.4,5.8,4.7,7.1,8.4c0.1,0.3,0.2,0.7,0.5,0.7
				c0.5,0,0.3-0.5,0.4-0.8c0.6-0.5,0.8-1.3,0.7-2c-0.5-2-1.2-3.9-2.7-5.4c-0.8-0.9-2-1.4-2.6-2.5c0.5-0.4,0.1-0.5-0.2-0.6
				c-1.3-0.9-3.2-1-5.8-0.5c0.5-4.5,0.2-9.1,1.3-13.5c0.9-0.5,1.7-1.4,1.4-2.3c-0.4-1.3,1.3-3.4-1.3-3.9c-0.1,0-0.2-0.4-0.3-0.6
				c-0.6-1.2,0.2-2.2,0.5-3.2c2,0.4,4.1,0.6,6.1-0.1c3.4-1.1,4.2-3,2.7-6.3c0.2-0.4,0.8-0.2,0.9-0.8c0.2,0,0.3-0.1,0.5-0.1
				c0.2,0.3,0.6,0.4,0.9,0.3c1.3-0.5,2.5,0.1,3.7,0.6c-0.1,0.7,0.3,0.9,0.9,0.8c0.2,0,0.4,0.1,0.5,0.3c-0.4,1.9-0.1,3.9-0.2,5.8
				c-0.1,1.2-0.3,2.9,1,3.6c0.7,0.4,0.9,0.8,0.9,1.5c0,0.3,0.1,0.7,0.2,1c0.1,0.4,0.4,0.7,0.9,0.5c0.5-0.1,0.4-0.5,0.2-0.8
				c-0.3-1,0.4-0.8,0.9-0.9c0.1,0.9-0.1,1.7-0.3,2.6c-0.4,0.1-0.9-0.2-1,0.4c0,0.6,0.6,0.4,0.9,0.5c-0.1,0.4-0.1,0.7-0.2,1.1
				c-0.5,0.2-0.8-0.4-1.4-0.4c0.1,2-0.1,3.9-0.3,5.8C136.9,121.8,137,122.6,137.9,122.7z M128.8,161.4c-0.1-0.2,0.1-0.8-0.5-0.7
				c-0.6,0-0.7,0.5-0.7,1c0,0.4-0.1,0.9,0.5,0.8C128.7,162.5,128.8,162,128.8,161.4z M131.6,156.7c0-0.4-0.2-0.6-0.6-0.7
				c-0.3,0-0.5,0.1-0.5,0.4c0,0.4,0.2,0.6,0.6,0.7C131.4,157.1,131.5,157,131.6,156.7z"/>
			<path class="st2" d="M87.6,129.3c0.5,0.1,1.1,0,1.4,0.6c-0.9,0.8-0.9,2.2-1.8,3.1c-0.8,0.8-1.2,1.8-1.4,2.9c-0.1,1-0.5,1.7-1.6,2
				c-0.4,0.1-1,0.3-1,0.9c0,1-0.5,1.9-1,2.7c-0.4,0.8-0.5,1.9-1.7,2.1c0.1-0.5-0.4-0.5-0.6-0.9c0.5-0.3,0.8-0.7,0.5-1.2
				c-0.3-0.4-0.9-0.4-1.3-0.1c-0.5,0.4-0.4,0.9,0,1.3c0,0.3,0,0.6-0.3,0.9c-0.3,0-0.6-0.1-0.7,0.2c-0.2,0.4,0.2,0.5,0.5,0.7
				c0,0.2,0,0.4-0.1,0.5c-0.7,0.1-1.2,0.5-1,1.3c0.1,0.4,0.1,0.7-0.4,0.6c-1.7-0.1-3,0.9-4.4,1.6c-2.1,1.1-4,2.5-6.6,1.9
				c0.3-2.8,0.4-5.6,0.3-8.3c0.5-1.8-0.6-3.3-1-5c-0.2,0.4-0.4,0.8-0.4,1.3c-0.2,2.7-1,5.2-2.3,7.5c-1.7,2.9-3.8,5.5-6.7,7.2
				c-2.8-0.5-5.7-0.4-7.9-2.6c2-4,3.9-8,5.5-12.3c0.4-1.2,0.9-2.5,0.7-4.2c-1,1.8-1.3,3.5-2.2,4.9c-0.8,0.1-1.2,0.8-1.7,1.4
				c-2,2.4-4.5,3.9-7.3,5c-0.1-0.6-0.4-0.4-0.8-0.2c-0.9,0.4-2.8-0.6-2.9-1.5c-0.1-1.1-0.4-2.1-0.3-3.2c4.7-4.9,8.6-10.4,12.4-16
				c0.9-1.4,2.1-2.5,3.3-3.5c1.9-1.5,4.1-1.1,6.2-0.3c6.7,2.6,13.7,4.5,20.4,7c1.7,0.6,3.4,1.1,5.1,1.7c0,0.3,0.1,0.7,0.5,0.7
				C87.5,129.8,87.5,129.5,87.6,129.3z M73.9,145.3c-0.2,0-0.4,0.1-0.4,0.3s0,0.4,0.2,0.4c0.3,0.1,0.5-0.1,0.5-0.3
				S74.1,145.4,73.9,145.3z M70.1,147.8c0,0.2,0,0.4,0.2,0.5c0.3,0.1,0.3-0.2,0.3-0.4s-0.1-0.4-0.2-0.4
				C70.1,147.4,70.1,147.7,70.1,147.8z M68.4,148c-0.1-0.1-0.2-0.2-0.3-0.2s-0.2,0.2-0.2,0.2c0,0.2,0.1,0.4,0.3,0.3
				C68.2,148.3,68.3,148.1,68.4,148z"/>
			<path class="st2" d="M33.3,58.8c0.7-0.4,1.5-0.7,2.3-0.9c0.3,0.9,0.9,1.5,1.6,2.1c1.7,1.4,3.1,3,3.2,5.4
				c-0.3,0.3-0.7,0.5-1.1,0.5c-0.1,0.1-0.2,0.2-0.3,0.2c-3.6,1.8-5.8,4.4-5.1,6.3c0.4-0.2,0.3-0.8,0.5-1.1c0.6,0.2,1-0.3,1.5-0.6
				c2.6-2,5.3-3.6,8.5-4.1c3.7-0.5,6.8,1.7,7.5,5.5c0.1,0.6,0.2,1.2,0.3,1.8c-1.9,1.5-4.1,1.7-6.3,1.7c-2.9,0.1-5.5,1.1-7.8,2.9
				c-1.2,0.9-1.9,2-1.7,3.6c0.1,0.4,0.2,0.6,0.6,0.2c2.8-1,5.5-2.1,8.4-2.5c0.5-0.1,1-0.1,1.5-0.1c-0.6,1.1-0.4,2.9-2.3,2.9
				c-0.2,0-0.2,0.4-0.3,0.6c-0.5,0.9-0.8,2.1-2.2,1.1c-0.2-0.1-0.9-0.1-0.9,0c-0.6,1.6-2,2.2-3.2,3c-0.2,0.1-0.2,0.7-0.6,0.6
				c-1.2-0.2-2,0.7-3.1,0.9c-2.3,0.5-4.6,0-6.9,0.3c-1.9,0.3-3.2-1.5-5-1.3c-0.3,0-0.3-0.4-0.3-0.7c-0.4-1.6-3-0.4-3.1-2.5
				c0-0.1-0.4-0.2-0.6-0.1c-0.8,0.1-1.6,0.3-2.5,0.5c-0.8-6.2,0.2-12.1,3.6-17.3c2.3-3.6,6.1-5.4,9.7-7.3c1.1,0.4,1.8,0.1,2.1-1.1
				c0.2-0.2,0.5-0.3,0.8-0.3c0.5,0.2,0.4,1,1,1C33.5,59.8,33.3,59.3,33.3,58.8z M31.9,60.3c0,0.1-0.1,0.2-0.1,0.2
				c0.1,0,0.2,0.1,0.2,0.1c0.1,0,0.1-0.1,0.1-0.2C32,60.4,31.9,60.3,31.9,60.3z"/>
			<path class="st3" d="M120,132c-0.4,1.8-0.1,3.6-1,5.3c-0.5,1.1-1,2.5-0.5,3.9c0.2,0.7-0.2,1.6-0.8,2.2c-0.5,0.4-0.8,0.9-1,1.6
				c-1.7,5.1-4,9.8-7,14.1c-1,1.4-2.1,3.1-4,3.8c-0.1,0.4,0.7,0.2,0.5,0.6c-0.1,0.5-0.5,0.3-0.8,0.2s-0.5-0.2-0.7,0.2
				c-0.5-0.2-1-0.3-1.4-0.5c-2.2-1.3-4.5-2.6-6.6-4c-1.9-1.3-3.9-2.5-5.5-4.2c0.3-0.1,0.6-0.2,0.7-0.3c1.8-1.7,3.3-3.7,4.8-5.7
				c0.9-1.2,2.2-2.4,2.5-4c0.4-2.4,2.3-3.9,2.8-6.3c0.4-1.6,0.2-3.6,1.6-5v-0.1c-0.1-1.1,0.1-2.2,0.3-3.3c4.7-1,9.3-1.4,13.9,0.6
				c-0.3,0.1-0.3,0.3-0.4,0.7c0.1-0.1,0-0.2-0.1-0.1c-0.1,0.1-0.2,0.1-0.3,0.2c-0.1,0.1,0.1,0.3,0.2,0.2c0.1,0,0.2-0.2,0.2-0.3
				c0.4-0.1,0.8-0.1,1.1-0.4C119.1,131.4,119.6,131.7,120,132z M117.6,134.7c0.3-0.1,1.2-0.2,1.2-0.8c0.1-0.8-0.8-0.4-1.2-0.5
				c-0.4-0.1-0.7,0-1.1-0.1c-0.3-0.1-0.6-0.1-0.6,0.3c-0.1,0.4-0.1,0.8,0.4,0.9C116.6,134.6,117,134.6,117.6,134.7z M114.9,140.9
				c0-0.3-0.1-0.5-0.4-0.4c-0.4,0.1-0.9,0.3-0.9,0.9c0,0.3,0.2,0.4,0.5,0.3C114.4,141.5,115,141.5,114.9,140.9z M115,135.7
				c-0.4,0.6-0.4,0.9,0,1.5C115.3,136.6,115.3,136.3,115,135.7z M107.4,155.1c0.2,0,0.4,0,0.4-0.3c0-0.2-0.3-0.2-0.4-0.2
				c-0.2,0-0.4,0-0.4,0.3C107,155.1,107.2,155.1,107.4,155.1z"/>
			<path class="st4" d="M47.9,127.4c-2.7,3.8-5.4,7.6-8.7,10.8c-2.2,2.2-4.6,4-7.6,4.9c-0.3,0.1-0.5,0.2-0.8,0.3
				c-3,1.3-3.4,2-3.2,5.2c-6.2-3.6-12.4-16.9-12.6-27c1.2,1.1,2.7,1.3,4.3,1.2c0.2,0,0.4,0,0.6,0.1c3.2,0.9,6.4,1.6,9.7,1.7
				c1.7,0,3.3-0.2,5-0.5c1.6-0.3,3.2-0.1,4.8-0.1c0.4,0,0.8-0.1,1.1-0.5c0.7-0.9,1.8-1.1,2.8-1.2c0.8-0.1,1.3-0.4,1.8-0.9
				c0.8,0.6,0.9,1.6,1.4,2.4C47,124.8,47,126.3,47.9,127.4z"/>
			<path class="st5" d="M69,84.8c-2-2.9-2.8-6.3-3.3-9.7c-0.7-4.5-0.6-9,0.7-13.4c0.7-2.3,1.8-4.3,3.5-6c3.5-3.6,8.6-3.9,12.6-1
				c1.9,1.4,3.8,2.8,5.5,4.4c0.7,0.6,1.4,0.3,2.2,0.2c-0.6-0.4-1.2-0.9-1.8-1.3c1.1-0.2,1.3-0.2,2.1,0.3s1.4,1.1,2,1.8
				c1.1,1.2,1.9,2.2,0.8,4.1c-1,1.6-0.4,3.4,0.7,4.9c0.3,2.3,0.2,2.4-2.2,2.9c-2.2,0.5-4.5,0.2-6.7,0.3c-3.4,0.1-6.6,0.8-9.6,2.6
				c-3.1,1.8-5.5,4.2-6.3,7.9C69.1,83.3,69.7,84.1,69,84.8z M67.6,71.4c0.5-2.2,1-4.2,1.7-6.3c1.1-3.1,2.6-5.9,5.7-7.5
				c1.8-0.9,3.6-0.5,5.4-0.6c0.5,0,1.2,0.4,1.4-0.5c0.2-0.7-0.5-1.1-1-1.5c-1.5-0.9-3.2-0.8-4.8-0.5c-2.9,0.6-5,2.4-6.6,4.9
				C67.2,63.2,66.8,67.2,67.6,71.4z"/>
			<path class="st6" d="M114.4,33.8c2.6,2.7,3.1,6.2,3.6,9.7c0.3,2.2,0.4,4.4,0.6,6.6c0.1,1.1,0,1.7-1.2,1.3c-0.2,0-0.4,0-0.6,0
				c0.7,1.4,2.3,0.9,3.2,1.7c-0.7,1-1.7,1.8-1.5,3.3c0,0.1-0.1,0.4-0.2,0.5c-1.1,0.6-1.1,1.7-1.2,2.7c-1.5,0.4-2.2,1.9-3.2,2.8
				c-3.9,3.2-8.3,4.6-13.3,4.5c-1.8,0-3-0.9-4.3-2.1c-1-1-0.3-2-0.4-3c2.8-3,6.4-4.1,10.3-4.5c1.9-0.2,3.7,0,5.6,0.3
				c0-0.2-0.1-0.4-0.1-0.4c-1.5-0.2-1.5-0.9-1.2-2.3c1.9-8.2-4.9-15.3-11.2-15.4c-2.1,0-3.9,0.2-5.6,1.5c-0.3,0.2-0.3,0.4-0.4,0.7
				c-1,0.8-2.3,1.5-1.6,3.2c-1.3,4.2-1.8,8.3-0.1,12.8c-1.2-0.5-2.2-1.1-3.3-0.9c-0.6,0.1-0.3-0.5-0.2-0.7c0.8-3.3,1.2-6.6,1.6-10
				c0.2-1.5,0.2-3.1,0.2-4.6c0-0.9,0.5-1.4,1.3-1.6c2.5-0.6,4.7-1.8,6.4-3.7c0.6-0.7,1.2-0.8,2-0.5c3.6,1,6.7,2.9,9.3,5.7
				c0.1-0.9,0.1-0.9-0.4-1.6c-2.1-2.7-4.9-4.3-8.1-5.3c-1.2-0.4-0.8-0.7-0.2-1.2c0.5,0.1,0.8-0.2,1.2-0.4c4.2-1.7,8.2-1.9,12.1,0.8
				C113.8,33.8,114.1,33.9,114.4,33.8z"/>
			<path class="st7" d="M83.6,26.3c0.7-2.4,2.5-4,4.5-5.2c2.1-1.2,4.4-1.8,6.7-2.6c0.6-0.2,1.3-0.2,1.9-0.9
				c-1.6-0.2-2.9,0.3-4.3,0.5c0.2-1.7,1.6-3.2,1.1-5.1c-0.3-1.2-0.2-2.4-0.3-3.6c0.3,0,0.6,0,0.8,0c0.2,0.3,0.4,0.4,0.6,0.1
				C95,9.4,95.6,9.7,96,9c-2.8-0.7-5.4-1.3-8.2-1.3c0-0.3,0-0.5,0-0.8c2.9-0.1,5.8,0,8.8,0.4c3.6,0.5,6.9,1.4,9.9,3.2
				c3.9,2.3,6.8,5.6,7.8,10.2c-0.5,1-0.7,2.1-1.3,3c-1.2,1.7-3.3,2.2-5,1.1c-0.2-0.2-0.5-0.3-0.5-0.6s0.4-0.4,0.6-0.5
				c0.8-0.4,1.7-0.8,2.6-1.2c0.3-0.1,0.9-0.1,0.7-0.7c-0.1-0.5-0.6-0.2-1-0.3c-2.8-0.3-5,1.3-7.1,2.9c-2.5,1.9-4.7,4.2-7.3,6.1
				C91.1,34,84.4,32.5,83.6,26.3z M96,20.6c-3.7,0.3-6.9,2-9.3,5.2c-0.5,0.6-0.9,1.3-0.1,2c0.8,0.7,1.5,0.3,2.1-0.4
				c1.6-1.9,3.7-3.2,6-4c0.8-0.3,1.6-0.7,2.4-1.2c0.4-0.2,1-0.4,0.8-1c-0.2-0.5-0.8-0.4-1.2-0.6C96.5,20.5,96.3,20.6,96,20.6z"/>
			<path class="st1" d="M45,121.2c-0.5,0.6-1,0.9-1.8,0.9c-1,0.1-2.1,0.3-2.8,1.2c-0.3,0.4-0.7,0.5-1.1,0.5c-1.6,0-3.2-0.2-4.8,0.1
				c-1.7,0.3-3.3,0.5-5,0.5c-3.3-0.1-6.5-0.8-9.7-1.7c-0.2,0-0.4-0.1-0.6-0.1c-1.6,0.2-3,0-4.3-1.2c-0.5-4.1-0.5-8.3,0-12.4
				c0.7,0.1,1.1-0.4,1.5-0.8c0.3-0.2,0.5-0.7,0.9-0.5c1.3,0.6,2.7,0.8,4,1c0.6,0.1,0.9,0.4,0.8,1c-0.3,1,0.3,1,1,1.1
				c0.8,0.1,1.8-0.3,2.5,0.2c1.4,1.1,3,0.9,4.5,0.7c0.6-0.1,1.8,0.3,1.8-0.5c0-0.7-1.3-0.6-2-0.7c-0.9-0.1-1.8,0.2-2.6-0.3
				c1.6-0.1,3.3-0.6,4.7,0c2.1,0.8,4.2,1.3,6.5,1.3c0.8,0.5,1.1,1.4,1.6,2.1C41.7,116.1,43.3,118.7,45,121.2z"/>
			<path class="st6" d="M103.9,130.5c-0.2,1.1-0.4,2.2-0.3,3.3v0.1c-1.4,1.4-1.2,3.3-1.6,5c-0.5,2.3-2.4,3.9-2.8,6.3
				c-0.3,1.5-1.5,2.7-2.5,4c-1.5,2-3,4-4.8,5.7c-0.2,0.2-0.5,0.2-0.7,0.3c-0.2-0.2-0.4-0.4-0.6-0.6c0-0.9,1-0.7,1.3-1.3
				c-1-1-2,0-3-0.2c-1.3-1.4-2.5-2.8-3.4-4.5c-0.2-0.3-0.3-0.7-0.8-0.7c0-0.4,0.1-0.8,0.1-1.2l0.1-0.1c0-0.1-0.1-0.1-0.1-0.2
				c0-0.2-0.1-0.4-0.1-0.5c0.8-1.6,0.8-3.3,0.1-4.9c-0.1-0.3,0.1-1.1-0.5-1s-0.4,0.7-0.3,1.2c0.4,1.7-1.3,4.8-2.9,5.5
				c-0.1-0.1-0.2-0.2-0.3-0.3c0-1-0.1-1.9-0.1-2.9c1.2-0.2,1.3-1.3,1.7-2.1s1-1.6,1-2.7c0-0.6,0.5-0.8,1-0.9c1-0.3,1.4-1,1.6-2
				c0.1-1.1,0.6-2.1,1.4-2.9c0.8-0.9,0.8-2.3,1.8-3.1c1,0.1,2,0.1,3,0.4c2.4,0.7,4.8,0.5,7.2,0.6c0,0.2,0.1,0.4,0.3,0.4
				s0.3-0.2,0.3-0.4c0.6,0,1.1,0,1.7-0.1c0,0.1,0,0.3,0,0.4c0,0.5,0.1,0.9,0.6,0.9c0.7,0,0.4-0.6,0.5-1c0-0.2,0-0.4,0-0.6
				C103,130.6,103.4,130.5,103.9,130.5z"/>
			<path class="st6" d="M15.9,85.4c0.8-0.2,1.6-0.4,2.5-0.5c0.2,0,0.6,0.1,0.6,0.1c0.1,2.1,2.7,0.9,3.1,2.5c0.1,0.3,0,0.7,0.3,0.7
				c1.8-0.2,3.1,1.6,5,1.3c2.2-0.4,4.6,0.2,6.9-0.3c1-0.2,1.9-1.1,3.1-0.9c0.4,0.1,0.4-0.5,0.6-0.6c1.2-0.8,2.7-1.4,3.2-3
				c0-0.1,0.7-0.2,0.9,0c1.4,0.9,1.8-0.2,2.2-1.1c0.1-0.2,0.1-0.6,0.3-0.6c1.9,0,1.7-1.8,2.3-2.9c5.8-0.4,9.2,3.3,8.3,9.2
				c-0.6,0.2-0.7,0.8-1.1,1.2c-1.4,1.8-3.1,3.1-5.5,3.4c0.2-0.6,0.7-0.6,1-0.9c0.3-0.4,0.7-0.7,0.5-1.2s-0.7-0.3-1.1-0.3
				c-0.8,0-1.5-0.2-2.2-0.3c0-0.2,0-0.4,0-0.6c0.6-0.6,1.5-0.8,1.7-1.8c0.1-0.4,0.4-0.8,0-1.2c-0.4-0.3-0.7,0-1,0.2
				c-1.6,1.1-3.4,1.8-5.1,2.8c-5,3-10.2,4.1-15.9,2.8c-0.4-0.1-1-0.6-1.3-0.1c-0.3,0.6,0.3,1,0.7,1.4c0.2,0.2,0.5,0.3,0.7,0.4
				c0,0.7,0.6,0.9,0.9,1.4c0,0.1,0,0.2,0,0.3c-1,0.4-0.4,1.4-0.6,2.1c-0.1,0-0.2,0-0.2,0c-0.5,0-1.4-0.3-1.6,0.2
				c-0.4,1.4-1.3,0.7-1.9,0.5c-1-0.2-2-0.5-3-0.5s-1.7-0.5-1.5-1.7c0,0,0-0.1,0.1-0.1c0,0,0,0.1-0.1,0.1c-0.2,0-0.4,0-0.6,0
				c-0.3-0.2-0.3-0.4-0.3-0.7c-0.8-3.1-1.7-6.1-2.1-9.3C15.9,86.6,15.9,86,15.9,85.4z"/>
			<path class="st4" d="M122.2,169.6c0.4-0.1,0.7-0.5,1.2,0.1c0.7,0.9,1.6,0.5,2-0.3c0.5-1,1-1.9,1.8-2.7c0.6-0.6,0.6-1.1-0.4-1.1
				c-0.6,0-0.9-0.4-0.8-0.9s0.5-0.5,0.9-0.5c1.3,0.1,2.2-0.1,2.3-1.8c0-0.5,0.6-0.9,1-1.3c1.2-1.2,1.2-3,2.3-4.3
				c0.9-1.1,0.3-1.9-1.1-1.8c-0.3,0-0.6,0.1-0.7-0.2c-0.2-0.4,0.1-0.7,0.4-0.8c1.1-0.4,1.2-1.4,1.1-2.4c0-0.9-0.2-1.9,0.8-2.6
				c0.4-0.3,0.3-1,0.3-1.5s0.4-0.9,0.9-1s0.7,0.3,0.9,0.7c0.1,0.4,0.2,0.9,0.8,0.9c0.6-0.1,0.6-0.7,0.6-1.1c0-1.2,0.2-2.3,0.5-3.5
				c0.1-0.5,0.1-1.1-0.7-1.1c-0.9,0-1-0.4-1-1.2s0-1.5,0-2.3c0-0.4,0.1-1,0.3-1.1c1.1-0.5,1.4-1.9,2.4-2.5c0.7,7.3,1.4,14.7,2.1,22
				c0.2,1.7,0.8,3.1,1.6,4.6c0.3,0.5,0.3,0.5,1.1,0.2c0.1,0,0.4,0.1,0.5,0.2c0.5,0.4,1,0.8,1.5,1.2c-0.7,2-1,2.2-3.1,1.7
				c-1.1-0.2-2.1-0.8-3.3-0.6c-0.3,0-0.9,0-0.3,0.6c-0.6,0.4-0.1,0.7,0.2,1c0.9,1.2,2.1,2.2,2.9,3.5c0,0.2-0.1,0.4,0,0.6
				c0.3,2.5-0.5,3.2-2.9,2.8s-4.3-1.6-6-3.4c-0.4-0.4-0.8-1-1.5-0.8c-0.2-0.2-0.4-0.4-0.6-0.5c0-0.7-0.3-1.1-1.1-0.8
				c-0.7,0.2-0.3,0.6-0.1,0.9c0.5,0.8,1.1,1.6,1.6,2.4c-0.4,1.1-0.6,2.5-2.3,2C126.1,172.3,124,171.2,122.2,169.6z"/>
			<path class="st8" d="M89,116.9c0.4,3.1,1.7,5.7,4.5,7.2c0,0.8,0.4,0.5,0.8,0.4c1.7,0.3,3.3,0.7,5,0.5c0,0.4-0.1,0.7-0.3,1.1
				c-0.8,1.3-0.7,1.7,0.6,2.6c0.2,0.1,0.3,0.4,0.3,0.6c-3.9,0.4-7.8-0.2-11.6-1.2c-8.6-2.3-17-5.6-25.7-8.1c0.6-0.8,1.2-1.2,2.1-1.3
				c1.2-0.1,2.4-0.6,3.4-1.3c1.4-0.2,2.3-1.1,3.1-2.3c-1.6,0.2-3.2,0.5-4.7,0.9c-0.5,0.1-1.1,0.4-1.6,0c1.8-1.1,3.3-2.4,4.2-4.4
				c1.8,0,3.6,0.2,5.4-0.6c0.8-0.4,1.4-1,2.2-1.1c0.4,3.4,1.8,6.2,5.1,7.5c0.2,0.8,0.9,0.9,1.5,1.2C85.5,119.1,87.3,118,89,116.9z"
				/>
			<path class="st9" d="M45,121.2c-1.6-2.6-3.2-5.2-4.9-7.7c-0.5-0.7-0.7-1.7-1.6-2.1c-0.5-1-1.4-1.7-1.8-2.8c-1.2-3-2.5-5.9-3.6-9
				c2.5-0.2,4.1-2.4,6.4-3.1c0.7-0.2,1.3-0.7,1.8,0.2c0,0.1,0.1,0.2,0.2,0.2c2.4,0.4,2.7,2.1,2.8,4.2c0.3,3.8,1.9,7.1,4,10.2
				c1.6,2.4,3.4,4.6,4.5,7.3c0.5,1.2,0.8,2.1-0.5,3.2c-1.4,1.1-2.3,2.9-3.4,4.4c-0.3,0.4-0.7,0.8-1,1.2c-0.9-1.1-0.9-2.5-1.5-3.7
				C45.9,122.8,45.7,121.9,45,121.2z"/>
			<path class="st4" d="M123.7,96.4c-0.4-0.1-0.8-0.2-1.3-0.3c0.5,0.8,1.3,0.9,1.8,1.5c0.1,0.4,0.2,0.7,0.3,1.1
				c0.6,2.3,0.2,3-2.1,3.6c-2.4,0.6-4.7-0.2-7-1c-0.4-0.1-0.9-0.9-1.3,0c-1.4,0.7-0.1,1.3,0.1,2c-0.3,0.1-0.3,0.4-0.3,0.7
				c0.4,2.9-0.2,3.8-3.1,4.2c-2.1-1.7-4.3-3.3-5.9-5.5c-0.5-0.7-0.7-1.1,0.3-1.6c3-1.7,5.1-4.3,7-7.1c2.4-0.6,4.1-2.2,5.4-4.3
				c0.6,0.4,0.9-0.1,1.1-0.5c1.1-1.3,2.1-2.5,3.2-3.8c2.2,3.1,5.1,4.7,8.9,4.6c0.7,3.5-1.3,6.1-4.8,6.4
				C125.2,96.4,124.4,95.9,123.7,96.4z"/>
			<path class="st3" d="M33,99.6c1.1,3.1,2.3,6,3.6,9c0.5,1.1,1.3,1.8,1.8,2.8c-2.2,0.1-4.3-0.4-6.5-1.3c-1.4-0.5-3.1-0.1-4.7,0
				c0.8,0.6,1.7,0.3,2.6,0.3c0.8,0.1,2,0,2,0.7c0,0.8-1.2,0.4-1.8,0.5c-1.5,0.2-3.1,0.4-4.5-0.7c-0.7-0.5-1.6-0.2-2.5-0.2
				c-0.7,0-1.3-0.1-1-1.1c0.2-0.6-0.2-0.9-0.8-1c-1.4-0.2-2.7-0.4-4-1c-0.5-0.2-0.7,0.2-0.9,0.5c-0.4,0.4-0.8,1-1.5,0.8
				c0.1-4,0.5-8,1.4-11.9c0.5,0,1-0.1,1.5,0.2c0.3,0.3,0.5,0.2,0.5-0.2c0.2,0,0.4,0,0.6,0l0,0c-0.2,1.2,0.4,1.7,1.5,1.7
				c1,0,2,0.3,3,0.5c0.6,0.1,1.5,0.9,1.9-0.5c0.1-0.5,1-0.2,1.6-0.2c0,0.4,0.2,0.5,0.5,0.5c1.1,0.1,2.3,0.5,3.4,0.3
				C31.6,99.5,32.3,99.6,33,99.6z"/>
			<path class="st10" d="M93.2,9.4c0.1,1.2,0,2.4,0.3,3.6c0.5,1.8-0.9,3.3-1.1,5.1c-4,1.1-7.5,3-9.8,6.7c-0.3-0.5-0.5-0.8-1.3-0.5
				c-2.5,0.8-5.2,2.3-7.3-0.7c0-0.1-0.2-0.1-0.2-0.1c2.5-3.1,5.6-5.3,9.2-6.9c0.9-0.4,1.9-0.9,2.8-1.4c0.3-0.2,0.6-0.4,0.5-0.8
				S85.8,14,85.5,14c-0.8,0-1.6,0-2.4,0.2c-3.7,0.8-6.7,2.8-9.5,5.3c-0.2-0.2-0.4-0.4-0.6-0.6c2.9-3.6,6.8-5.6,11.1-7.3
				c-0.8-0.4-1.3-0.2-1.8,0c-4.4,1.2-8,3.6-11,6.9c-0.3,0.3-0.5,0.5-0.8,0.8c-1.5-0.9-1.7-2.4-1.8-3.9c0.3-1,1-1.7,1.8-2.2
				c-0.1,0.3-0.1,0.6-0.2,1c-0.1,0.6-0.4,1.3,0.3,1.7c0.7,0.4,1.1-0.1,1.5-0.6c0.8-0.9,1.7-1.6,2.7-2.1C80.6,10.2,86.7,8.7,93.2,9.4
				z"/>
			<path class="st4" d="M65.7,106.5c0.6-1.3,1.7-2,2.9-2.7c4.9-2.7,7.2-7.1,7.8-12.6c1.3,0.4,2,1.8,3.3,2.1c0.1,0.7,1.3,0.6,1.3,1.5
				c-0.9,0-0.6,0.7-0.5,1.1c0.4,2.3,1.6,4,3.4,5.3c1.9,1.4,4,2.2,6.3,2.7c0.8,0.2,1.2,0.5,1.2,1.4c-0.1,1,0,2-0.3,3
				c-0.8-0.1-0.6-0.8-0.8-1.3c-0.1-0.4,0-1.1-0.6-1.2c-0.7-0.1-0.7,0.6-1,1c-0.8,1.6-1.5,3.2-2.8,4.4c-1.6,1.5-3.3,1.5-4.8,0
				c-1-1-1.3-2.3-2-3.5c-0.2-0.3-0.1-0.9-0.7-0.9c0-1.2,0-2.4,0.1-3.5c-0.3-1.6-0.9-0.3-1.2,0C73.9,106.6,70.1,107.5,65.7,106.5z"/>
			<path class="st11" d="M83.6,26.3c0.8,6.2,7.5,7.7,12.4,4.3c2.6-1.8,4.8-4.2,7.3-6.1c2.1-1.6,4.3-3.1,7.1-2.9c0.3,0,0.9-0.2,1,0.3
				s-0.4,0.5-0.7,0.7c-0.9,0.4-1.7,0.8-2.6,1.2c-0.2,0.1-0.6,0.2-0.6,0.5c0,0.4,0.3,0.5,0.5,0.6c1.7,1.1,3.9,0.6,5-1.1
				c0.6-0.9,0.8-2,1.3-3c0.9,1.4,1,3,1.3,4.6c0.5,2.6,0.9,5.2,0.6,8.2c-1.3-1-2.2-2-3.4-2.8c-2.4-1.6-5-2.6-7.9-2.7
				c-1.2-0.1-1-0.4-0.5-1.1c0.4-0.7,1.3-1.1,1.5-2c0.1-0.1,0.2-0.2,0.2-0.3c0.1,0,0.2-0.1,0.4-0.1c0-0.1-0.1-0.1-0.1-0.2
				c-0.1,0.1-0.2,0.1-0.3,0.2c-0.1,0.1-0.2,0.2-0.3,0.2c-2.5,1.5-4.1,4-5.8,6.3c-1.9,2.5-3.8,4.8-6.6,6.4c-3.4,1.9-7,1.4-9.5-1.6
				c-1.6-1.9-1.6-4.2-1.3-6.4C82.7,28.4,83,27.3,83.6,26.3z"/>
			<path class="st3" d="M100,129.1c0-0.2-0.1-0.5-0.3-0.6c-1.4-0.9-1.5-1.3-0.6-2.6c0.2-0.3,0.4-0.7,0.3-1.1c1.1-0.3,2-0.7,2.6-1.8
				c0.3-0.6,0.8-0.3,1.3-0.3c3.9-0.1,7.2-1.4,9.4-4.8c0.9-1.5,1.7-3,2.8-4.3c1.8-2.1,1.9-4.6,1.2-7.2c-0.2-0.6-0.4-1.2-0.7-2.1
				c1.2,0.5,2.2,0.9,3.3,1.4c-0.4,1-1.1,2-0.5,3.2c0.1,0.2,0.2,0.6,0.3,0.6c2.5,0.6,0.9,2.6,1.3,3.9c0.3,1-0.5,1.8-1.4,2.3
				c0.2-1.1,0.5-2.2,0.7-3.4c-0.6,0-0.7,0.5-0.7,0.8c-0.1,1.1-1.4,1.6-1.2,3c0.2,1.2-0.4,2.5-0.6,3.8s-0.3,2.6-0.4,3.9
				c-0.1,1.3-0.2,2.7-0.3,4c0,0.7-0.2,1.1-1,0.9c-4-1.1-7.9-0.5-11.9,0.2C102.3,129.1,101.2,129.2,100,129.1z M117.9,112.9
				c0.1,0,0.2,0.1,0.2,0.1c0.1,0,0.1-0.1,0.1-0.2c-0.1,0-0.2-0.1-0.2-0.1C117.9,112.7,117.9,112.8,117.9,112.9z"/>
			<path class="st9" d="M90.6,154.6c0.2,0.2,0.4,0.4,0.6,0.6c1.6,1.7,3.6,2.9,5.5,4.2c2.2,1.4,4.4,2.7,6.6,4c0.4,0.3,1,0.4,1.4,0.5
				c2.2,1.7,4.8,2.2,7.3,3.1c1.8,0.7,3.7,0.8,5.6,1.1c0.5,1.2,1.7,1.8,2.4,3.1c-3.3,0.3-6.4,0-9.3-1c-10.1-3.4-19.7-7.8-27.3-15.9
				c-0.6-0.7-1.8-1.2-2-2s1.1-1.1,1.7-1.8c0.7-0.8,1-1.8,1.6-2.7c0.5,0,0.6,0.4,0.8,0.7c1,1.6,2.1,3.1,3.4,4.5
				C89.5,153.6,90.1,154.1,90.6,154.6z"/>
			<path class="st9" d="M80.9,94.7c0-0.9-1.1-0.8-1.3-1.5c0-0.7-0.5-1-0.9-1.4c-2.4-2.5-4.5-5.3-6.1-8.4c-0.5-0.9-0.3-1.5,0.5-2.1
				c1.7-1.3,3.7-2.1,5.8-2.5c1.9-0.3,3.7-0.4,5.6-0.4c0.5,0,1,0.1,1.4,0.5c-3.1,3.2-3,9.5,0.3,12.4c1,0.9,2.1,1.6,3.1,2.4
				c-1.3,1.6-3,2.1-4.9,2.2C83.2,95.7,82.3,94.5,80.9,94.7L80.9,94.7z"/>
			<path class="st12" d="M84.7,98.3c0.8,1.1,2,1.1,3.2,1.2c0.6,0.1,1.1,0.1,1.7,0.1c0.2,0.6,0.7,0.4,1.1,0.4c1.5,0.1,3,0,4.5-0.3
				c2.4-0.5,4.8-0.8,6.8-2.4c0.3-0.5,0.9-0.4,1.2-0.8c0.2,0,0.5-0.1,0.5-0.3c0.2-0.2,0.4-0.4,0.6-0.5c0.2,0,0.5,0,0.6-0.3l0,0
				c0.1-0.1,0.2-0.2,0.3-0.3l0,0c0.2,0,0.5,0,0.5-0.3l0,0c0.1,0,0.3-0.1,0.4-0.2c5.5-4.6,6.7-12.2,4.2-18.5
				c-0.4-1.9-0.7-3.8-1.3-5.6c-0.2-0.6,0-0.9,0.5-1.1c0.3-0.1,0.6-0.2,0.9-0.4c1.1-0.8,1.5-0.3,1.7,0.9c0.4,2.1,0.9,4.2,1.1,6.4
				c0.5,4.6,0.6,9.2-0.9,13.7c-2.5,7.3-9.2,12.4-16.8,12.8c-3.8,0.2-7.4-0.1-10.7-2.4c-1.4-1-2.5-2.2-3.4-3.8
				c0.5-0.1,0.8,0.1,1.2,0.3c0.2,1,1.2,0.8,1.8,1.2C84.4,98.3,84.5,98.4,84.7,98.3L84.7,98.3z"/>
			<path class="st12" d="M69,84.8c0.7-0.7,0.1-1.5,0.3-2.3c0.8-3.7,3.2-6.1,6.3-7.9c2.9-1.7,6.2-2.4,9.6-2.6
				c2.2-0.1,4.5,0.2,6.7-0.3c2.4-0.5,2.6-0.6,2.2-2.9c2.1,2.2,4.9,2.5,7.9,2.6c-1.3,1.4-2.7,2.2-4.2,2.9c-4.2,2.2-8.8,2.7-13.4,2.8
				c-3,0.1-6,0.2-8.9,1.2c-3.7,1.4-5.2,3.5-5.3,7.7C69.6,85.7,69.2,85.4,69,84.8z"/>
			<path class="st9" d="M56.3,153.1c2.9-1.8,5-4.3,6.7-7.2c1.3-2.3,2.1-4.8,2.3-7.5c0-0.4,0.2-0.8,0.4-1.3c0.4,1.6,1.5,3.1,1,5
				c-0.2-0.6-0.3-1.2-0.5-1.7c-0.1,2.3-0.5,4.6-0.7,6.9c-0.1,0.8-0.2,1.6-0.7,2.3c-5.4,7-12,12-20.5,14.1c-1.5,0.4-3.1,0.3-4.6-0.3
				c-1.7-0.7-2-1.9-0.9-3.4c0.6-0.7,1.1-1.4,1.9-1.9c0.7,1.3,2.4,1.8,4.3,1.2c2.3-0.7,4.5-1.7,6.5-3C53.2,155.3,55,154.7,56.3,153.1
				z"/>
			<path class="st3" d="M117.2,59.6c0.1-1,0-2.1,1.2-2.7c0.1-0.1,0.3-0.3,0.2-0.5c-0.2-1.4,0.8-2.3,1.5-3.3c1.5,0.7,2.8,1.7,3.9,3
				c0.1,0.3-0.1,0.7,0.5,0.5c0.1,0,0.1,0.1,0.1,0.1c-0.3,0.3-0.2,0.6,0,0.9c0.8,1.8,0.9,3.7,1.1,5.6c-0.2,0-0.4,0.1-0.4,0.3
				c0,0.2,0.2,0.3,0.4,0.3c-0.2,1.2-0.3,2.3-0.5,3.5c-0.8,0.3-1.7,0.2-2.2,1c-0.7,1-1.1,2.3-2.7,2.4c-0.2,0-0.3,0.6-0.5,1
				c-0.3,0.9-0.6,1.8-0.9,2.7c-0.1,0.3-0.3,0.6-0.7,0.6c-0.4,0-0.3-0.4-0.3-0.7c-0.1-0.8-0.5-0.6-0.8-0.1c-0.2,0.5-0.4,0.7-0.9,0.6
				c-0.6-0.1-0.9-0.4-0.9-1.1c1.2-1.9,1.5-4.1,1.6-6.2c0.1-1.5,0.4-3-0.3-4.5c0.1-0.4,0.1-0.7,0.2-1.1
				C116.9,61.2,117.1,60.4,117.2,59.6z"/>
			<path class="st9" d="M80.7,143.5c0,1,0.1,1.9,0.1,2.9c-0.1,0.5-0.3,0.9-0.3,1.4c-1.4,7.4-5.7,12.7-11.7,16.8
				c-2.1,1.4-4.4,2.1-6.9,2c-2-0.1-2.7-1.1-2.1-3c0.3-1,0.7-2,1.5-2.7c1.4,1.2,2.8,1.1,4.3,0.4c5.9-2.6,9.6-7.3,12.4-13
				c0.5-1,1-2.1,0.9-3.3c0-0.2,0-0.4,0.1-0.5c0.3-0.2,0.2-0.6,0.2-0.9c0.3-0.2,0.2-0.6,0.3-0.9c0.3-0.4,0.5-0.4,0.7,0
				C80.3,143,80.8,143.1,80.7,143.5z"/>
			<path class="st6" d="M78.8,145c0.1,1.2-0.4,2.3-0.9,3.3c-2.7,5.7-6.4,10.5-12.4,13c-1.5,0.7-3,0.7-4.3-0.4c0.4-1.1,1.2-2,1.9-2.9
				c1.6-2.2,2.8-4.7,3.3-7.5c2.5,0.6,4.5-0.9,6.6-1.9c1.4-0.7,2.7-1.7,4.4-1.6c0.5,0,0.5-0.2,0.4-0.6
				C77.6,145.5,78.1,145.1,78.8,145z"/>
			<path class="st11" d="M80.9,30.3c0.1,1.9,0.2,3.8,1.2,5.6c0.3,0.5,0,0.8-0.4,1c-3,1.9-6.1,3.1-9.7,2.4c-4.1-0.7-6.8-5.6-5.6-9.6
				c0.3,0.2,0.7,0.3,1,0.5c2,1.7,4.3,2.1,6.8,2.1C76.7,32.4,78.9,31.4,80.9,30.3z"/>
			<path class="st3" d="M108.4,46.5c1.8,2.9,1.8,6.1,1,9.3c-0.2,0.7-0.5,0.8-1.1,0.7c-4.7-0.2-9,0.9-12.6,4.1
				c-0.6,0.6-0.9,0.1-1.2-0.2c-2-2.4-3.1-5.1-3-8.3c2,0.2,3.6,1.3,5.3,2.2c0.9,0.5,1.5,0.5,2.2-0.2c0.1,0.3,0.2,0.5,0.4,0.8
				c0.4,0.8,0.8,1.7,1.9,1.7c1.1,0,1.6-0.9,2-1.8c0.5-1,0.5-2.1,0.6-3.2c1.4-1,2.7-2.3,3.1-3.9C107.2,46.4,107.6,46.4,108.4,46.5z"
				/>
			<path class="st7" d="M80.9,30.3c-2.1,1.1-4.2,2.1-6.6,2.1c-2.5,0-4.8-0.5-6.8-2.1c-0.3-0.2-0.7-0.3-1-0.5c0-0.3,0-0.5,0-0.8
				c0.1-0.1,0.1-0.2,0.2-0.4c1.1-3.9,3.5-7,6.2-9.8c0.2,0.2,0.4,0.4,0.6,0.6c-2,2-3.7,4.2-4.6,7c-0.3,1-0.5,2.1,0.6,2.5
				c1.1,0.5,1.3-0.8,1.7-1.4c0.8-1.3,1.2-2.9,2.5-3.9c0.1,0,0.2,0.1,0.2,0.1c2.2,3,4.8,1.6,7.3,0.7c0.8-0.3,1,0,1.3,0.5
				C81.8,26.5,81.1,28.3,80.9,30.3z"/>
			<path class="st1" d="M115.2,73.8c-0.1,0.7,0.3,1,0.9,1.1c0.5,0.1,0.7-0.1,0.9-0.6c0.2-0.5,0.6-0.7,0.8,0.1c0,0.3-0.1,0.7,0.3,0.7
				s0.6-0.3,0.7-0.6c0.3-0.9,0.6-1.8,0.9-2.7c0.1-0.4,0.3-1,0.5-1c1.6-0.1,2-1.4,2.7-2.4c0.5-0.8,1.5-0.8,2.2-1c0,0.3,0,0.6-0.1,0.8
				c-1.7,6.6-4.5,12.7-8.2,18.4c-0.7,1.1-1.3,2.5-2.9,2.8c1.3-4.4,1-8.9,0.6-13.3c-0.1-0.7-0.1-1.3-0.1-2
				C114.7,74,115,73.9,115.2,73.8z"/>
			<path class="st11" d="M109.1,109c3,1.4,4.2,5.2,2.7,7.8c-1.7,3.2-6.2,5.3-9.6,4.4c-2.5-0.6-4.3-2.8-4.8-5.6
				c-0.4-2.2-0.2-4.4-0.2-6.6c0.6,0.4,0.6,1,0.8,1.6c0.4,1,0.3,2.2,1.1,3.1c0,0.3,0,0.7,0.3,0.9c1.3,1.7,3.1,2.3,5.1,1.9
				c1.9-0.4,3.5-1.3,4.4-3.2C109.6,111.9,109,110.5,109.1,109z"/>
			<path class="st9" d="M113.9,89.4c1.6-0.2,2.2-1.7,2.9-2.8c3.7-5.6,6.5-11.8,8.2-18.4c0.1-0.3,0.1-0.6,0.1-0.8
				c0.2-1.2,0.3-2.3,0.5-3.5c0-0.2,0-0.4,0-0.6c-0.2-1.9-0.3-3.8-1.1-5.6c-0.1-0.3-0.3-0.6,0-0.9c1.9,1.8,2.6,4.2,2.8,6.7
				c0.5,6.5-1.7,12.2-4.7,17.6c-1.6,2.9-3.4,5.7-5.1,8.6c-1.3,2.1-3,3.6-5.4,4.3C112.7,92.5,113.3,90.9,113.9,89.4z"/>
			<path class="st11" d="M94.9,93.2c0.1,0,0.2,0,0.3,0c-0.3,1,0.1,1.3,1,1.1c0.4-0.1,0.8-0.2,1.1-0.4c2.7-2,5-4.4,6.2-7.6
				c1-2.6,0.9-5.3,1.3-7.9c1.2-0.6,2.2-0.3,3.2,0.5s0.7,1.7,0.5,2.6c-0.3,1.3-0.6,2.6-1.2,3.8c-0.2-1.6-0.6-3.1-1.1-4.8
				c-0.4,1.1,0,1.9,0.1,2.8c0.3,3.2-0.4,6-2.5,8.5c-2.8,3.4-7.3,6.1-11.5,6.3c0.5-2.5,0-5.1,0.3-7.6c0.6,0.7,0.6,1.6,0.9,2.3
				C93.7,93.8,94.2,94,94.9,93.2z"/>
			<path class="st8" d="M40.4,65.4c-0.2-2.4-1.5-4-3.2-5.4c-0.7-0.6-1.3-1.2-1.6-2.1c3.2-1.2,6.5-2.2,10-1.8
				c0.7,0.1,1.3,0.2,1.8,0.6c1.3,3.1,1.2,4.2-1.1,5.8C44.5,63.8,42.5,64.7,40.4,65.4z"/>
			<path class="st1" d="M89.3,93.8c-1-0.8-2.1-1.6-3.1-2.4c-3.3-2.9-3.4-9.2-0.3-12.4c4,2.4,6.2,9,4.4,13.3
				C90.1,92.9,89.8,93.4,89.3,93.8z"/>
			<path class="st13" d="M92.6,45.7c1.5-4.1,5-6.1,8.8-4.9c0,0.5,0.1,1,0.7,1.1c0.5,0.1,0.7-0.1,0.8-0.6c0.2,0.1,0.4,0.2,0.6,0.3
				c0,1.2,0,2.5,0,3.7c0,0.9-0.2,1.5-1.1,1.7c-1.3-0.7-2.1-0.1-2.7,1c-0.2,0.5-0.4,0.9-0.6,1.4c-2.5,0.4-3.2,0.5-4.6-2.3
				C93.9,46.5,93.5,45.8,92.6,45.7z"/>
			<path class="st9" d="M117.2,59.6c-0.1,0.8-0.3,1.6-0.4,2.4c-0.6,0.3-0.9,0.8-1.3,1.3c-4.4,4.7-9.8,6.9-16.2,6.5
				c-0.7,0-1.5-0.3-2.2-0.5c-3.4-1.3-3.9-4.9-1.1-7.4c0.1,1-0.7,2,0.4,3c1.3,1.2,2.5,2.1,4.3,2.1c5,0.1,9.4-1.2,13.3-4.5
				C115,61.5,115.7,60,117.2,59.6z"/>
			<path class="st9" d="M43.2,145.2c2.8-1.1,5.4-2.5,7.3-5c0.5-0.6,0.8-1.3,1.7-1.4c-0.7,2.4-2,4.5-3.1,6.7
				c-0.4,0.8-1.3,1.2-2.1,1.6c-4.8,2.3-9.8,3.5-15.1,2c-0.7-0.2-1.3-0.4-1.9-0.8c-1.5-0.9-1.5-1.8,0-2.9c0.3,1.5,1.2,2.1,2.6,2
				C36.3,147.5,39.8,146.7,43.2,145.2z"/>
			<path class="st9" d="M35,48.3c1.1,2.1,1.5,4.4,1.5,6.8c0,0.9-0.6,1-1.1,1.2c-4.9,1.8-9.5,4.1-13.7,7.3c-0.9,0.6-1.6,1.4-2.5,2.2
				c0-0.1-0.1-0.1-0.2-0.2c1-3.1,2.5-6,4-8.8c1,0.4,2,1.2,3.2,0.9c3.2-0.8,5.7-2.5,7.5-5.3c0.4-0.6,0.8-1.3,0.7-2.2
				C34.9,49.5,34.5,48.8,35,48.3z"/>
			<path class="st2" d="M79.8,46.2c1-2.6,2.6-4.7,4.6-6.6c0.5-0.4,0.9-0.6,1.5-0.3c0.4,0.2,0.9,0.5,1.3,0.5c1.8-0.1,1.9,1.1,1.9,2.4
				c0,1.4,0,2.8-0.3,4.2c-1.3-1.1-2.2-0.7-3,1.4c-0.3,0.7-0.4,1.5-0.5,2.3c-1.6-0.2-2.9-0.8-3.9-2.2C81.1,47.2,80.7,46.4,79.8,46.2z
				"/>
			<path class="st9" d="M26.8,94.9c-0.2-0.1-0.5-0.3-0.7-0.4c-0.5-0.4-1-0.8-0.7-1.4c0.2-0.5,0.8,0,1.3,0.1
				c5.7,1.3,10.9,0.1,15.9-2.8c1.7-1,3.4-1.7,5.1-2.8c0.3-0.2,0.6-0.5,1-0.2c0.4,0.4,0.1,0.8,0,1.2c-0.2,1-1.2,1.2-1.7,1.8
				c-0.6-0.1-0.8,0.4-1.2,0.7c-2.2,1.8-4.6,3.5-7.3,4.5C34.5,97,30.6,97.1,26.8,94.9z"/>
			<path class="st3" d="M56.3,153.1c-1.2,1.6-3.1,2.2-4.8,3.2c-2.1,1.2-4.2,2.3-6.5,3c-1.9,0.5-3.6,0-4.3-1.2
				c2.1-1.9,4.5-3.4,6.3-5.7c0.5-0.6,0.7-1.4,1.3-1.9C50.6,152.7,53.5,152.6,56.3,153.1z"/>
			<path class="st3" d="M35,48.3c-0.5,0.5-0.1,1.2-0.5,1.7c-0.5-0.1-0.9-0.1-1.4,0.1c-0.9,0.4-1.6,1-2.4,1.6
				c-1.8,1.2-3.8,1.4-5.9,1.2c0.2-0.8,0.5-1.5,0.7-2.3c0.1,0,0.2,0,0.3,0c0.4,0.2,0.1,0.9,0.7,1c0.2-1.5-0.3-2.8-0.5-4.2
				c1.9,0,3.4-0.9,4.5-2.5c0.5-0.7,1-1.4,1.9-1.6C33.6,44.8,34.5,46.4,35,48.3z"/>
			<path class="st9" d="M36.4,82.3c-0.3-1.6,0.5-2.7,1.7-3.6c2.3-1.7,4.9-2.8,7.8-2.9c2.2-0.1,4.5-0.2,6.3-1.7
				c0.5,1.6,0.5,3.2,0.5,4.8c0,0.5-0.1,0.8-0.8,0.6c-4.8-1.7-9.2-0.3-13.6,1.6c-0.6,0.3-1.4,0.3-1.7,1.1
				C36.6,82.2,36.5,82.2,36.4,82.3z"/>
			<path class="st7" d="M109.1,109c-0.1,1.5,0.5,2.9-0.2,4.4c-0.9,1.9-2.5,2.8-4.4,3.2c-2,0.4-3.8-0.2-5.1-1.9
				c-0.2-0.3-0.3-0.6-0.3-0.9c0.8-0.4,1.6,0.3,2.3,0c0.6,0.5,1.3,1,2.1,1.2c0.6,0.1,1.1-0.1,1.4-0.6c0.3-0.5-0.1-0.9-0.5-1.2
				c-0.5-0.4-1-0.8-1.5-1.3c1.3-1.8,1.5-3.7,1-5.8c1.2,0,1.9,1.2,3.1,1.2l0,0c0.1,0.1,0.2,0.2,0.3,0.3
				C108.1,107.7,108.7,108.3,109.1,109z"/>
			<path class="st9" d="M46.9,90.8c0.7,0.2,1.4,0.4,2.2,0.3c0.4,0,0.9-0.2,1.1,0.3c0.2,0.5-0.2,0.9-0.5,1.2c-0.3,0.3-0.8,0.3-1,0.9
				c2.4-0.2,4.1-1.6,5.5-3.4c0.3-0.4,0.5-1.1,1.1-1.2c-0.2,4-3.2,7.6-6.9,8.2c-2.2,0.4-4.2-0.7-6.2-1.5c-0.6-0.2-0.5-0.6,0-0.9
				c0.8-0.5,1.5-1.1,2.3-1.7c0.5-0.4,0.8-0.8,1.3-0.1c0.1,0.2,0.4,0.5,0.7,0.2s0-0.5-0.2-0.7C45.3,91.7,46.4,91.4,46.9,90.8z"/>
			<path class="st10" d="M103.9,105.9c0.5,2.1,0.4,4.1-1,5.8c-1.1-0.4-1.6-1.7-2.7-2.4c-0.2,1.7,0.4,3,1.1,4.3
				c-0.8,0.3-1.6-0.4-2.3,0c-0.8-0.9-0.7-2-1.1-3.1c-0.2-0.6-0.3-1.2-0.8-1.6c-0.9,0.2-0.4,1-0.6,1.5c-0.9-0.3-1.1-1.1-1.5-1.8
				c-0.3-0.6,0.4-1,0.7-1.4c0.3-0.3,0-0.6-0.1-0.9C98.4,104.9,101.1,104.5,103.9,105.9z"/>
			<path class="st9" d="M78.2,106.8c0.6,0,0.6,0.5,0.7,0.9c0.6,1.2,1,2.5,2,3.5c1.6,1.5,3.2,1.5,4.8,0c1.3-1.2,2-2.8,2.8-4.4
				c0.2-0.4,0.2-1.2,1-1c0.6,0.1,0.4,0.7,0.6,1.2c0.2,0.5,0,1.2,0.8,1.3c-0.1,0.9-0.2,1.8-0.8,2.6c-0.3-0.1-0.4-0.3-0.3-0.5
				c0.1-0.4,0.3-0.9-0.3-1c-0.5-0.1-0.6,0.3-0.8,0.7c-0.5,1.4-1.2,2.6-2,3.8c-2.4,3-5.8,2.7-7.6-0.6C78,111.2,77.8,109,78.2,106.8z"
				/>
			<path class="st9" d="M130.7,169c0.7-0.2,1.1,0.4,1.5,0.8c1.7,1.7,3.6,2.9,6,3.4c2.4,0.4,3.2-0.3,2.9-2.8c0-0.2,0-0.4,0-0.6
				c1.2,1.2,2,2.6,2.4,4.3c0.4,1.9-0.5,3.4-2.4,3.6c-2.9,0.4-5.3-0.9-7.4-2.9c-0.1-0.1-0.3-0.3-0.3-0.5
				C133.4,172.1,132,170.6,130.7,169z"/>
			<path class="st14" d="M93.2,9.4c-6.5-0.7-12.6,0.8-18.5,3.5c-1,0.5-1.9,1.2-2.7,2.1c-0.4,0.5-0.8,1-1.5,0.6
				c-0.7-0.4-0.5-1.1-0.3-1.7c0.1-0.3,0.1-0.6,0.2-1l0,0c0.4,0,0.6-0.2,0.6-0.5l0,0c0.3,0,0.5-0.1,0.5-0.4c0.1-0.1,0.2-0.1,0.3-0.2
				c0.6-0.1,1.2-0.4,1.5-0.9l0,0c0.2,0,0.4-0.1,0.4-0.3l0,0c0.3,0,0.5,0,0.6-0.3l0,0c0.6,0.1,1.2-0.2,1.8-0.4
				c3.8-1.4,7.8-2,11.8-2.3c2.8,0,5.4,0.6,8.2,1.3c-0.4,0.7-1,0.4-1.4,0.5c-0.2-0.3-0.4-0.3-0.6-0.1C93.7,9.4,93.5,9.4,93.2,9.4z"/>
			<path class="st8" d="M32.3,43.3c-0.9,0.3-1.3,0.9-1.9,1.6c-1.1,1.5-2.6,2.4-4.5,2.5c-0.7-1.5-1.4-2.9-2.4-4.2
				c-0.6-0.9-1.1-1.9-0.5-2.9c0.6-1.2,1.8-1.1,2.9-0.9C28.7,39.7,30.6,41.3,32.3,43.3z"/>
			<path class="st9" d="M40.4,65.4c2.1-0.7,4.1-1.6,5.9-2.9c2.3-1.6,2.4-2.7,1.1-5.8c2.3,0.7,3.8,3.9,3.3,6.9c0,0.2-0.1,0.4-0.1,0.6
				c-0.5,2.1-0.5,2.1-2.5,1.6c-1.4-0.4-2.9-0.4-4.3,0c-3.7,1-6.8,2.9-9.3,5.8c-0.2,0.3-0.1,0.8-0.5,1.1c-0.7-1.9,1.4-4.5,5.1-6.3
				c0.1-0.1,0.2-0.2,0.3-0.2C39.7,65.9,40.1,65.8,40.4,65.4z"/>
			<path class="st6" d="M43.2,145.2c-3.4,1.4-7,2.2-10.6,2.3c-1.4,0-2.3-0.5-2.6-2c0.4-0.3,0.8-0.6,1.3-0.8c3-0.9,5.6-2.5,8-4.5
				c-0.1,1.1,0.2,2.2,0.3,3.2c0.1,0.9,1.9,1.9,2.9,1.5C42.9,144.8,43.1,144.6,43.2,145.2z"/>
			<path class="st4" d="M24.7,52.9c2.1,0.2,4.1,0,5.9-1.2c0.8-0.5,1.5-1.2,2.4-1.6c0.5-0.2,0.9-0.2,1.4-0.1c0.1,0.8-0.3,1.5-0.7,2.2
				c-1.8,2.8-4.3,4.6-7.5,5.3C25,57.8,24.1,57,23,56.6C23.7,55.4,24.2,54.2,24.7,52.9z"/>
			<path class="st7" d="M104.8,78.4c-0.4,2.7-0.3,5.4-1.3,7.9c-1.3,3.3-3.5,5.6-6.2,7.6c-0.3,0.2-0.7,0.3-1.1,0.4
				c-0.9,0.2-1.3-0.1-1-1.1c1.1-1,1.3-2.5,1.8-3.8c0.2-0.5,0.3-1,0.5-1.5c0.5,0,0.6,0.7,1.2,0.6c0,0.4-0.2,0.8,0.1,1.2
				c2-1.8,3-4.2,4.3-6.5c0.5-0.8,1.5-1.9,0.7-2.6s-1.7,0.5-2.5,1c-0.3-0.1-0.6-0.2-0.9-0.3C101.4,79.8,102.8,78.7,104.8,78.4z"/>
			<path class="st11" d="M97.5,119.5c1,0.8,1.7,1.9,2.8,2.6c1,0.6,0,0.9-0.4,1.1c-2.5,1.1-6.6-0.1-8.3-2.7c-1.4-2.2-1.7-4.6-0.6-7.1
				c0.5,0.2,0.5,0.8,0.6,1.2C92.3,117.5,94.8,119.5,97.5,119.5z"/>
			<path class="st7" d="M97.5,119.5c-2.7,0-5.2-2-5.9-4.8c-0.1-0.5,0-1-0.6-1.2c0.2-1.7,0.9-3.2,1.2-4.9c1.2-0.6,2.1-1.9,3.6-2.1
				c0.1,0.3,0.4,0.6,0.1,0.9c-0.4,0.4-1.1,0.7-0.7,1.4c0.4,0.7,0.6,1.5,1.5,1.8c-0.3,1.6-0.3,3.3-0.3,4.9c-1.1-1.1-1.8-2.5-2.5-3.9
				c-0.4,1.5-0.5,2.9,0.1,4.2c0.5,1.2,1.1,2.4,2.8,2C97.1,118.2,97.3,118.9,97.5,119.5z"/>
			<path class="st2" d="M92.6,45.7c0.9,0.1,1.3,0.8,1.7,1.5c1.4,2.8,2.1,2.6,4.6,2.3c-0.1,0.6-0.2,1.2-0.1,1.7c0.1,1-0.5,2,0.3,2.9
				c-0.7,0.7-1.3,0.6-2.2,0.2c-1.7-0.9-3.3-2-5.3-2.2C91.3,49.8,91.6,47.7,92.6,45.7z"/>
			<path class="st9" d="M114.1,101.3c0.4-0.9,0.9-0.2,1.3,0c2.3,0.8,4.5,1.5,7,1c2.3-0.5,2.7-1.2,2.1-3.6c-0.1-0.4-0.2-0.7-0.3-1.1
				c1,0.4,1.9,1,2.6,1.9c1.5,1.9,1.2,3.7-1,4.6c-3.5,1.5-6.9,0.9-10-1.3C115.3,102.3,114.7,101.8,114.1,101.3z"/>
			<path class="st9" d="M41.9,150.6c1.9-0.7,3.8-1.2,5.8-2.4c-0.6,1.6-1.3,2.7-2.2,3.7c-2.6,2.7-5.4,5.2-9.3,5.9
				c-1.7,0.3-2-0.1-1.5-1.8C37.9,156.2,40.4,153.9,41.9,150.6z"/>
			<path class="st9" d="M122.2,169.6c1.8,1.6,3.8,2.7,6,3.4c1.6,0.5,1.8-1,2.3-2c0.7,0.7,1.2,1.6,1.6,2.5c0.6,1.6,0,2.4-1.6,2.5
				s-3-0.5-4.4-1.3c-3.1-1.8-5.5-4.4-8.1-6.7c0.5-0.7,0.8,0.1,1.3,0.2c0.5,0.1,0.8,0.6,1.3,0.7c0.4,0.3,0.8,0.6,1.1,0.8
				C121.9,169.6,122.1,169.6,122.2,169.6z"/>
			<path class="st4" d="M139.2,111.1c-0.5,0-1.3-0.2-0.9,0.9c0.1,0.3,0.2,0.7-0.2,0.8c-0.4,0.1-0.7-0.1-0.9-0.5
				c-0.1-0.3-0.2-0.7-0.2-1c0-0.7-0.1-1.1-0.9-1.5c-1.3-0.7-1.1-2.4-1-3.6c0.1-1.9-0.2-3.9,0.2-5.8c1.6,1.5,2.7,3.3,3.3,5.4
				c0.1,0.4,0,0.9,0.6,1C139.4,108.2,139.3,109.7,139.2,111.1z"/>
			<path class="st9" d="M139.2,106.8c-0.6,0-0.5-0.6-0.6-1c-0.6-2.1-1.7-3.9-3.3-5.4c-0.1-0.2-0.3-0.3-0.5-0.3
				c-0.2-0.4-0.5-0.7-0.9-0.8c-1.2-0.6-2.3-1.1-3.7-0.6c-0.3,0.1-0.6,0.1-0.9-0.3c1.4-0.9,2.9-1.7,4-3.1c0.6-0.8,1-0.1,1.4,0.2
				c2.8,2.4,4.1,5.7,4.5,9.3C139.3,105.4,139.2,106.1,139.2,106.8z"/>
			<path class="st11" d="M95.7,106.4c-1.5,0.2-2.3,1.5-3.6,2.1c0-1.3-0.5-3,0.1-3.9c0.7-1.1,2.4-0.3,3.7-0.4c2.1-0.2,4.1-0.6,6-1.5
				c0.7-0.3,1.2-0.3,1.6,0.5c0.9,1.6,2.5,2.5,3.5,3.9c-1.2,0-1.9-1.2-3.1-1.2C101.1,104.5,98.4,104.9,95.7,106.4z"/>
			<path class="st8" d="M79.8,46.2c0.9,0.2,1.2,1,1.7,1.6c1,1.4,2.3,2,3.9,2.2c-0.2,1.5-0.2,3-0.1,4.5c-0.8,0-1.2-0.6-1.8-0.9
				c-1.4-0.9-2.9-1.7-4.5-2.1c-0.7-0.2-0.9-0.4-0.7-1.2C78.8,49,79.1,47.5,79.8,46.2z"/>
			<path class="st8" d="M102.2,47c0.9-0.2,1.1-0.9,1.1-1.7c0-1.2,0-2.5,0-3.7c2.4,0.9,3.6,3,5,4.9c-0.8-0.1-1.2-0.1-1.5,1.1
				c-0.4,1.6-1.7,2.9-3.1,3.9C103.7,49.9,103.4,48.3,102.2,47z"/>
			<path class="st9" d="M114.4,33.8c-0.3,0.1-0.6,0-0.9-0.2c-3.9-2.7-8-2.5-12.1-0.8c-0.4,0.2-0.7,0.4-1.2,0.4
				c0.9-1.3,1.7-2.5,2.5-3.8c0.2-0.3,0.5-0.6,0.9-0.6C107.8,29.1,111.6,30.3,114.4,33.8z"/>
			<path class="st9" d="M115.2,73.8c-0.3,0.1-0.6,0.2-0.8,0.3c-0.5-2-1.1-4.1-1.6-6.1c-0.1-0.4,0.1-0.6,0.3-0.8
				c1.5-1.1,2.5-2.6,3.4-4.1c0.7,1.5,0.4,3,0.3,4.5C116.8,69.7,116.4,71.9,115.2,73.8z"/>
			<path class="st5" d="M110.2,76.1c2.4,6.3,1.2,14-4.2,18.5c-0.1,0.1-0.3,0.1-0.4,0.2c0-0.7,0.4-1,0.8-1.4c1.2-1.5,2.3-3,2.4-5
				c0-0.6,0-1.1-0.8-0.7C109.4,84,110.5,80.2,110.2,76.1z"/>
			<path class="st15" d="M107.9,87.7c0.8-0.5,0.9,0,0.8,0.7c-0.1,2-1.1,3.6-2.4,5c-0.4,0.4-0.8,0.8-0.8,1.4l0,0
				c-0.2,0-0.4,0.1-0.5,0.3l0,0c-0.1,0.1-0.2,0.2-0.3,0.3l0,0c-0.2,0-0.4,0.1-0.6,0.3c-0.2,0.2-0.4,0.4-0.6,0.5
				c-0.2,0-0.4,0.1-0.5,0.3c-0.3,0.4-0.9,0.3-1.2,0.8c-1,0.3-2,0.6-2.9,0.9c-0.4,0.1-0.9,0.5-1.2-0.2
				C102.4,95.9,105.6,92.3,107.9,87.7z"/>
			<path class="st9" d="M65.7,106.5c4.4,1,8.2,0.1,11.4-3.3c0.3-0.3,0.8-1.6,1.2,0c-1,1.3-2.2,2.5-3.5,3.5c-1.5,1.2-3.1,2.1-5,2.5
				c-1.4,0.2-2.6-0.1-3.7-1C65.5,107.8,65.3,107.2,65.7,106.5z"/>
			<path class="st4" d="M24.3,156c-0.1-0.9,0.4-1.5,0.9-2.2c0.9-1.1,1.9-2.1,1.8-3.7c0.6,0.4,1,0.7,1.5,0.9c0.3,0.1,0.5,0.6,0.8,0.2
				c0.3-0.3-0.1-0.6-0.3-0.8c-0.1-0.1-0.1-0.2-0.3-0.5c1.6,0.5,3.1,0.9,4.5,1.3C30.6,153.3,27.8,155.3,24.3,156z"/>
			<path class="st9" d="M138.2,165.3c-0.6-0.6,0-0.6,0.3-0.6c1.1-0.1,2.2,0.4,3.3,0.6c2.1,0.4,2.4,0.3,3.1-1.7
				c1.2,0.8,2,1.9,2.2,3.4c0.2,1.7-0.9,2.7-2.5,2.1c-1.9-0.7-3.4-2-4.9-3.3C139.2,165.4,138.8,165,138.2,165.3z"/>
			<path class="st9" d="M110.7,108.2c2.9-0.5,3.5-1.3,3.1-4.2c0-0.3,0-0.6,0.3-0.7c1.2,2.1,1.9,4.3,1.7,6.7c-0.2,1.4-0.8,2.6-2,3.8
				C113.5,111.4,112.2,109.7,110.7,108.2z"/>
			<path class="st4" d="M41.9,150.6c-1.6,3.3-4,5.6-7.2,5.3c0-1.1,0.8-2,0.6-3.2c0.2-0.5,0.7-0.8,0.6-1.4
				C37.9,151.3,39.9,151,41.9,150.6z"/>
			<path class="st9" d="M123.7,96.4c0.8-0.4,1.5,0.1,2.3,0c3.5-0.3,5.4-2.9,4.8-6.4c1-0.1,1.9,0.2,2.3,1.2c0.5,1,0.3,2-0.3,2.9
				c-1.5,2-3.4,3.3-5.9,3.7C125.7,97.9,124.7,97.1,123.7,96.4z"/>
			<path class="st9" d="M35.9,151.4c0.1,0.6-0.3,1-0.6,1.4c-0.7-0.3-1.1,0.2-1.5,0.6c-2.2,1.6-4.5,2.9-7.1,3.6
				c-0.9,0.2-2.1,0.7-2.4-1c3.5-0.6,6.3-2.7,9-4.9C34.2,151.2,35,151.3,35.9,151.4z"/>
			<path class="st1" d="M84.4,38.5c-3.7,3.1-5.9,7.1-6.9,11.7c-0.1,0.4,0.1,1-0.6,0.9c-0.7-0.1-0.3-0.7-0.2-1.1
				c0.7-4,2.4-7.6,4.4-11c0.4-0.7,1.2-1.2,1.9-1.5C83.7,37.2,83.8,38.3,84.4,38.5z"/>
			<path class="st5" d="M84.3,98.1c-0.6-0.4-1.5-0.2-1.8-1.2c3.3,0.3,6.3-0.2,8.3-3.2c0.4,0.3,0.2,0.6,0.2,0.9c0.4,4-0.2,4.1-4.2,4
				c-0.7,0-1.4-0.5-2.2-0.2l0,0C84.8,98,84.5,98,84.3,98.1z"/>
			<path class="st9" d="M81.1,146.7c1.6-0.8,3.3-3.8,2.9-5.5c-0.1-0.5-0.2-1.1,0.3-1.2c0.6-0.1,0.4,0.6,0.5,1
				c0.6,1.7,0.6,3.3-0.1,4.9c-0.5,0.9-1,1.9-1.5,2.8c-0.5,0.9-1.2,1.7-2.3,2.2C80.9,149.4,81,148.1,81.1,146.7z"/>
			<path class="st7" d="M94.9,93.2c-0.7,0.9-1.2,0.6-1.6-0.3c-0.3-0.8-0.4-1.7-0.9-2.3c-0.1-3.3,0.7-6.3,3.3-8.5
				c-0.9,3.1-1.2,6.2-0.3,9.4C95.3,92,95.1,92.6,94.9,93.2z M93.6,86.4c-0.6,1.4-0.5,2.6,0.1,3.7c0.1,0.2,0.3,0.4,0.6,0.3
				c0.4-0.1,0.4-0.4,0.4-0.7C94.5,88.7,94.3,87.6,93.6,86.4z"/>
			<path class="st11" d="M95.4,91.4c-0.9-3.2-0.6-6.3,0.3-9.4c0.9-1.1,2.1-1.5,3.7-1.9c-1.9,2.6-2.7,5.3-3.3,8.1
				C95.9,89.3,95.9,90.4,95.4,91.4z"/>
			<path class="st9" d="M123.4,130.4c0.6,1.1,1.7,1.7,2.6,2.5c1.5,1.5,2.2,3.4,2.7,5.4c0.2,0.8,0,1.5-0.7,2
				c-1.1-4.9-1.9-5.8-8.2-10.4c0.8,0,1.5,0,2.2,0c0.1,0.2,0.4,0.3,0.6,0.2V130C122.7,130.6,123.1,130.5,123.4,130.4L123.4,130.4z"/>
			<path class="st11" d="M68.6,15.2c0.1,1.6,0.3,3.1,1.8,3.9c-0.8,1.1-1.6,2.2-2.4,3.3c-0.3,0.4-0.6,0.4-0.8-0.1
				c-0.4-0.7-0.5-1.5-0.4-2.4C66.8,18.2,67.3,16.6,68.6,15.2z"/>
			<path class="st9" d="M89,116.9c-1.7,1.1-3.4,2.3-5.6,1.5c-0.6-0.2-1.3-0.4-1.5-1.2c2.9,0.2,5.1-1,6.7-3.7
				C88.9,114.7,89.1,115.8,89,116.9z"/>
			<path class="st9" d="M76.8,109.7c-0.9,0.1-1.5,0.8-2.2,1.1c-1.7,0.8-3.5,0.6-5.4,0.6c0-0.4,0.1-0.7,0.5-0.8
				c2.7-0.3,4.8-1.9,7.1-3.8C76.8,107.9,76.8,108.8,76.8,109.7z"/>
			<path class="st9" d="M65,115.8c0.5,0.5,1,0.2,1.6,0c1.5-0.4,3.1-0.7,4.7-0.9c-0.8,1.1-1.7,2.1-3.1,2.3c0.2-0.8-0.2-0.6-0.7-0.4
				c-1.5,0.4-2.9,0.9-4.7,0.5C63.4,116.4,64.2,116.1,65,115.8z"/>
			<path class="st14" d="M96.7,117.7c-1.7,0.4-2.3-0.8-2.8-2c-0.6-1.4-0.5-2.8-0.1-4.2c0.6,1.5,1.3,2.8,2.5,3.9
				C96.4,116.2,96.6,116.9,96.7,117.7z"/>
			<path class="st10" d="M87.8,7.8c-4,0.3-8,0.8-11.8,2.3c-0.6,0.2-1.1,0.5-1.8,0.4c2.7-1.6,5.7-2.2,8.7-2.9C84.5,7.3,86.1,7,87.7,7
				C87.8,7.3,87.8,7.5,87.8,7.8z"/>
			<path class="st5" d="M97.8,98.1c0.3,0.7,0.8,0.3,1.2,0.2c1-0.3,2-0.6,2.9-0.9c-2,1.6-4.4,1.9-6.8,2.3c-1.5,0.3-3,0.3-4.5,0.3
				c-0.4,0-0.9,0.2-1.1-0.4C92.4,99.5,95.1,99.1,97.8,98.1z"/>
			<path class="st4" d="M137.8,132.8c-0.3,0-0.7-0.1-0.7-0.4c0-1.5-1.2-3-0.4-4.6c0.5-0.9-0.1-1.9,0.2-2.8c0.2-0.5,0.3-0.9,0.9-0.8
				C137.8,127,137.8,129.9,137.8,132.8z"/>
			<path class="st10" d="M100.3,81.3c0.3,0.1,0.6,0.2,0.9,0.3c-1.4,2.1-2.1,4.5-2.5,6.9c-0.5,0.1-0.7-0.6-1.2-0.6
				C98,85.6,98.6,83.2,100.3,81.3z"/>
			<path class="st4" d="M137.9,122.7c-0.9-0.1-0.9-0.9-0.9-1.5c0.1-1.9,0.4-3.8,0.3-5.8c0.6-0.1,0.9,0.5,1.4,0.4
				C138.4,118.1,138.1,120.4,137.9,122.7z"/>
			<path class="st9" d="M30.8,99.5c-1.2,0.2-2.3-0.2-3.4-0.3c-0.3,0-0.5-0.2-0.5-0.5c0.1,0,0.2,0,0.2,0c1.1,0,2.2,0.1,3.2-0.6
				c0.4-0.1,0.8,0.1,1.1-0.4c1.2,0,2.5,0,4.1,0c-1,0.9-2,1-3,1.3C31.9,99.2,31.3,99,30.8,99.5z"/>
			<path class="st5" d="M90.6,79.9c1,1.9,2.4,3.6,1,6.1c-0.5-1.9-1.2-3.5-2-5C89.9,80.6,90.3,80.3,90.6,79.9z"/>
			<path class="st12" d="M90.6,79.9c-0.3,0.4-0.7,0.7-1,1.1c-0.7-0.8-1.4-1.6-2.2-2.4C89.5,78,89.8,78.1,90.6,79.9z"/>
			<path class="st3" d="M30.3,98.1c-1,0.6-2.1,0.5-3.2,0.6c0.2-0.7-0.5-1.6,0.6-2.1c0,0.4,0.1,0.7,0.5,0.7c0.3,0,0.3-0.3,0.3-0.5
				c0.4,0.1,0.7,0.3,1.1,0.4C29.7,97.7,30,98,30.3,98.1z"/>
			<path class="st9" d="M91.8,44.8c-0.6-1.7,0.7-2.3,1.6-3.2c0.3,0.1,0.4,0.2,0.2,0.5C93,43.1,92.4,44,91.8,44.8z"/>
			<path class="st4" d="M80.9,94.7c1.4-0.2,2.3,0.9,3.5,1.3C83.1,96.1,81.8,96.2,80.9,94.7z"/>
			<path class="st1" d="M18.4,97.2c0,0.4-0.2,0.5-0.5,0.2c-0.4-0.4-1-0.2-1.5-0.2c0-0.6,0-1.1,0.3-1.7c0.4,0.5,0.4,1.5,1.3,1
				C18.1,96.8,18.1,97.1,18.4,97.2z"/>
			<path class="st3" d="M102.5,130.6c0,0.2,0.1,0.4,0,0.6c0,0.4,0.2,1-0.5,1c-0.5,0-0.6-0.5-0.6-0.9c0-0.1,0-0.3,0-0.4
				C101.7,130.7,102.1,130.7,102.5,130.6z"/>
			<path class="st8" d="M102.8,41.3c0,0.5-0.3,0.7-0.8,0.6c-0.6-0.1-0.7-0.6-0.7-1.1C101.9,40.8,102.4,41,102.8,41.3z"/>
			<path class="st8" d="M31.4,59.6c-0.3,1.2-1.1,1.5-2.1,1.1C29.9,60.2,30.6,59.8,31.4,59.6z"/>
			<path class="st8" d="M33.3,58.8c-0.1,0.5,0.1,1-0.2,1.5c-0.6,0-0.5-0.8-1-1C32.5,59,32.9,58.8,33.3,58.8z"/>
			<path class="st4" d="M30.3,98.1c-0.4-0.2-0.6-0.4-0.6-0.9c0.6,0.2,1.2,0.3,1.7,0.5C31.2,98.2,30.7,98.1,30.3,98.1z"/>
			<path class="st4" d="M138.8,114.6c-0.4-0.1-1,0.1-0.9-0.5c0-0.6,0.6-0.3,1-0.4C138.9,114,138.9,114.3,138.8,114.6z"/>
			<path class="st4" d="M28.6,96.9c-0.1,0.2,0,0.5-0.3,0.5c-0.4,0-0.5-0.4-0.5-0.7c0-0.1,0-0.2,0-0.3C28,96.5,28.3,96.7,28.6,96.9z"
				/>
			<path class="st9" d="M129.1,167.7c0.8-0.3,1.1,0,1.1,0.8C129.7,168.4,129.4,168,129.1,167.7z"/>
			<path class="st10" d="M73.3,10.9c-0.4,0.5-0.9,0.8-1.5,0.9C72.1,11.3,72.6,11.1,73.3,10.9z"/>
			<path class="st9" d="M128.8,98.5c0,0.6-0.7,0.4-0.9,0.8C127.6,98.6,127.6,98.5,128.8,98.5z"/>
			<path class="st6" d="M87.6,129.3c0,0.2,0,0.5-0.3,0.5c-0.4,0-0.5-0.4-0.5-0.7C87,129.1,87.3,129.1,87.6,129.3z"/>
			<path class="st1" d="M117.5,131.7c0-0.3,0.1-0.5,0.4-0.6c0.3,0,0.6,0,0.8,0.3C118.3,131.7,117.9,131.7,117.5,131.7z"/>
			<path class="st3" d="M94.4,124.4c-0.4,0.2-0.9,0.5-0.8-0.4C93.8,124.1,94.1,124.1,94.4,124.4z"/>
			<path class="st4" d="M36.4,82.3c0.1,0,0.2-0.1,0.3-0.1c0.1,0.1,0.2,0.2,0.3,0.3C36.6,82.9,36.5,82.6,36.4,82.3z"/>
			<path class="st3" d="M99.7,130.8c0,0.2,0,0.4-0.3,0.4c-0.2,0-0.3-0.2-0.3-0.4C99.3,130.8,99.5,130.8,99.7,130.8z"/>
			<path class="st1" d="M123.4,130.5c-0.3,0-0.7,0.1-0.9-0.3C123,129.9,123.3,130.1,123.4,130.5z"/>
			<path class="st9" d="M124.4,56.7c-0.6,0.2-0.4-0.3-0.5-0.5C124.2,56.3,124.4,56.4,124.4,56.7z"/>
			<path class="st4" d="M25.8,50.6c-0.1,0-0.2,0-0.3,0c0-0.2,0.1-0.4,0.1-0.6C25.8,50.1,25.7,50.4,25.8,50.6z"/>
			<path class="st10" d="M70.9,12.5c0,0.4-0.2,0.6-0.6,0.5C70.4,12.7,70.6,12.5,70.9,12.5z"/>
			<path class="st10" d="M71.5,12.1c-0.1,0.3-0.3,0.4-0.5,0.4C71,12.2,71.2,12.1,71.5,12.1z"/>
			<path class="st10" d="M74.3,10.4c-0.1,0.3-0.3,0.3-0.6,0.3C73.8,10.4,74.1,10.4,74.3,10.4z"/>
			<path class="st1" d="M122.6,130.2c-0.2,0-0.5,0-0.6-0.2C122.2,130,122.5,129.8,122.6,130.2z"/>
			<path class="st10" d="M73.7,10.7c-0.1,0.2-0.2,0.3-0.4,0.3C73.4,10.9,73.6,10.8,73.7,10.7z"/>
			<path class="st9" d="M19.2,65.7c0,0.1-0.1,0.2-0.2,0.1c0,0,0-0.2,0.1-0.3C19.1,65.6,19.2,65.6,19.2,65.7z"/>
			<path class="st11" d="M107.3,107.3c-0.1-0.1-0.2-0.2-0.3-0.3C107.1,107.2,107.2,107.3,107.3,107.3z"/>
			<path class="st11" d="M66.6,28.6c-0.1,0.1-0.1,0.2-0.2,0.4C66.5,28.8,66.6,28.7,66.6,28.6z"/>
			<path class="st9" d="M84.8,146.4c0,0.1,0.1,0.1,0.1,0.2l-0.1,0.1C84.8,146.6,84.8,146.5,84.8,146.4z"/>
			<path class="st4" d="M128.8,161.4c0,0.6-0.1,1.1-0.7,1.1c-0.5,0-0.4-0.5-0.5-0.8c0-0.5,0-1,0.7-1
				C128.9,160.7,128.7,161.2,128.8,161.4z"/>
			<path class="st4" d="M131.6,156.7c0,0.3-0.2,0.4-0.5,0.4c-0.4,0-0.6-0.3-0.6-0.7c0-0.3,0.2-0.4,0.5-0.4
				C131.3,156.1,131.5,156.3,131.6,156.7z"/>
			<path class="st4" d="M121.7,169.6c-0.4-0.3-0.8-0.6-1.1-0.8C121.7,168,121.7,168.7,121.7,169.6z"/>
			<path class="st4" d="M133.9,99.3c0.4,0.2,0.7,0.5,0.9,0.8C134.1,100.2,133.8,99.9,133.9,99.3z"/>
			<path class="st6" d="M80.2,142.7c-0.2-0.4-0.5-0.4-0.7,0c-0.4-0.4-0.5-1,0-1.3c0.3-0.3,1-0.3,1.3,0.1
				C81,142,80.7,142.4,80.2,142.7z"/>
			<path class="st6" d="M73.9,145.3c0.2,0,0.3,0.2,0.3,0.4c0,0.3-0.2,0.4-0.5,0.3c-0.2-0.1-0.3-0.2-0.2-0.4
				C73.6,145.4,73.7,145.3,73.9,145.3z"/>
			<path class="st6" d="M70.1,147.8c0-0.2,0-0.4,0.3-0.3c0.1,0,0.2,0.3,0.2,0.4c0,0.2,0,0.4-0.3,0.4C70.1,148.2,70.1,148,70.1,147.8
				z"/>
			<path class="st6" d="M79.1,143.6c0,0.3,0,0.6-0.2,0.9c-0.3-0.1-0.7-0.3-0.5-0.7C78.5,143.4,78.9,143.6,79.1,143.6z"/>
			<path class="st6" d="M68.4,148c-0.1,0.1-0.1,0.3-0.2,0.3c-0.2,0.1-0.3-0.1-0.3-0.3c0-0.1,0.1-0.2,0.2-0.2
				C68.2,147.7,68.3,147.9,68.4,148z"/>
			<path class="st8" d="M31.9,60.3c0.1,0,0.2,0.1,0.2,0.1c0,0.1-0.1,0.2-0.1,0.2c-0.1,0-0.2-0.1-0.2-0.1
				C31.8,60.5,31.8,60.4,31.9,60.3z"/>
			<path class="st8" d="M39.3,66c-0.1,0.1-0.2,0.2-0.3,0.2C39.1,66.1,39.2,66,39.3,66z"/>
			<path class="st1" d="M117.6,134.7c-0.6-0.1-1-0.1-1.3-0.2c-0.5-0.1-0.4-0.6-0.4-0.9c0.1-0.4,0.3-0.4,0.6-0.3
				c0.4,0.1,0.7,0,1.1,0.1s1.3-0.3,1.2,0.5C118.7,134.5,117.9,134.6,117.6,134.7z"/>
			<path class="st1" d="M114.9,140.9c0,0.6-0.5,0.6-0.8,0.7c-0.3,0.1-0.5,0-0.5-0.3c0-0.6,0.5-0.8,0.9-0.9
				C114.8,140.4,114.9,140.6,114.9,140.9z"/>
			<path class="st1" d="M115,135.7c0.4,0.6,0.3,0.9,0,1.5C114.6,136.6,114.6,136.3,115,135.7z"/>
			<path class="st1" d="M107.4,155.1c-0.2,0-0.4,0-0.4-0.2c-0.1-0.3,0.2-0.3,0.4-0.3s0.4,0,0.4,0.2
				C107.8,155.1,107.5,155,107.4,155.1z"/>
			<path class="st1" d="M117.4,131.9c0,0-0.1,0.1-0.2,0.2c-0.1,0.1-0.3-0.1-0.2-0.2c0-0.1,0.2-0.1,0.3-0.2
				C117.5,131.6,117.5,131.7,117.4,131.9z"/>
			<path class="st15" d="M67.6,71.4c-0.9-4.2-0.4-8.2,1.9-12c1.6-2.6,3.7-4.4,6.6-4.9c1.6-0.3,3.3-0.4,4.8,0.5
				c0.5,0.3,1.1,0.7,1,1.5C81.7,57.3,81,57,80.5,57c-1.8,0.1-3.6-0.3-5.4,0.6c-3.1,1.6-4.6,4.4-5.7,7.5
				C68.6,67.2,68.1,69.3,67.6,71.4z"/>
			<path class="st14" d="M96,20.6c0.4,0,0.6,0,0.7,0c0.4,0.1,1,0,1.2,0.6s-0.5,0.8-0.8,1c-0.8,0.5-1.6,0.9-2.4,1.2
				c-2.3,0.9-4.4,2.1-6,4c-0.6,0.7-1.3,1.1-2.1,0.4c-0.8-0.7-0.4-1.4,0.1-2C89.1,22.5,92.3,20.9,96,20.6z"/>
			<path class="st10" d="M94,9.4c0.2-0.2,0.4-0.2,0.6,0.1C94.4,9.8,94.2,9.8,94,9.4z"/>
			<path class="st3" d="M90.6,154.6c-0.6-0.5-1.1-1-1.7-1.5c1,0.3,2-0.8,3,0.2C91.7,153.9,90.7,153.7,90.6,154.6z"/>
			<path class="st3" d="M18.9,97.2c0,0,0-0.1,0.1-0.1C19,97.1,19,97.2,18.9,97.2C19,97.2,18.9,97.2,18.9,97.2z"/>
			<path class="st14" d="M73.7,23.4c-1.3,1-1.7,2.6-2.5,3.9c-0.4,0.7-0.6,1.9-1.7,1.4c-1.1-0.5-0.9-1.5-0.6-2.5c0.8-2.8,2.6-5,4.6-7
				c2.8-2.4,5.8-4.5,9.5-5.3c0.8-0.2,1.6-0.1,2.4-0.2c0.3,0,0.7,0,0.8,0.4s-0.2,0.7-0.5,0.8c-0.9,0.5-1.8,1-2.8,1.4
				C79.3,18.1,76.2,20.3,73.7,23.4z"/>
			<path class="st0" d="M106.2,24.6c0.1-0.1,0.2-0.1,0.3-0.2c0,0.1,0.1,0.1,0.1,0.2C106.4,24.5,106.3,24.6,106.2,24.6L106.2,24.6z"
				/>
			<path class="st0" d="M105.9,24.8c0.1-0.1,0.2-0.2,0.3-0.2l0,0c-0.1,0.1-0.2,0.2-0.2,0.3C105.9,24.9,105.9,24.9,105.9,24.8z"/>
			<path class="st1" d="M117.9,112.9c0-0.1,0.1-0.2,0.1-0.2c0.1,0,0.2,0.1,0.2,0.1c0,0.1-0.1,0.2-0.1,0.2
				C118,113,118,113,117.9,112.9z"/>
			<path class="st5" d="M105,95.2c0.1-0.2,0.3-0.3,0.5-0.3C105.5,95.1,105.3,95.2,105,95.2z"/>
			<path class="st5" d="M103.1,96.6c0.1-0.2,0.3-0.3,0.5-0.3C103.5,96.6,103.3,96.6,103.1,96.6z"/>
			<path class="st5" d="M104.2,95.8c0.1-0.2,0.3-0.3,0.6-0.3C104.7,95.7,104.4,95.8,104.2,95.8z"/>
			<path class="st5" d="M104.8,95.5c0.1-0.1,0.2-0.2,0.3-0.3C105,95.3,104.9,95.4,104.8,95.5z"/>
			<path class="st0" d="M84.3,98.1c0.2,0,0.5-0.1,0.5,0.3C84.5,98.4,84.4,98.3,84.3,98.1z"/>
			<path class="st1" d="M125.6,63.4c0,0.2,0,0.4,0,0.6c-0.2,0-0.4-0.1-0.4-0.3C125.2,63.4,125.4,63.4,125.6,63.4z"/>
			<path class="st0" d="M102.2,47c1.2,1.2,1.4,2.8,1.6,4.5c-0.1,1.1-0.1,2.2-0.6,3.2c-0.4,0.9-0.9,1.8-2,1.8s-1.5-0.8-1.9-1.7
				c-0.1-0.3-0.2-0.5-0.4-0.8c-0.8-0.9-0.2-1.9-0.3-2.9c0-0.6,0.1-1.1,0.1-1.7c0.2-0.5,0.4-1,0.6-1.4C100.1,46.9,101,46.4,102.2,47z
				"/>
			<path class="st14" d="M101.5,113.7c-0.8-1.3-1.3-2.6-1.1-4.3c1.1,0.6,1.5,1.9,2.7,2.4c0.5,0.4,1,0.8,1.5,1.3
				c0.3,0.3,0.8,0.7,0.5,1.2c-0.3,0.6-0.8,0.8-1.4,0.6C102.7,114.7,102.1,114.2,101.5,113.7z"/>
			<path class="st14" d="M98.6,88.5c0.5-2.5,1.2-4.8,2.5-6.9c0.8-0.5,1.7-1.7,2.5-1c0.9,0.8-0.2,1.8-0.7,2.6
				c-1.3,2.3-2.3,4.7-4.3,6.5C98.4,89.4,98.7,88.9,98.6,88.5z"/>
			<path class="st14" d="M93.6,86.4c0.7,1.2,0.9,2.3,1,3.4c0,0.3,0,0.6-0.4,0.7c-0.2,0-0.5-0.1-0.6-0.3C93.1,89,93,87.8,93.6,86.4z"
				/>
		</g>
	</g>
</g>
</svg>
