<?xml version="1.0" encoding="utf-8"?>
<!-- Generator: Adobe Illustrator 26.3.1, SVG Export Plug-In . SVG Version: 6.00 Build 0)  -->
<svg version="1.1" id="Capa_1" xmlns="http://www.w3.org/2000/svg" xmlns:xlink="http://www.w3.org/1999/xlink" x="0px" y="0px"
	 viewBox="0 0 450.5 284" style="enable-background:new 0 0 450.5 284;" xml:space="preserve">
<style type="text/css">
	.st0{fill:#36221A;}
	.st1{fill:#FCF1DC;}
	.st2{fill:#FCF8ED;}
	.st3{fill:#FCF4E1;}
	.st4{fill:#FBEDD6;}
	.st5{fill:#FBB416;}
	.st6{fill:#FCF6E6;}
	.st7{fill:#DC2D2B;}
	.st8{fill:#FBF6EA;}
	.st9{fill:#E1BDA1;}
	.st10{fill:#E83638;}
	.st11{fill:#9D1C20;}
	.st12{fill:#D86D25;}
	.st13{fill:#FDFDFD;}
	.st14{fill:#F17E7F;}
	.st15{fill:#FCD35C;}
	.st16{font-family:'RobotoSlab-Regular';}
	.st17{font-size:56.4589px;}
</style>
<g id="Capa_1_00000081606107039848036120000011391621827182847658_">
	<g>
		<g>
			<path class="st0" d="M237,22c1.7,0.4,3.3,0.7,5,1.2c5,1.4,9.6,3.6,12.6,8.1c2.5,3.6,3.5,7.7,4.1,12c0.3,2.6,0.5,5.2,0,7.8
				c-0.1,0.4-0.1,0.8,0.1,1.1c1.9,4.2,2.2,8.8,2.5,13.3c0.1,2,0.6,3.4,2.5,4.5c5.7,3.4,7.6,9,6.1,16.5c-0.9,4.9-2.7,9.4-5.4,13.5
				c-0.6,0.9-0.5,1.5,0.1,2.3c1.7,1.9,3.7,2.9,6.2,3c0.8,0,1.7,0,2.5,0.2c1.8,0.5,2.7,1.6,2.6,3.5c0,0.4-0.1,0.8,0.3,1.2
				c4.8,3.6,5.7,8.9,5.8,14.5c0.1,3.5-0.4,6.9-0.9,10.4c-0.8,6.3-0.7,12.5-0.1,18.8c0.6,6.7,1.3,13.4,1.8,20.2
				c0.1,1.1,0.4,1.8,1.2,2.5c0.6,0.4,1.1,0.9,1.6,1.4c1.7,1.3,3.1,2.7,4,4.7c0,0.9,0,1.7,0,2.6c-1.2,1.8-2.9,2-4.8,1.4
				c0-0.1-0.1-0.2-0.2-0.1c0,0,0.1,0.2,0.1,0.3c0.2,0.4,0.4,0.8,0.6,1.1c1.9,3.6,1.3,5.8-2.2,7.7c-1,0-2.1,0-3.1,0
				c-1.7-0.9-3.6-1.6-5-3.1c-0.4-0.5-0.6-0.1-0.9,0.2c-0.9,1-2,1.2-3.2,1c-2.7-0.4-4.9-1.8-6.9-3.7c-0.7-0.6-1.3-0.9-2.2-0.9
				c-2.4,0.2-4.9,0.2-7.3-0.4c-11-3-21.3-7.5-29.5-16c-1-1.1-2.1-2.2-3.3-3.1c-2.4,5.5-6.1,9.6-10.9,12.8c-2.4,1.5-4.9,2.3-7.8,2.1
				c-3.1-0.2-4.3-2.1-3.3-5.2c0.6-1.7,1.7-3.1,2.7-4.6c1.2-1.7,2.5-3.3,3.2-5.3c0.2-0.2,0.3-0.4,0.1-0.6c-0.1-0.1-0.3,0-0.4,0.2
				c-0.7,0.7-1.5,1.5-2.2,2.2c-4,4-8.6,7.2-13.9,9.2c-2.1,0.8-4.3,1.3-6.6,1.1c-3.9-0.3-5.3-2.7-3.7-6.2c0,0,0-0.1,0-0.2
				c-1.2,0.1-2.5,0.5-3.5-0.2c-1.3-0.9-0.2-2.3-0.4-3.5c-0.8,0.1-1.4,0.7-2,1c-2,1-3.8,2.3-6.2,2.2c-1.7,0-2.6-1.2-2.3-2.9
				c0.2-1,0.7-1.8,1.4-2.5c0.7-0.8,1.3-1.6,1.5-2.6c0.2-0.7,0.1-1.2-0.5-1.8c-6.4-6.1-10-13.7-11.4-22.5c-0.2-1.3-0.1-2.8-0.8-4
				c0-4.7,0-9.5,0-14.2c0.7-1.5,0.5-3.2,0.7-4.7c0.4-3.2,0.9-6.4,1.8-9.5c0.2-0.6,0-1.2-0.1-1.8c-2-7.5-2.1-14.8,1-22
				c0.5-1.2,0.6-2.5,0.9-3.8c1.1-3.9,2.9-7.4,4.6-11c0.9-1.9,1.6-3.8,1.9-5.9c0.2-1.7,0-3.2-1.1-4.6c-1.2-1.5-2.1-3.1-0.9-5
				c0.8-1.4,3-1.8,5.2-1.2c3.2,0.9,5.5,3,7.3,5.8c1.9,3.1,3.1,6.5,3.4,10.2c0.1,0.9,0.3,1,1.1,0.8c2.2-0.6,4.4-0.8,6.7-0.6
				c5.3,0.5,8.3,6.3,5.6,11c-0.6,1-0.5,1.6,0.2,2.6c2.3,3.2,2.8,7,2.3,10.9c-0.1,0.8,0,1.4,0.6,2c2.9,3.2,3.1,6.9,1.8,10.8
				c-1.3,3.8-3.8,6.4-7.9,6.9c-1,0.1-2-0.1-3.1-0.4c0.2,3.3,0.8,6.3,2.3,9.2c0.9,1.7,2.1,3.3,3.2,4.9c1.6,2.2,3.1,4.5,3.9,7.3
				c2.4-2.2,5.2-0.3,7.7-1c-1.4-1.7-1.2-2.7,0.7-3.5s3.5-1.8,4.6-3.6c0.4-0.6,0.6-1-0.4-1.2c-0.6-0.1-1.2-0.4-1.7-0.7
				c-1.8-1.1-2.1-3-0.8-4.7c1-1.2,2.2-2.1,3.5-2.8c4.4-2.5,6.2-6.6,6.7-11.5c0-0.4,0.1-0.8-0.2-1.1c-1.5-1.7-2.6-3.8-3.7-5.9
				c-0.6,0.9-0.5,1.8-0.5,2.7c0,0.3,0.2,0.7-0.1,0.9c-0.4,0.2-0.7-0.1-1-0.3c-0.9-0.6-1.6-1.5-2.2-2.4c-2.1-3.4-3-7.1-3.4-11.1
				c-0.6-5.1-0.2-10,2-14.7c1.8-3.6,4.3-6.4,8.4-7.3c0.4-0.1,0.7-0.3,0.8-0.7c0.7-3.8,2-7.3,4-10.8c-1.6,0.4-2.9,0.9-4.3,1.1
				c-6.3,0.8-11.4-4.7-10.2-11c0.1-0.8,0.3-1.5,0.6-2.2c0.7-1.9,1.4-3.5,0.4-5.8c-1.2-2.6,0.1-5.4,1.8-7.7c2.7-3.9,6.7-5.8,11-7
				c2.2-0.6,4.5-1,6.8-1.4c0.3,0,0.7,0.1,0.8-0.4C230.8,22,233.9,22,237,22z M215.2,27.2c-0.1,0.1-0.3,0.2-0.4,0.3l0,0
				c-0.6,0.1-1.1,0.4-1.5,0.9c-0.1,0.1-0.2,0.1-0.2,0.2c-0.2,0-0.4,0.2-0.5,0.4l0,0c-0.3,0-0.5,0.2-0.6,0.5l0,0
				c-0.8,0.5-1.5,1.2-1.8,2.2c-1.2,1.3-1.7,3-1.9,4.8c-0.1,0.8,0,1.6,0.4,2.4c0.3,0.5,0.5,0.5,0.8,0.1c0.8-1.1,1.6-2.2,2.4-3.3
				c0.3-0.3,0.6-0.5,0.8-0.8c3.1-3.3,6.7-5.8,11-6.9c0.5-0.1,1-0.4,1.8,0c-4.3,1.6-8.2,3.7-11.1,7.3c-2.7,2.8-5.1,5.9-6.2,9.8
				c-0.1,0.1-0.1,0.2-0.2,0.4c0,0.3,0,0.5,0,0.8c-1.2,4,1.5,8.9,5.6,9.6c3.6,0.6,6.7-0.5,9.7-2.4c0.4-0.2,0.7-0.5,0.4-1
				c-1-1.7-1.2-3.6-1.2-5.6c0.1-2,0.8-3.8,1.6-5.5c2.4-3.6,5.8-5.6,9.8-6.7c1.4-0.2,2.7-0.7,4.3-0.5c-0.6,0.7-1.3,0.7-1.9,0.9
				c-2.3,0.7-4.6,1.3-6.7,2.6c-2.1,1.2-3.8,2.8-4.5,5.2c-0.6,1-0.9,2.1-1,3.2c-0.3,2.3-0.3,4.6,1.3,6.4c2.5,2.9,6.2,3.5,9.5,1.6
				c2.7-1.6,4.7-3.9,6.6-6.4c1.7-2.3,3.3-4.8,5.8-6.3l0.1,0.1c-0.2,0.9-1.1,1.3-1.5,2c-0.5,0.8-0.7,1.1,0.5,1.1
				c2.9,0.2,5.5,1.2,7.9,2.7c1.2,0.8,2.1,1.8,3.4,2.8c0.3-2.9-0.1-5.5-0.6-8.2c-0.3-1.6-0.4-3.2-1.3-4.6c-1-4.7-3.9-7.9-7.8-10.2
				c-3-1.8-6.4-2.8-9.9-3.2c-3-0.4-5.8-0.5-8.8-0.4c-1.6,0-3.3,0.2-4.8,0.6c-3,0.6-6,1.2-8.7,2.9l0,0
				C215.6,26.9,215.3,26.9,215.2,27.2L215.2,27.2z M264.1,146.7c-0.1-0.4-0.4-0.2-0.6-0.2c-0.7,0-1.3,0-2.2,0
				c6.4,4.6,7.1,5.6,8.2,10.4c-0.1,0.3,0,0.8-0.4,0.8s-0.4-0.4-0.5-0.7c-1.3-3.7-3.1-7-7.1-8.4c-0.4-0.3-0.9-0.6-1.4-0.6
				c-0.2-0.3-0.5-0.3-0.8-0.3c-4.6-2-9.2-1.6-13.9-0.6c-0.5,0-1,0.1-1.5,0.1c-0.4,0.1-0.7,0.1-1.1,0.2c-0.6,0-1.1,0-1.7,0.1
				c-0.2,0-0.4,0-0.6,0c-2.4-0.2-4.8,0-7.2-0.6c-0.9-0.3-2-0.2-3-0.4c-0.3-0.6-0.9-0.5-1.4-0.6c-0.2-0.2-0.5-0.3-0.8-0.2
				c-1.7-0.6-3.4-1-5.1-1.7c-6.7-2.5-13.7-4.4-20.4-7c-2.1-0.8-4.3-1.2-6.2,0.3c-1.3,1-2.4,2.1-3.3,3.5c-3.8,5.6-7.7,11.2-12.4,16
				c-2.4,2-5,3.6-8,4.5c-0.5,0.1-0.9,0.5-1.3,0.8c-1.4,1.1-1.5,2,0,2.9c0.6,0.4,1.3,0.6,1.9,0.8c5.3,1.4,10.3,0.3,15.1-2
				c0.8-0.4,1.7-0.8,2.1-1.6c1.1-2.2,2.4-4.3,3.1-6.7c0.9-1.4,1.3-3.1,2.2-4.9c0.2,1.7-0.2,3-0.7,4.2c-1.5,4.2-3.5,8.3-5.5,12.3
				c-0.7,0.5-0.9,1.3-1.3,1.9c-1.8,2.3-4.2,3.8-6.3,5.7c-0.7,0.5-1.3,1.2-1.9,1.9c-1.1,1.5-0.8,2.7,0.9,3.4c1.5,0.6,3.1,0.7,4.6,0.3
				c8.5-2.1,15.1-7.2,20.5-14.1c0.5-0.7,0.7-1.5,0.7-2.3c0.2-2.3,0.6-4.5,0.7-6.9c0.2,0.6,0.3,1.2,0.5,1.7c0.1,2.8,0,5.6-0.3,8.3
				c-0.5,2.8-1.6,5.2-3.3,7.5c-0.7,0.9-1.5,1.8-1.9,2.9c-0.7,0.8-1.1,1.8-1.5,2.7c-0.7,1.9,0.1,3,2.1,3c2.5,0.1,4.9-0.6,6.9-2
				c5.9-4.1,10.3-9.4,11.7-16.8c0.1-0.5,0.2-0.9,0.3-1.4c0.1,0.1,0.2,0.2,0.3,0.3c-0.1,1.4-0.2,2.7-0.3,4.2c1.1-0.5,1.8-1.3,2.3-2.2
				s1-1.9,1.5-2.8c0,0.2,0.1,0.4,0.1,0.5s0,0.2,0,0.3c0,0.4-0.1,0.8-0.1,1.2c-0.6,0.9-0.9,1.9-1.6,2.7c-0.5,0.7-1.9,1-1.7,1.8
				s1.3,1.3,2,2c7.6,8,17.2,12.4,27.3,15.9c3,1,6.1,1.3,9.3,1c-0.7-1.3-1.9-1.9-2.4-3.1c0.1-0.1,0.2-0.1,0.4-0.2
				c2.6,2.4,5,5,8.1,6.7c1.4,0.8,2.8,1.4,4.4,1.3c1.6-0.1,2.2-0.9,1.6-2.5c-0.3-0.9-0.9-1.8-1.6-2.5c-0.5-0.8-1.1-1.6-1.6-2.4
				c-0.2-0.3-0.5-0.7,0.1-0.9c0.3,0.3,0.6,0.7,1.1,0.8c0.2,0.2,0.4,0.4,0.6,0.5c1.3,1.6,2.7,3.1,2.8,5.3c0,0.2,0.2,0.4,0.3,0.5
				c2.1,2,4.4,3.3,7.4,2.9c1.9-0.2,2.9-1.7,2.4-3.6c-0.4-1.7-1.2-3.1-2.4-4.3c-0.8-1.4-1.9-2.3-2.9-3.5c-0.2-0.3-0.7-0.6-0.2-1
				c0.6-0.3,1,0.1,1.5,0.5c1.5,1.3,3,2.6,4.9,3.3c1.6,0.6,2.7-0.5,2.5-2.1c-0.2-1.5-1-2.6-2.2-3.4c-0.5-0.4-1-0.8-1.5-1.2
				c-0.1-0.1-0.4-0.2-0.5-0.2c-0.8,0.3-0.8,0.3-1.1-0.2c-0.8-1.4-1.5-2.9-1.6-4.6c-0.7-7.3-1.4-14.7-2.1-22
				c-0.1-0.9-0.1-1.7-0.2-2.6c0-2.9,0-5.8,0-8.7c0-0.5,0.1-1,0.1-1.4c0.3-2.3,0.5-4.6,0.8-6.9c0.1-0.4,0.1-0.7,0.2-1.1
				c0-0.3,0-0.6,0.1-0.9c0.2-0.9,0.3-1.7,0.3-2.6c0.2-1.4,0.2-2.9,0.1-4.3c0-0.7,0-1.3,0-2c-0.4-3.7-1.7-6.9-4.5-9.3
				c-0.4-0.3-0.8-1-1.4-0.2c-1.1,1.4-2.5,2.2-4,3.1c-0.2,0-0.3,0.1-0.5,0.1c-1.2,0-1.2,0.1-0.9,0.8c1.6,3.3,0.8,5.2-2.7,6.3
				c-2,0.7-4.1,0.5-6.1,0.1c-1-0.4-2-0.8-3.3-1.4c0.3,0.9,0.5,1.5,0.7,2.1c0.7,2.6,0.6,5.2-1.2,7.2c-1.1,1.4-1.9,2.9-2.8,4.3
				c-2.2,3.5-5.5,4.7-9.4,4.8c-0.4,0-0.9-0.3-1.3,0.3c-0.6,1.1-1.5,1.5-2.6,1.8c-1.7,0.2-3.4-0.1-5-0.5c-0.2-0.3-0.5-0.3-0.8-0.4
				c-2.9-1.5-4.1-4-4.5-7.2c0.1-1.1-0.1-2.2-0.4-3.4c-1.6,2.7-3.7,4-6.7,3.7c-3.3-1.4-4.7-4.1-5.1-7.5c0-0.9,0-1.7,0-2.8
				c-2.3,1.9-4.4,3.5-7.1,3.8c-0.4,0-0.5,0.4-0.5,0.8c-0.9,2-2.4,3.3-4.2,4.4c-0.8,0.3-1.6,0.6-2.2,1.5c1.8,0.4,3.2-0.1,4.7-0.5
				c0.4-0.1,0.9-0.4,0.7,0.4c-1,0.7-2.1,1.3-3.4,1.3c-0.8,0.1-1.4,0.5-2.1,1.3c8.8,2.4,17.1,5.8,25.7,8.1c3.8,1,7.6,1.6,11.6,1.2
				c1.2,0.1,2.3-0.1,3.5-0.3c4-0.6,7.9-1.2,11.9-0.2c0.8,0.2,1-0.1,1-0.9c0.1-1.3,0.2-2.7,0.3-4c0.1-1.3,0.2-2.6,0.4-3.9
				c0.2-1.3,0.8-2.6,0.6-3.8c-0.2-1.4,1.1-1.9,1.2-3c0-0.3,0.1-0.8,0.7-0.8c-0.2,1.2-0.5,2.3-0.7,3.4c-1.1,4.4-0.8,9-1.3,13.5
				c2.5-0.5,4.4-0.3,5.8,0.5c0.2,0.1,0.7,0.3,0.2,0.6l0,0C264.8,146.6,264.5,146.4,264.1,146.7L264.1,146.7z M170.1,113.4
				c-0.3-0.2-0.6-0.4-0.9-0.5c-0.3-0.5-0.9-0.8-0.9-1.4c3.8,2.2,7.7,2.1,11.6,0.6c2.7-1.1,5-2.7,7.3-4.5c0.4-0.3,0.6-0.8,1.2-0.7
				c0,0.2,0,0.4,0,0.6c-0.5,0.5-1.6,0.8-0.6,1.8c0.2,0.2,0.5,0.4,0.2,0.7c-0.3,0.3-0.6,0-0.7-0.2c-0.5-0.7-0.9-0.4-1.3,0.1
				c-0.7,0.6-1.5,1.2-2.3,1.7c-0.5,0.3-0.6,0.7,0,0.9c2,0.8,4,1.9,6.2,1.5c3.7-0.6,6.7-4.2,6.9-8.2c0.9-5.8-2.5-9.6-8.3-9.2
				c-0.5,0-1,0-1.5,0.1c-2.9,0.4-5.7,1.4-8.4,2.5c-0.1-0.1-0.2-0.2-0.3-0.3c0.3-0.8,1.1-0.8,1.7-1.1c4.4-1.9,8.8-3.3,13.6-1.6
				c0.6,0.2,0.8-0.1,0.8-0.6c0-1.6,0-3.2-0.5-4.8c-0.1-0.6-0.2-1.2-0.3-1.8c-0.7-3.8-3.8-6-7.5-5.5c-3.3,0.5-6,2.1-8.5,4.1
				c-0.4,0.3-0.8,0.8-1.5,0.6c2.5-2.9,5.6-4.9,9.3-5.8c1.4-0.4,2.9-0.4,4.3,0c2,0.6,2,0.6,2.5-1.6c0-0.2,0.1-0.4,0.1-0.6
				c0.5-2.9-1-6.1-3.3-6.9c-0.6-0.4-1.2-0.5-1.8-0.6c-3.5-0.4-6.8,0.6-10,1.8c-0.8,0.2-1.5,0.5-2.3,0.9c-0.5,0-0.8,0.2-1.2,0.5
				c-0.3,0-0.6,0.1-0.8,0.3c-0.8,0.2-1.5,0.6-2.1,1.1c-3.6,1.9-7.4,3.7-9.7,7.3c-3.4,5.2-4.4,11.1-3.6,17.3c0,0.6,0,1.2,0.1,1.8
				c0.4,3.2,1.3,6.2,2.1,9.3c-1,0.5-0.9-0.5-1.3-1c-0.3,0.6-0.3,1.1-0.3,1.7c-0.9,3.9-1.3,7.9-1.4,11.9c-0.4,4.2-0.4,8.3,0,12.4
				c0.2,10.1,6.5,23.5,12.6,27c-0.2-3.1,0.2-3.9,3.2-5.2c0.3-0.1,0.5-0.2,0.8-0.3c3-0.9,5.4-2.7,7.6-4.9c3.3-3.3,6-7,8.7-10.8
				c0.3-0.4,0.7-0.8,1-1.2c1.1-1.5,2-3.3,3.4-4.4c1.4-1.1,1-2,0.5-3.2c-1.1-2.7-2.9-5-4.5-7.3c-2.1-3.1-3.7-6.4-4-10.2
				c-0.2-2.1-0.4-3.8-2.8-4.2c-0.1,0-0.2-0.1-0.2-0.2c-0.5-0.9-1.1-0.4-1.8-0.2c-2.3,0.7-3.9,3-6.4,3.1c-0.7,0-1.5,0-2.2-0.1
				c0.4-0.6,1.1-0.3,1.7-0.5c1-0.3,1.9-0.4,3-1.3c-1.6,0-2.8,0-4.1,0c-0.6-0.2-1.2-0.3-1.7-0.5C170.8,113.6,170.4,113.5,170.1,113.4
				z M232.1,96.4c-0.8-1.8-1.1-1.9-3.2-1.3c0.7,0.8,1.4,1.6,2.2,2.4c0.8,1.6,1.5,3.2,2,5C234.5,100,233.1,98.3,232.1,96.4z
				 M237.3,98.6c-2.7,2.2-3.4,5.2-3.3,8.5c-0.2,2.5,0.2,5.1-0.3,7.6c4.2-0.2,8.7-2.9,11.5-6.3c2.1-2.6,2.9-5.3,2.5-8.5
				c-0.1-0.9-0.5-1.7-0.1-2.8c0.6,1.7,0.9,3.2,1.1,4.8c0.6-1.2,0.9-2.5,1.2-3.8c0.2-1,0.5-1.8-0.5-2.6c-1-0.8-2-1.1-3.2-0.5
				c-1.9,0.3-3.4,1.3-4.5,2.9c-1.7,1.9-2.3,4.3-2.8,6.6c-0.2,0.5-0.3,1-0.5,1.5c-0.5,1.3-0.7,2.8-1.8,3.8c-0.1,0-0.2,0-0.3,0
				c0.2-0.6,0.3-1.1,0.5-1.7c0.5-1,0.5-2.1,0.7-3.2c0.6-2.8,1.4-5.5,3.3-8.1C239.4,97,238.2,97.5,237.3,98.6z M177.4,167.9
				c-0.9-0.1-1.7-0.2-2.6-0.3c-1.5-0.4-2.9-0.8-4.5-1.3c0.2,0.3,0.2,0.4,0.3,0.5c0.2,0.3,0.6,0.5,0.3,0.8c-0.3,0.4-0.6-0.1-0.8-0.2
				c-0.4-0.2-0.9-0.5-1.5-0.9c0.1,1.7-0.9,2.7-1.8,3.7c-0.5,0.6-1.1,1.2-0.9,2.2c0.2,1.7,1.4,1.2,2.4,1c2.6-0.7,5-2,7.1-3.6
				c0.4-0.3,0.8-0.8,1.5-0.6c0.3,1.1-0.6,2.1-0.6,3.2c-0.5,1.7-0.1,2.1,1.5,1.8c3.8-0.7,6.6-3.2,9.3-5.9c0.9-0.9,1.7-2.1,2.2-3.7
				c-2,1.2-4,1.7-5.8,2.4C181.4,167.5,179.4,167.8,177.4,167.9z M239.3,114.6c-2.7,1-5.4,1.4-8.2,1.5c-0.6,0-1.1,0-1.7-0.1
				c-1.1-0.1-2.3-0.2-3.2-1.2c0.8-0.3,1.4,0.2,2.2,0.2c4,0.1,4.6,0,4.2-4c0-0.3,0.1-0.7-0.2-0.9c-2,3-5,3.5-8.3,3.2
				c-0.3-0.2-0.7-0.4-1.2-0.3c0.9,1.6,2,2.8,3.4,3.8c3.3,2.2,6.9,2.6,10.7,2.4c7.5-0.4,14.2-5.5,16.8-12.8c1.6-4.5,1.4-9.1,0.9-13.7
				c-0.2-2.1-0.7-4.3-1.1-6.4c-0.2-1.1-0.6-1.7-1.7-0.9c-0.3,0.2-0.6,0.3-0.9,0.4c-0.5,0.2-0.8,0.5-0.5,1.1c0.7,1.8,0.9,3.7,1.3,5.6
				c0.3,4.1-0.8,7.9-2.3,11.6C247.1,108.8,243.9,112.4,239.3,114.6z M248.5,123.6L248.5,123.6c-1-1.4-2.7-2.3-3.5-3.9
				c-0.4-0.8-0.9-0.8-1.6-0.5c-1.9,0.8-3.9,1.3-6,1.5c-1.3,0.1-3-0.6-3.7,0.4c-0.6,0.9-0.1,2.6-0.1,3.9c-0.3,1.6-1,3.2-1.2,4.9
				c-1.1,2.5-0.8,4.9,0.6,7.1c1.6,2.5,5.7,3.8,8.3,2.7c0.4-0.2,1.5-0.4,0.4-1.1c-1.1-0.7-1.8-1.8-2.8-2.6c-0.2-0.6-0.4-1.3-0.8-1.8
				c-0.2-0.8-0.3-1.5-0.5-2.3c0-1.6,0-3.3,0.3-4.9c0.2-0.5-0.2-1.3,0.6-1.5c0,2.2-0.1,4.4,0.2,6.6c0.5,2.9,2.3,5,4.8,5.6
				c3.4,0.8,7.9-1.2,9.6-4.4c1.4-2.7,0.3-6.5-2.7-7.8c-0.4-0.8-1-1.3-1.8-1.7C248.7,123.8,248.6,123.7,248.5,123.6z M166.2,69.4
				c-0.5,1.3-1.1,2.5-1.6,3.8c-1.6,2.8-3,5.7-4,8.8c0,0.1-0.1,0.3-0.1,0.3c0.1,0.1,0.2,0,0.2-0.1c0.8-0.7,1.6-1.5,2.5-2.2
				c4.2-3.2,8.8-5.5,13.7-7.3c0.6-0.2,1.1-0.2,1.1-1.2c-0.1-2.4-0.4-4.7-1.5-6.8c-0.5-1.9-1.4-3.5-2.7-5c-1.7-2-3.7-3.7-6.4-4
				c-1.1-0.1-2.3-0.2-2.9,0.9c-0.6,1.1-0.1,2.1,0.5,2.9c1,1.3,1.7,2.7,2.4,4.2c0.2,1.4,0.7,2.7,0.5,4.2c-0.7-0.1-0.4-0.8-0.7-1
				c0-0.2,0.1-0.5-0.2-0.6c0,0.2-0.1,0.4-0.1,0.6C166.7,67.9,166.5,68.6,166.2,69.4z M221.3,62.7c-0.7,1.3-1,2.8-1.4,4.2
				c-0.2,0.8,0,1,0.7,1.2c1.6,0.4,3,1.2,4.5,2.1c0.5,0.3,1,0.9,1.8,0.9c-0.1-1.5-0.1-3,0.1-4.5c0.2-0.8,0.3-1.6,0.5-2.3
				c0.8-2.1,1.7-2.5,3-1.4c0.2-1.4,0.3-2.8,0.3-4.2c0-1.3-0.1-2.5-1.9-2.4c-0.4,0-0.9-0.2-1.3-0.5c-0.6-0.4-1-0.2-1.5,0.3
				C224,58,222.3,60.1,221.3,62.7z M244.9,58.1c-0.2-0.1-0.4-0.2-0.6-0.3c-0.4-0.3-0.9-0.5-1.4-0.5c-3.8-1.2-7.3,0.7-8.8,4.9
				c-1,2-1.2,4.2-1.1,6.4c-0.1,3.2,1,5.9,3,8.3c0.3,0.4,0.6,0.8,1.2,0.2c3.6-3.2,7.9-4.3,12.6-4.1c0.6,0,0.9-0.1,1.1-0.7
				c0.9-3.2,0.8-6.4-1-9.3C248.5,61.1,247.3,59,244.9,58.1z M265.9,73.2c0-0.3-0.2-0.4-0.5-0.5c-1.1-1.3-2.4-2.3-3.9-3
				c-1-0.8-2.5-0.3-3.2-1.7c0.2,0,0.4-0.1,0.6,0c1.2,0.4,1.4-0.2,1.2-1.3c-0.3-2.2-0.3-4.4-0.6-6.6c-0.5-3.5-1-7-3.6-9.7
				c-2.8-3.5-6.6-4.7-10.8-5c-0.4,0-0.7,0.2-0.9,0.6c-0.8,1.3-1.7,2.5-2.5,3.8c-0.6,0.5-1,0.9,0.2,1.2c3.2,1,5.9,2.7,8.1,5.3
				c0.6,0.7,0.6,0.7,0.4,1.6c-2.6-2.8-5.7-4.7-9.3-5.7c-0.8-0.2-1.4-0.1-2,0.5c-1.8,1.9-3.9,3.1-6.4,3.7c-0.8,0.2-1.3,0.6-1.3,1.6
				c0,1.5,0,3.1-0.2,4.6c-0.4,3.3-0.8,6.7-1.6,10c-0.1,0.3-0.4,0.8,0.2,0.7c1.1-0.1,2.1,0.4,3.3,0.9c-1.7-4.5-1.2-8.7,0.1-12.8
				c0.6-0.9,1.2-1.8,1.8-2.7c0.2-0.3,0.1-0.4-0.2-0.5c0-0.3,0.1-0.5,0.4-0.7c1.7-1.2,3.5-1.5,5.6-1.5c6.3,0.1,13.1,7.2,11.2,15.4
				c-0.3,1.4-0.3,2.1,1.2,2.3c0,0,0,0.2,0.1,0.4c-1.9-0.3-3.8-0.5-5.6-0.3c-3.9,0.4-7.4,1.5-10.3,4.5c-2.8,2.5-2.2,6.1,1.1,7.4
				c0.7,0.3,1.4,0.5,2.2,0.5c6.4,0.4,11.8-1.7,16.2-6.5c0.4-0.4,0.7-1,1.3-1.3c-0.1,0.4-0.1,0.7-0.2,1.1c-0.9,1.5-2,3-3.4,4.1
				c-0.3,0.2-0.5,0.4-0.3,0.8c0.6,2,1.1,4.1,1.6,6.1c0,0.7,0.1,1.3,0.1,2c0.3,4.5,0.6,8.9-0.6,13.3c-0.6,1.5-1.2,3.1-1.8,4.6
				c-1.9,2.8-4,5.4-7,7.1c-0.9,0.5-0.7,0.9-0.3,1.6c1.6,2.2,3.8,3.8,5.9,5.5c1.5,1.5,2.8,3.2,3.1,5.6c1.3-1.2,1.9-2.4,2-3.8
				c0.3-2.5-0.4-4.6-1.7-6.7c-0.2-0.7-1.5-1.3-0.1-2c0.6,0.5,1.1,1,1.8,1.4c3.1,2.2,6.4,2.8,10,1.3c2.2-0.9,2.6-2.7,1-4.6
				c-0.7-0.9-1.6-1.5-2.6-1.9c-0.5-0.6-1.4-0.6-1.8-1.5c0.5,0.1,0.9,0.2,1.3,0.3c1,0.7,2,1.6,3.2,1.4c2.4-0.3,4.4-1.7,5.9-3.7
				c0.6-0.9,0.8-1.9,0.3-2.9s-1.3-1.3-2.3-1.2c-3.8,0.1-6.7-1.4-8.9-4.6c-1.1,1.3-2.1,2.6-3.2,3.8c-0.3,0.3-0.6,0.8-1.1,0.5
				c1.7-2.9,3.5-5.7,5.1-8.6c3.1-5.4,5.3-11.2,4.7-17.6c-0.2-2.5-0.9-4.9-2.8-6.7C266,73.3,266,73.2,265.9,73.2z M222.4,111.2
				c0.8,1.4,2.2,1.3,3.5,1.3c1.9-0.1,3.6-0.6,4.9-2.2c0.5-0.4,0.8-1,1-1.5c1.7-4.3-0.5-10.9-4.4-13.3c-0.4-0.4-0.9-0.5-1.4-0.5
				c-1.9,0-3.8,0.1-5.6,0.4c-2.1,0.3-4,1.2-5.8,2.5c-0.8,0.6-0.9,1.1-0.5,2.1c1.6,3.2,3.7,5.9,6.1,8.4c0.4,0.4,1,0.7,0.9,1.4
				c-1.4-0.2-2-1.7-3.3-2.1c-0.5,5.6-2.9,9.9-7.8,12.6c-1.1,0.6-2.3,1.4-2.9,2.7c-0.4,0.7-0.2,1.3,0.4,1.8c1.1,0.9,2.3,1.3,3.7,1
				c1.9-0.3,3.5-1.3,5-2.5c1.3-1.1,2.5-2.2,3.5-3.5c0,1.2,0,2.4-0.1,3.5c-0.5,2.2-0.2,4.4,0.9,6.4c1.8,3.3,5.2,3.6,7.6,0.6
				c0.9-1.1,1.6-2.4,2-3.8c0.1-0.4,0.3-0.8,0.8-0.7c0.7,0.1,0.4,0.6,0.3,1c0,0.2,0,0.4,0.3,0.5c0.6-0.8,0.7-1.7,0.8-2.6
				c0.3-1,0.2-2,0.3-3c0.1-0.9-0.3-1.2-1.2-1.4c-2.3-0.4-4.4-1.2-6.3-2.7c-1.8-1.3-3-3.1-3.4-5.3
				C221.8,111.9,221.5,111.2,222.4,111.2L222.4,111.2z M210.5,101.3c0.2,0.6,0.7,1,1.3,1.3c0.1-4.1,1.6-6.3,5.3-7.7
				c2.9-1.1,5.9-1.1,8.9-1.2c4.6-0.1,9.2-0.7,13.4-2.8c1.4-0.7,2.8-1.5,4.2-2.9c-3.1-0.1-5.8-0.4-7.9-2.6c-1-1.5-1.7-3.3-0.7-4.9
				c1.1-1.8,0.3-2.9-0.8-4.1c-0.6-0.7-1.2-1.3-2-1.8s-1-0.5-2.1-0.3c0.6,0.5,1.2,0.9,1.8,1.3c-0.8,0.1-1.5,0.5-2.2-0.2
				c-1.8-1.6-3.6-3-5.5-4.4c-4.1-2.9-9.1-2.6-12.6,1c-1.7,1.7-2.8,3.7-3.5,6c-1.3,4.4-1.4,8.9-0.7,13.4
				C207.7,95,208.5,98.3,210.5,101.3z M225.9,55c-0.6-0.3-0.7-1.3-1.5-0.9c-0.7,0.3-1.4,0.7-1.9,1.5c-2,3.5-3.7,7.1-4.4,11
				c-0.1,0.3-0.5,0.9,0.2,1.1c0.7,0.1,0.5-0.6,0.6-0.9C220.1,62.1,222.3,58.2,225.9,55z"/>
			<path class="st1" d="M279.4,139.2c0,0.5-0.1,1-0.1,1.4c-0.6-0.1-0.7,0.3-0.9,0.8c-0.3,0.9,0.3,1.9-0.2,2.8
				c-0.9,1.6,0.3,3.1,0.4,4.6c0,0.3,0.4,0.4,0.7,0.4c0.1,0.9,0.1,1.7,0.2,2.6c-1.1,0.5-1.3,1.9-2.4,2.5c-0.2,0.1-0.2,0.7-0.3,1.1
				c0,0.8,0,1.5,0,2.3c0,0.7,0.1,1.2,1,1.2c0.8,0,0.8,0.6,0.7,1.1c-0.3,1.1-0.5,2.3-0.5,3.5c0,0.5,0,1-0.6,1.1s-0.6-0.5-0.8-0.9
				c-0.1-0.4-0.3-0.9-0.9-0.7c-0.5,0.1-0.8,0.5-0.9,1c0,0.5,0.1,1.2-0.3,1.5c-0.9,0.7-0.8,1.6-0.8,2.6s0,1.9-1.1,2.4
				c-0.3,0.1-0.6,0.4-0.4,0.8c0.2,0.3,0.4,0.2,0.7,0.2c1.4-0.1,1.9,0.7,1.1,1.8c-1.1,1.3-1.1,3.1-2.3,4.3c-0.4,0.4-1,0.9-1,1.3
				c-0.1,1.7-1,1.8-2.3,1.8c-0.4,0-0.8-0.1-0.9,0.5s0.2,0.9,0.8,0.9c1,0.1,1,0.5,0.4,1.1c-0.8,0.8-1.3,1.7-1.8,2.7
				c-0.4,0.8-1.3,1.3-2,0.3c-0.5-0.6-0.8-0.2-1.2-0.1c-0.2,0-0.3,0-0.5-0.1c0-0.8-0.1-1.6-1.1-0.8c-0.5,0-0.8-0.5-1.3-0.7
				c-0.4-0.1-0.8-0.8-1.3-0.2c-0.1,0.1-0.2,0.1-0.4,0.2c-1.9-0.3-3.8-0.4-5.6-1.1c-2.5-0.9-5.1-1.4-7.3-3.1c0.2-0.3,0.4-0.3,0.7-0.2
				s0.7,0.3,0.8-0.2c0.1-0.4-0.6-0.2-0.5-0.6c1.8-0.8,3-2.5,4-3.8c3-4.3,5.4-9,7-14.1c0.2-0.6,0.5-1.1,1-1.6
				c0.6-0.6,1.1-1.4,0.8-2.2c-0.5-1.4,0-2.8,0.5-3.9c0.8-1.7,0.6-3.6,1-5.3c3.9,1.4,5.8,4.7,7.1,8.4c0.1,0.3,0.2,0.7,0.5,0.7
				c0.5,0,0.3-0.5,0.4-0.8c0.6-0.5,0.8-1.3,0.7-2c-0.5-2-1.2-3.9-2.7-5.4c-0.8-0.9-2-1.4-2.6-2.5c0.5-0.4,0.1-0.5-0.2-0.6
				c-1.3-0.9-3.2-1-5.8-0.5c0.5-4.5,0.2-9.1,1.3-13.5c0.9-0.5,1.7-1.4,1.4-2.3c-0.4-1.3,1.3-3.4-1.3-3.9c-0.1,0-0.2-0.4-0.3-0.6
				c-0.6-1.2,0.2-2.2,0.5-3.2c2,0.4,4.1,0.6,6.1-0.1c3.4-1.1,4.2-3,2.7-6.3c0.2-0.4,0.8-0.2,0.9-0.8c0.2,0,0.3-0.1,0.5-0.1
				c0.2,0.3,0.6,0.4,0.9,0.3c1.3-0.5,2.5,0.1,3.7,0.6c-0.1,0.7,0.3,0.9,0.9,0.8c0.2,0,0.4,0.1,0.5,0.3c-0.4,1.9-0.1,3.9-0.2,5.8
				c-0.1,1.2-0.3,2.9,1,3.6c0.7,0.4,0.9,0.8,0.9,1.5c0,0.3,0.1,0.7,0.2,1c0.1,0.4,0.4,0.7,0.9,0.5c0.5-0.1,0.4-0.5,0.2-0.8
				c-0.3-1,0.4-0.8,0.9-0.9c0.1,0.9-0.1,1.7-0.3,2.6c-0.4,0.1-0.9-0.2-1,0.4c0,0.6,0.6,0.4,0.9,0.5c-0.1,0.4-0.1,0.7-0.2,1.1
				c-0.5,0.2-0.8-0.4-1.4-0.4c0.1,2-0.1,3.9-0.3,5.8C278.4,138.3,278.5,139.1,279.4,139.2z M270.3,177.9c-0.1-0.2,0.1-0.8-0.5-0.7
				c-0.6,0-0.7,0.5-0.7,1c0,0.4-0.1,0.9,0.5,0.8C270.2,179,270.3,178.5,270.3,177.9z M273.1,173.2c0-0.4-0.2-0.6-0.6-0.7
				c-0.3,0-0.5,0.1-0.5,0.4c0,0.4,0.2,0.6,0.6,0.7C272.9,173.6,273,173.5,273.1,173.2z"/>
			<path class="st2" d="M229.1,145.8c0.5,0.1,1.1,0,1.4,0.6c-0.9,0.8-0.9,2.2-1.8,3.1c-0.8,0.8-1.2,1.8-1.4,2.9
				c-0.1,1-0.5,1.7-1.6,2c-0.4,0.1-1,0.3-1,0.9c0,1-0.5,1.9-1,2.7c-0.4,0.8-0.5,1.9-1.7,2.1c0.1-0.5-0.4-0.5-0.6-0.9
				c0.5-0.3,0.8-0.7,0.5-1.2c-0.3-0.4-0.9-0.4-1.3-0.1c-0.5,0.4-0.4,0.9,0,1.3c0,0.3,0,0.6-0.3,0.9c-0.3,0-0.6-0.1-0.7,0.2
				c-0.2,0.4,0.2,0.5,0.5,0.7c0,0.2,0,0.4-0.1,0.5c-0.7,0.1-1.2,0.5-1,1.3c0.1,0.4,0.1,0.7-0.4,0.6c-1.7-0.1-3,0.9-4.4,1.6
				c-2.1,1.1-4,2.5-6.6,1.9c0.3-2.8,0.4-5.6,0.3-8.3c0.5-1.8-0.6-3.3-1-5c-0.2,0.4-0.4,0.8-0.4,1.3c-0.2,2.7-1,5.2-2.3,7.5
				c-1.7,2.9-3.8,5.5-6.7,7.2c-2.8-0.5-5.7-0.4-7.9-2.6c2-4,3.9-8,5.5-12.3c0.4-1.2,0.9-2.5,0.7-4.2c-1,1.8-1.3,3.5-2.2,4.9
				c-0.8,0.1-1.2,0.8-1.7,1.4c-2,2.4-4.5,3.9-7.3,5c-0.1-0.6-0.4-0.4-0.8-0.2c-0.9,0.4-2.8-0.6-2.9-1.5c-0.1-1.1-0.4-2.1-0.3-3.2
				c4.7-4.9,8.6-10.4,12.4-16c0.9-1.4,2.1-2.5,3.3-3.5c1.9-1.5,4.1-1.1,6.2-0.3c6.7,2.6,13.7,4.5,20.4,7c1.7,0.6,3.4,1.1,5.1,1.7
				c0,0.3,0.1,0.7,0.5,0.7C229,146.3,229,146,229.1,145.8z M215.4,161.8c-0.2,0-0.4,0.1-0.4,0.3s0,0.4,0.2,0.4
				c0.3,0.1,0.5-0.1,0.5-0.3S215.6,161.9,215.4,161.8z M211.6,164.3c0,0.2,0,0.4,0.2,0.5c0.3,0.1,0.3-0.2,0.3-0.4s-0.1-0.4-0.2-0.4
				C211.6,163.9,211.6,164.2,211.6,164.3z M209.9,164.5c-0.1-0.1-0.2-0.2-0.3-0.2s-0.2,0.2-0.2,0.2c0,0.2,0.1,0.4,0.3,0.3
				C209.7,164.8,209.8,164.6,209.9,164.5z"/>
			<path class="st2" d="M174.8,75.3c0.7-0.4,1.5-0.7,2.3-0.9c0.3,0.9,0.9,1.5,1.6,2.1c1.7,1.4,3.1,3,3.2,5.4
				c-0.3,0.3-0.7,0.5-1.1,0.5c-0.1,0.1-0.2,0.2-0.3,0.2c-3.6,1.8-5.8,4.4-5.1,6.3c0.4-0.2,0.3-0.8,0.5-1.1c0.6,0.2,1-0.3,1.5-0.6
				c2.6-2,5.3-3.6,8.5-4.1c3.7-0.5,6.8,1.7,7.5,5.5c0.1,0.6,0.2,1.2,0.3,1.8c-1.9,1.5-4.1,1.7-6.3,1.7c-2.9,0.1-5.5,1.1-7.8,2.9
				c-1.2,0.9-1.9,2-1.7,3.6c0.1,0.4,0.2,0.6,0.6,0.2c2.8-1,5.5-2.1,8.4-2.5c0.5-0.1,1-0.1,1.5-0.1c-0.6,1.1-0.4,2.9-2.3,2.9
				c-0.2,0-0.2,0.4-0.3,0.6c-0.5,0.9-0.8,2.1-2.2,1.1c-0.2-0.1-0.9-0.1-0.9,0c-0.6,1.6-2,2.2-3.2,3c-0.2,0.1-0.2,0.7-0.6,0.6
				c-1.2-0.2-2,0.7-3.1,0.9c-2.3,0.5-4.6,0-6.9,0.3c-1.9,0.3-3.2-1.5-5-1.3c-0.3,0-0.3-0.4-0.3-0.7c-0.4-1.6-3-0.4-3.1-2.5
				c0-0.1-0.4-0.2-0.6-0.1c-0.8,0.1-1.6,0.3-2.5,0.5c-0.8-6.2,0.2-12.1,3.6-17.3c2.3-3.6,6.1-5.4,9.7-7.3c1.1,0.4,1.8,0.1,2.1-1.1
				c0.2-0.2,0.5-0.3,0.8-0.3c0.5,0.2,0.4,1,1,1C175,76.3,174.8,75.8,174.8,75.3z M173.4,76.8c0,0.1-0.1,0.2-0.1,0.2
				c0.1,0,0.2,0.1,0.2,0.1c0.1,0,0.1-0.1,0.1-0.2C173.5,76.9,173.4,76.8,173.4,76.8z"/>
			<path class="st3" d="M261.5,148.5c-0.4,1.8-0.1,3.6-1,5.3c-0.5,1.1-1,2.5-0.5,3.9c0.2,0.7-0.2,1.6-0.8,2.2
				c-0.5,0.4-0.8,0.9-1,1.6c-1.7,5.1-4,9.8-7,14.1c-1,1.4-2.1,3.1-4,3.8c-0.1,0.4,0.7,0.2,0.5,0.6c-0.1,0.5-0.5,0.3-0.8,0.2
				s-0.5-0.2-0.7,0.2c-0.5-0.2-1-0.3-1.4-0.5c-2.2-1.3-4.5-2.6-6.6-4c-1.9-1.3-3.9-2.5-5.5-4.2c0.3-0.1,0.6-0.2,0.7-0.3
				c1.8-1.7,3.3-3.7,4.8-5.7c0.9-1.2,2.2-2.4,2.5-4c0.4-2.4,2.3-3.9,2.8-6.3c0.4-1.6,0.2-3.6,1.6-5v-0.1c-0.1-1.1,0.1-2.2,0.3-3.3
				c4.7-1,9.3-1.4,13.9,0.6c-0.3,0.1-0.3,0.3-0.4,0.7c0.1-0.1,0-0.2-0.1-0.1c-0.1,0.1-0.2,0.1-0.3,0.2c-0.1,0.1,0.1,0.3,0.2,0.2
				c0.1,0,0.2-0.2,0.2-0.3c0.4-0.1,0.8-0.1,1.1-0.4C260.6,147.9,261.1,148.2,261.5,148.5z M259.1,151.2c0.3-0.1,1.2-0.2,1.2-0.8
				c0.1-0.8-0.8-0.4-1.2-0.5c-0.4-0.1-0.7,0-1.1-0.1c-0.3-0.1-0.6-0.1-0.6,0.3c-0.1,0.4-0.1,0.8,0.4,0.9
				C258.1,151.1,258.5,151.1,259.1,151.2z M256.4,157.4c0-0.3-0.1-0.5-0.4-0.4c-0.4,0.1-0.9,0.3-0.9,0.9c0,0.3,0.2,0.4,0.5,0.3
				C255.9,158,256.5,158,256.4,157.4z M256.5,152.2c-0.4,0.6-0.4,0.9,0,1.5C256.8,153.1,256.8,152.8,256.5,152.2z M248.9,171.6
				c0.2,0,0.4,0,0.4-0.3c0-0.2-0.3-0.2-0.4-0.2c-0.2,0-0.4,0-0.4,0.3C248.5,171.6,248.7,171.6,248.9,171.6z"/>
			<path class="st4" d="M189.4,143.9c-2.7,3.8-5.4,7.6-8.7,10.8c-2.2,2.2-4.6,4-7.6,4.9c-0.3,0.1-0.5,0.2-0.8,0.3
				c-3,1.3-3.4,2-3.2,5.2c-6.2-3.6-12.4-16.9-12.6-27c1.2,1.1,2.7,1.3,4.3,1.2c0.2,0,0.4,0,0.6,0.1c3.2,0.9,6.4,1.6,9.7,1.7
				c1.7,0,3.3-0.2,5-0.5c1.6-0.3,3.2-0.1,4.8-0.1c0.4,0,0.8-0.1,1.1-0.5c0.7-0.9,1.8-1.1,2.8-1.2c0.8-0.1,1.3-0.4,1.8-0.9
				c0.8,0.6,0.9,1.6,1.4,2.4C188.5,141.3,188.5,142.8,189.4,143.9z"/>
			<path class="st5" d="M210.5,101.3c-2-2.9-2.8-6.3-3.3-9.7c-0.7-4.5-0.6-9,0.7-13.4c0.7-2.3,1.8-4.3,3.5-6c3.5-3.6,8.6-3.9,12.6-1
				c1.9,1.4,3.8,2.8,5.5,4.4c0.7,0.6,1.4,0.3,2.2,0.2c-0.6-0.4-1.2-0.9-1.8-1.3c1.1-0.2,1.3-0.2,2.1,0.3s1.4,1.1,2,1.8
				c1.1,1.2,1.9,2.2,0.8,4.1c-1,1.6-0.4,3.4,0.7,4.9c0.3,2.3,0.2,2.4-2.2,2.9c-2.2,0.5-4.5,0.2-6.7,0.3c-3.4,0.1-6.6,0.8-9.6,2.6
				c-3.1,1.8-5.5,4.2-6.3,7.9C210.6,99.8,211.2,100.6,210.5,101.3z M209.1,87.9c0.5-2.2,1-4.2,1.7-6.3c1.1-3.1,2.6-5.9,5.7-7.5
				c1.8-0.9,3.6-0.5,5.4-0.6c0.5,0,1.2,0.4,1.4-0.5c0.2-0.7-0.5-1.1-1-1.5c-1.5-0.9-3.2-0.8-4.8-0.5c-2.9,0.6-5,2.4-6.6,4.9
				C208.7,79.7,208.3,83.7,209.1,87.9z"/>
			<path class="st6" d="M255.9,50.3c2.6,2.7,3.1,6.2,3.6,9.7c0.3,2.2,0.4,4.4,0.6,6.6c0.1,1.1,0,1.7-1.2,1.3c-0.2,0-0.4,0-0.6,0
				c0.7,1.4,2.3,0.9,3.2,1.7c-0.7,1-1.7,1.8-1.5,3.3c0,0.1-0.1,0.4-0.2,0.5c-1.1,0.6-1.1,1.7-1.2,2.7c-1.5,0.4-2.2,1.9-3.2,2.8
				c-3.9,3.2-8.3,4.6-13.3,4.5c-1.8,0-3-0.9-4.3-2.1c-1-1-0.3-2-0.4-3c2.8-3,6.4-4.1,10.3-4.5c1.9-0.2,3.7,0,5.6,0.3
				c0-0.2-0.1-0.4-0.1-0.4c-1.5-0.2-1.5-0.9-1.2-2.3c1.9-8.2-4.9-15.3-11.2-15.4c-2.1,0-3.9,0.2-5.6,1.5c-0.3,0.2-0.3,0.4-0.4,0.7
				c-1,0.8-2.3,1.5-1.6,3.2c-1.3,4.2-1.8,8.3-0.1,12.8c-1.2-0.5-2.2-1.1-3.3-0.9c-0.6,0.1-0.3-0.5-0.2-0.7c0.8-3.3,1.2-6.6,1.6-10
				c0.2-1.5,0.2-3.1,0.2-4.6c0-0.9,0.5-1.4,1.3-1.6c2.5-0.6,4.7-1.8,6.4-3.7c0.6-0.7,1.2-0.8,2-0.5c3.6,1,6.7,2.9,9.3,5.7
				c0.1-0.9,0.1-0.9-0.4-1.6c-2.1-2.7-4.9-4.3-8.1-5.3c-1.2-0.4-0.8-0.7-0.2-1.2c0.5,0.1,0.8-0.2,1.2-0.4c4.2-1.7,8.2-1.9,12.1,0.8
				C255.3,50.3,255.6,50.4,255.9,50.3z"/>
			<path class="st7" d="M225.1,42.8c0.7-2.4,2.5-4,4.5-5.2c2.1-1.2,4.4-1.8,6.7-2.6c0.6-0.2,1.3-0.2,1.9-0.9
				c-1.6-0.2-2.9,0.3-4.3,0.5c0.2-1.7,1.6-3.2,1.1-5.1c-0.3-1.2-0.2-2.4-0.3-3.6c0.3,0,0.6,0,0.8,0c0.2,0.3,0.4,0.4,0.6,0.1
				c0.4-0.1,1,0.2,1.4-0.5c-2.8-0.7-5.4-1.3-8.2-1.3c0-0.3,0-0.5,0-0.8c2.9-0.1,5.8,0,8.8,0.4c3.6,0.5,6.9,1.4,9.9,3.2
				c3.9,2.3,6.8,5.6,7.8,10.2c-0.5,1-0.7,2.1-1.3,3c-1.2,1.7-3.3,2.2-5,1.1c-0.2-0.2-0.5-0.3-0.5-0.6s0.4-0.4,0.6-0.5
				c0.8-0.4,1.7-0.8,2.6-1.2c0.3-0.1,0.9-0.1,0.7-0.7c-0.1-0.5-0.6-0.2-1-0.3c-2.8-0.3-5,1.3-7.1,2.9c-2.5,1.9-4.7,4.2-7.3,6.1
				C232.6,50.5,225.9,49,225.1,42.8z M237.5,37.1c-3.7,0.3-6.9,2-9.3,5.2c-0.5,0.6-0.9,1.3-0.1,2c0.8,0.7,1.5,0.3,2.1-0.4
				c1.6-1.9,3.7-3.2,6-4c0.8-0.3,1.6-0.7,2.4-1.2c0.4-0.2,1-0.4,0.8-1c-0.2-0.5-0.8-0.4-1.2-0.6C238,37,237.8,37.1,237.5,37.1z"/>
			<path class="st1" d="M186.5,137.7c-0.5,0.6-1,0.9-1.8,0.9c-1,0.1-2.1,0.3-2.8,1.2c-0.3,0.4-0.7,0.5-1.1,0.5
				c-1.6,0-3.2-0.2-4.8,0.1c-1.7,0.3-3.3,0.5-5,0.5c-3.3-0.1-6.5-0.8-9.7-1.7c-0.2,0-0.4-0.1-0.6-0.1c-1.6,0.2-3,0-4.3-1.2
				c-0.5-4.1-0.5-8.3,0-12.4c0.7,0.1,1.1-0.4,1.5-0.8c0.3-0.2,0.5-0.7,0.9-0.5c1.3,0.6,2.7,0.8,4,1c0.6,0.1,0.9,0.4,0.8,1
				c-0.3,1,0.3,1,1,1.1c0.8,0.1,1.8-0.3,2.5,0.2c1.4,1.1,3,0.9,4.5,0.7c0.6-0.1,1.8,0.3,1.8-0.5c0-0.7-1.3-0.6-2-0.7
				c-0.9-0.1-1.8,0.2-2.6-0.3c1.6-0.1,3.3-0.6,4.7,0c2.1,0.8,4.2,1.3,6.5,1.3c0.8,0.5,1.1,1.4,1.6,2.1
				C183.2,132.6,184.8,135.2,186.5,137.7z"/>
			<path class="st6" d="M245.4,147c-0.2,1.1-0.4,2.2-0.3,3.3v0.1c-1.4,1.4-1.2,3.3-1.6,5c-0.5,2.3-2.4,3.9-2.8,6.3
				c-0.3,1.5-1.5,2.7-2.5,4c-1.5,2-3,4-4.8,5.7c-0.2,0.2-0.5,0.2-0.7,0.3c-0.2-0.2-0.4-0.4-0.6-0.6c0-0.9,1-0.7,1.3-1.3
				c-1-1-2,0-3-0.2c-1.3-1.4-2.5-2.8-3.4-4.5c-0.2-0.3-0.3-0.7-0.8-0.7c0-0.4,0.1-0.8,0.1-1.2l0.1-0.1c0-0.1-0.1-0.1-0.1-0.2
				c0-0.2-0.1-0.4-0.1-0.5c0.8-1.6,0.8-3.3,0.1-4.9c-0.1-0.3,0.1-1.1-0.5-1s-0.4,0.7-0.3,1.2c0.4,1.7-1.3,4.8-2.9,5.5
				c-0.1-0.1-0.2-0.2-0.3-0.3c0-1-0.1-1.9-0.1-2.9c1.2-0.2,1.3-1.3,1.7-2.1s1-1.6,1-2.7c0-0.6,0.5-0.8,1-0.9c1-0.3,1.4-1,1.6-2
				c0.1-1.1,0.6-2.1,1.4-2.9c0.8-0.9,0.8-2.3,1.8-3.1c1,0.1,2,0.1,3,0.4c2.4,0.7,4.8,0.5,7.2,0.6c0,0.2,0.1,0.4,0.3,0.4
				s0.3-0.2,0.3-0.4c0.6,0,1.1,0,1.7-0.1c0,0.1,0,0.3,0,0.4c0,0.5,0.1,0.9,0.6,0.9c0.7,0,0.4-0.6,0.5-1c0-0.2,0-0.4,0-0.6
				C244.5,147.1,244.9,147,245.4,147z"/>
			<path class="st6" d="M157.4,101.9c0.8-0.2,1.6-0.4,2.5-0.5c0.2,0,0.6,0.1,0.6,0.1c0.1,2.1,2.7,0.9,3.1,2.5c0.1,0.3,0,0.7,0.3,0.7
				c1.8-0.2,3.1,1.6,5,1.3c2.2-0.4,4.6,0.2,6.9-0.3c1-0.2,1.9-1.1,3.1-0.9c0.4,0.1,0.4-0.5,0.6-0.6c1.2-0.8,2.7-1.4,3.2-3
				c0-0.1,0.7-0.2,0.9,0c1.4,0.9,1.8-0.2,2.2-1.1c0.1-0.2,0.1-0.6,0.3-0.6c1.9,0,1.7-1.8,2.3-2.9c5.8-0.4,9.2,3.3,8.3,9.2
				c-0.6,0.2-0.7,0.8-1.1,1.2c-1.4,1.8-3.1,3.1-5.5,3.4c0.2-0.6,0.7-0.6,1-0.9c0.3-0.4,0.7-0.7,0.5-1.2s-0.7-0.3-1.1-0.3
				c-0.8,0-1.5-0.2-2.2-0.3c0-0.2,0-0.4,0-0.6c0.6-0.6,1.5-0.8,1.7-1.8c0.1-0.4,0.4-0.8,0-1.2c-0.4-0.3-0.7,0-1,0.2
				c-1.6,1.1-3.4,1.8-5.1,2.8c-5,3-10.2,4.1-15.9,2.8c-0.4-0.1-1-0.6-1.3-0.1c-0.3,0.6,0.3,1,0.7,1.4c0.2,0.2,0.5,0.3,0.7,0.4
				c0,0.7,0.6,0.9,0.9,1.4c0,0.1,0,0.2,0,0.3c-1,0.4-0.4,1.4-0.6,2.1c-0.1,0-0.2,0-0.2,0c-0.5,0-1.4-0.3-1.6,0.2
				c-0.4,1.4-1.3,0.7-1.9,0.5c-1-0.2-2-0.5-3-0.5s-1.7-0.5-1.5-1.7c0,0,0-0.1,0.1-0.1c0,0,0,0.1-0.1,0.1c-0.2,0-0.4,0-0.6,0
				c-0.3-0.2-0.3-0.4-0.3-0.7c-0.8-3.1-1.7-6.1-2.1-9.3C157.4,103.1,157.4,102.5,157.4,101.9z"/>
			<path class="st4" d="M263.7,186.1c0.4-0.1,0.7-0.5,1.2,0.1c0.7,0.9,1.6,0.5,2-0.3c0.5-1,1-1.9,1.8-2.7c0.6-0.6,0.6-1.1-0.4-1.1
				c-0.6,0-0.9-0.4-0.8-0.9s0.5-0.5,0.9-0.5c1.3,0.1,2.2-0.1,2.3-1.8c0-0.5,0.6-0.9,1-1.3c1.2-1.2,1.2-3,2.3-4.3
				c0.9-1.1,0.3-1.9-1.1-1.8c-0.3,0-0.6,0.1-0.7-0.2c-0.2-0.4,0.1-0.7,0.4-0.8c1.1-0.4,1.2-1.4,1.1-2.4c0-0.9-0.2-1.9,0.8-2.6
				c0.4-0.3,0.3-1,0.3-1.5s0.4-0.9,0.9-1s0.7,0.3,0.9,0.7c0.1,0.4,0.2,0.9,0.8,0.9c0.6-0.1,0.6-0.7,0.6-1.1c0-1.2,0.2-2.3,0.5-3.5
				c0.1-0.5,0.1-1.1-0.7-1.1c-0.9,0-1-0.4-1-1.2s0-1.5,0-2.3c0-0.4,0.1-1,0.3-1.1c1.1-0.5,1.4-1.9,2.4-2.5c0.7,7.3,1.4,14.7,2.1,22
				c0.2,1.7,0.8,3.1,1.6,4.6c0.3,0.5,0.3,0.5,1.1,0.2c0.1,0,0.4,0.1,0.5,0.2c0.5,0.4,1,0.8,1.5,1.2c-0.7,2-1,2.2-3.1,1.7
				c-1.1-0.2-2.1-0.8-3.3-0.6c-0.3,0-0.9,0-0.3,0.6c-0.6,0.4-0.1,0.7,0.2,1c0.9,1.2,2.1,2.2,2.9,3.5c0,0.2-0.1,0.4,0,0.6
				c0.3,2.5-0.5,3.2-2.9,2.8s-4.3-1.6-6-3.4c-0.4-0.4-0.8-1-1.5-0.8c-0.2-0.2-0.4-0.4-0.6-0.5c0-0.7-0.3-1.1-1.1-0.8
				c-0.7,0.2-0.3,0.6-0.1,0.9c0.5,0.8,1.1,1.6,1.6,2.4c-0.4,1.1-0.6,2.5-2.3,2C267.6,188.8,265.5,187.7,263.7,186.1z"/>
			<path class="st8" d="M230.5,133.4c0.4,3.1,1.7,5.7,4.5,7.2c0,0.8,0.4,0.5,0.8,0.4c1.7,0.3,3.3,0.7,5,0.5c0,0.4-0.1,0.7-0.3,1.1
				c-0.8,1.3-0.7,1.7,0.6,2.6c0.2,0.1,0.3,0.4,0.3,0.6c-3.9,0.4-7.8-0.2-11.6-1.2c-8.6-2.3-17-5.6-25.7-8.1c0.6-0.8,1.2-1.2,2.1-1.3
				c1.2-0.1,2.4-0.6,3.4-1.3c1.4-0.2,2.3-1.1,3.1-2.3c-1.6,0.2-3.2,0.5-4.7,0.9c-0.5,0.1-1.1,0.4-1.6,0c1.8-1.1,3.3-2.4,4.2-4.4
				c1.8,0,3.6,0.2,5.4-0.6c0.8-0.4,1.4-1,2.2-1.1c0.4,3.4,1.8,6.2,5.1,7.5c0.2,0.8,0.9,0.9,1.5,1.2
				C227,135.6,228.8,134.5,230.5,133.4z"/>
			<path class="st9" d="M186.5,137.7c-1.6-2.6-3.2-5.2-4.9-7.7c-0.5-0.7-0.7-1.7-1.6-2.1c-0.5-1-1.4-1.7-1.8-2.8
				c-1.2-3-2.5-5.9-3.6-9c2.5-0.2,4.1-2.4,6.4-3.1c0.7-0.2,1.3-0.7,1.8,0.2c0,0.1,0.1,0.2,0.2,0.2c2.4,0.4,2.7,2.1,2.8,4.2
				c0.3,3.8,1.9,7.1,4,10.2c1.6,2.4,3.4,4.6,4.5,7.3c0.5,1.2,0.8,2.1-0.5,3.2c-1.4,1.1-2.3,2.9-3.4,4.4c-0.3,0.4-0.7,0.8-1,1.2
				c-0.9-1.1-0.9-2.5-1.5-3.7C187.4,139.3,187.2,138.4,186.5,137.7z"/>
			<path class="st4" d="M265.2,112.9c-0.4-0.1-0.8-0.2-1.3-0.3c0.5,0.8,1.3,0.9,1.8,1.5c0.1,0.4,0.2,0.7,0.3,1.1
				c0.6,2.3,0.2,3-2.1,3.6c-2.4,0.6-4.7-0.2-7-1c-0.4-0.1-0.9-0.9-1.3,0c-1.4,0.7-0.1,1.3,0.1,2c-0.3,0.1-0.3,0.4-0.3,0.7
				c0.4,2.9-0.2,3.8-3.1,4.2c-2.1-1.7-4.3-3.3-5.9-5.5c-0.5-0.7-0.7-1.1,0.3-1.6c3-1.7,5.1-4.3,7-7.1c2.4-0.6,4.1-2.2,5.4-4.3
				c0.6,0.4,0.9-0.1,1.1-0.5c1.1-1.3,2.1-2.5,3.2-3.8c2.2,3.1,5.1,4.7,8.9,4.6c0.7,3.5-1.3,6.1-4.8,6.4
				C266.7,112.9,265.9,112.4,265.2,112.9z"/>
			<path class="st3" d="M174.5,116.1c1.1,3.1,2.3,6,3.6,9c0.5,1.1,1.3,1.8,1.8,2.8c-2.2,0.1-4.3-0.4-6.5-1.3c-1.4-0.5-3.1-0.1-4.7,0
				c0.8,0.6,1.7,0.3,2.6,0.3c0.8,0.1,2,0,2,0.7c0,0.8-1.2,0.4-1.8,0.5c-1.5,0.2-3.1,0.4-4.5-0.7c-0.7-0.5-1.6-0.2-2.5-0.2
				c-0.7,0-1.3-0.1-1-1.1c0.2-0.6-0.2-0.9-0.8-1c-1.4-0.2-2.7-0.4-4-1c-0.5-0.2-0.7,0.2-0.9,0.5c-0.4,0.4-0.8,1-1.5,0.8
				c0.1-4,0.5-8,1.4-11.9c0.5,0,1-0.1,1.5,0.2c0.3,0.3,0.5,0.2,0.5-0.2c0.2,0,0.4,0,0.6,0l0,0c-0.2,1.2,0.4,1.7,1.5,1.7
				c1,0,2,0.3,3,0.5c0.6,0.1,1.5,0.9,1.9-0.5c0.1-0.5,1-0.2,1.6-0.2c0,0.4,0.2,0.5,0.5,0.5c1.1,0.1,2.3,0.5,3.4,0.3
				C173.1,116,173.8,116.1,174.5,116.1z"/>
			<path class="st10" d="M234.7,25.9c0.1,1.2,0,2.4,0.3,3.6c0.5,1.8-0.9,3.3-1.1,5.1c-4,1.1-7.5,3-9.8,6.7c-0.3-0.5-0.5-0.8-1.3-0.5
				c-2.5,0.8-5.2,2.3-7.3-0.7c0-0.1-0.2-0.1-0.2-0.1c2.5-3.1,5.6-5.3,9.2-6.9c0.9-0.4,1.9-0.9,2.8-1.4c0.3-0.2,0.6-0.4,0.5-0.8
				s-0.5-0.4-0.8-0.4c-0.8,0-1.6,0-2.4,0.2c-3.7,0.8-6.7,2.8-9.5,5.3c-0.2-0.2-0.4-0.4-0.6-0.6c2.9-3.6,6.8-5.6,11.1-7.3
				c-0.8-0.4-1.3-0.2-1.8,0c-4.4,1.2-8,3.6-11,6.9c-0.3,0.3-0.5,0.5-0.8,0.8c-1.5-0.9-1.7-2.4-1.8-3.9c0.3-1,1-1.7,1.8-2.2
				c-0.1,0.3-0.1,0.6-0.2,1c-0.1,0.6-0.4,1.3,0.3,1.7c0.7,0.4,1.1-0.1,1.5-0.6c0.8-0.9,1.7-1.6,2.7-2.1
				C222.1,26.7,228.2,25.2,234.7,25.9z"/>
			<path class="st4" d="M207.2,123c0.6-1.3,1.7-2,2.9-2.7c4.9-2.7,7.2-7.1,7.8-12.6c1.3,0.4,2,1.8,3.3,2.1c0.1,0.7,1.3,0.6,1.3,1.5
				c-0.9,0-0.6,0.7-0.5,1.1c0.4,2.3,1.6,4,3.4,5.3c1.9,1.4,4,2.2,6.3,2.7c0.8,0.2,1.2,0.5,1.2,1.4c-0.1,1,0,2-0.3,3
				c-0.8-0.1-0.6-0.8-0.8-1.3c-0.1-0.4,0-1.1-0.6-1.2c-0.7-0.1-0.7,0.6-1,1c-0.8,1.6-1.5,3.2-2.8,4.4c-1.6,1.5-3.3,1.5-4.8,0
				c-1-1-1.3-2.3-2-3.5c-0.2-0.3-0.1-0.9-0.7-0.9c0-1.2,0-2.4,0.1-3.5c-0.3-1.6-0.9-0.3-1.2,0C215.4,123.1,211.6,124,207.2,123z"/>
			<path class="st11" d="M225.1,42.8c0.8,6.2,7.5,7.7,12.4,4.3c2.6-1.8,4.8-4.2,7.3-6.1c2.1-1.6,4.3-3.1,7.1-2.9
				c0.3,0,0.9-0.2,1,0.3s-0.4,0.5-0.7,0.7c-0.9,0.4-1.7,0.8-2.6,1.2c-0.2,0.1-0.6,0.2-0.6,0.5c0,0.4,0.3,0.5,0.5,0.6
				c1.7,1.1,3.9,0.6,5-1.1c0.6-0.9,0.8-2,1.3-3c0.9,1.4,1,3,1.3,4.6c0.5,2.6,0.9,5.2,0.6,8.2c-1.3-1-2.2-2-3.4-2.8
				c-2.4-1.6-5-2.6-7.9-2.7c-1.2-0.1-1-0.4-0.5-1.1c0.4-0.7,1.3-1.1,1.5-2c0.1-0.1,0.2-0.2,0.2-0.3c0.1,0,0.2-0.1,0.4-0.1
				c0-0.1-0.1-0.1-0.1-0.2c-0.1,0.1-0.2,0.1-0.3,0.2c-0.1,0.1-0.2,0.2-0.3,0.2c-2.5,1.5-4.1,4-5.8,6.3c-1.9,2.5-3.8,4.8-6.6,6.4
				c-3.4,1.9-7,1.4-9.5-1.6c-1.6-1.9-1.6-4.2-1.3-6.4C224.2,44.9,224.5,43.8,225.1,42.8z"/>
			<path class="st3" d="M241.5,145.6c0-0.2-0.1-0.5-0.3-0.6c-1.4-0.9-1.5-1.3-0.6-2.6c0.2-0.3,0.4-0.7,0.3-1.1
				c1.1-0.3,2-0.7,2.6-1.8c0.3-0.6,0.8-0.3,1.3-0.3c3.9-0.1,7.2-1.4,9.4-4.8c0.9-1.5,1.7-3,2.8-4.3c1.8-2.1,1.9-4.6,1.2-7.2
				c-0.2-0.6-0.4-1.2-0.7-2.1c1.2,0.5,2.2,0.9,3.3,1.4c-0.4,1-1.1,2-0.5,3.2c0.1,0.2,0.2,0.6,0.3,0.6c2.5,0.6,0.9,2.6,1.3,3.9
				c0.3,1-0.5,1.8-1.4,2.3c0.2-1.1,0.5-2.2,0.7-3.4c-0.6,0-0.7,0.5-0.7,0.8c-0.1,1.1-1.4,1.6-1.2,3c0.2,1.2-0.4,2.5-0.6,3.8
				s-0.3,2.6-0.4,3.9c-0.1,1.3-0.2,2.7-0.3,4c0,0.7-0.2,1.1-1,0.9c-4-1.1-7.9-0.5-11.9,0.2C243.8,145.6,242.7,145.7,241.5,145.6z
				 M259.4,129.4c0.1,0,0.2,0.1,0.2,0.1c0.1,0,0.1-0.1,0.1-0.2c-0.1,0-0.2-0.1-0.2-0.1C259.4,129.2,259.4,129.3,259.4,129.4z"/>
			<path class="st9" d="M232.1,171.1c0.2,0.2,0.4,0.4,0.6,0.6c1.6,1.7,3.6,2.9,5.5,4.2c2.2,1.4,4.4,2.7,6.6,4c0.4,0.3,1,0.4,1.4,0.5
				c2.2,1.7,4.8,2.2,7.3,3.1c1.8,0.7,3.7,0.8,5.6,1.1c0.5,1.2,1.7,1.8,2.4,3.1c-3.3,0.3-6.4,0-9.3-1c-10.1-3.4-19.7-7.8-27.3-15.9
				c-0.6-0.7-1.8-1.2-2-2s1.1-1.1,1.7-1.8c0.7-0.8,1-1.8,1.6-2.7c0.5,0,0.6,0.4,0.8,0.7c1,1.6,2.1,3.1,3.4,4.5
				C231,170.1,231.6,170.6,232.1,171.1z"/>
			<path class="st9" d="M222.4,111.2c0-0.9-1.1-0.8-1.3-1.5c0-0.7-0.5-1-0.9-1.4c-2.4-2.5-4.5-5.3-6.1-8.4c-0.5-0.9-0.3-1.5,0.5-2.1
				c1.7-1.3,3.7-2.1,5.8-2.5c1.9-0.3,3.7-0.4,5.6-0.4c0.5,0,1,0.1,1.4,0.5c-3.1,3.2-3,9.5,0.3,12.4c1,0.9,2.1,1.6,3.1,2.4
				c-1.3,1.6-3,2.1-4.9,2.2C224.7,112.2,223.8,111,222.4,111.2L222.4,111.2z"/>
			<path class="st12" d="M226.2,114.8c0.8,1.1,2,1.1,3.2,1.2c0.6,0.1,1.1,0.1,1.7,0.1c0.2,0.6,0.7,0.4,1.1,0.4c1.5,0.1,3,0,4.5-0.3
				c2.4-0.5,4.8-0.8,6.8-2.4c0.3-0.5,0.9-0.4,1.2-0.8c0.2,0,0.5-0.1,0.5-0.3c0.2-0.2,0.4-0.4,0.6-0.5c0.2,0,0.5,0,0.6-0.3l0,0
				c0.1-0.1,0.2-0.2,0.3-0.3l0,0c0.2,0,0.5,0,0.5-0.3l0,0c0.1,0,0.3-0.1,0.4-0.2c5.5-4.6,6.7-12.2,4.2-18.5
				c-0.4-1.9-0.7-3.8-1.3-5.6c-0.2-0.6,0-0.9,0.5-1.1c0.3-0.1,0.6-0.2,0.9-0.4c1.1-0.8,1.5-0.3,1.7,0.9c0.4,2.1,0.9,4.2,1.1,6.4
				c0.5,4.6,0.6,9.2-0.9,13.7c-2.5,7.3-9.2,12.4-16.8,12.8c-3.8,0.2-7.4-0.1-10.7-2.4c-1.4-1-2.5-2.2-3.4-3.8
				c0.5-0.1,0.8,0.1,1.2,0.3c0.2,1,1.2,0.8,1.8,1.2C225.9,114.8,226,114.9,226.2,114.8L226.2,114.8z"/>
			<path class="st12" d="M210.5,101.3c0.7-0.7,0.1-1.5,0.3-2.3c0.8-3.7,3.2-6.1,6.3-7.9c2.9-1.7,6.2-2.4,9.6-2.6
				c2.2-0.1,4.5,0.2,6.7-0.3c2.4-0.5,2.6-0.6,2.2-2.9c2.1,2.2,4.9,2.5,7.9,2.6c-1.3,1.4-2.7,2.2-4.2,2.9c-4.2,2.2-8.8,2.7-13.4,2.8
				c-3,0.1-6,0.2-8.9,1.2c-3.7,1.4-5.2,3.5-5.3,7.7C211.1,102.2,210.7,101.9,210.5,101.3z"/>
			<path class="st9" d="M197.8,169.6c2.9-1.8,5-4.3,6.7-7.2c1.3-2.3,2.1-4.8,2.3-7.5c0-0.4,0.2-0.8,0.4-1.3c0.4,1.6,1.5,3.1,1,5
				c-0.2-0.6-0.3-1.2-0.5-1.7c-0.1,2.3-0.5,4.6-0.7,6.9c-0.1,0.8-0.2,1.6-0.7,2.3c-5.4,7-12,12-20.5,14.1c-1.5,0.4-3.1,0.3-4.6-0.3
				c-1.7-0.7-2-1.9-0.9-3.4c0.6-0.7,1.1-1.4,1.9-1.9c0.7,1.3,2.4,1.8,4.3,1.2c2.3-0.7,4.5-1.7,6.5-3
				C194.7,171.8,196.5,171.2,197.8,169.6z"/>
			<path class="st3" d="M258.7,76.1c0.1-1,0-2.1,1.2-2.7c0.1-0.1,0.3-0.3,0.2-0.5c-0.2-1.4,0.8-2.3,1.5-3.3c1.5,0.7,2.8,1.7,3.9,3
				c0.1,0.3-0.1,0.7,0.5,0.5c0.1,0,0.1,0.1,0.1,0.1c-0.3,0.3-0.2,0.6,0,0.9c0.8,1.8,0.9,3.7,1.1,5.6c-0.2,0-0.4,0.1-0.4,0.3
				c0,0.2,0.2,0.3,0.4,0.3c-0.2,1.2-0.3,2.3-0.5,3.5c-0.8,0.3-1.7,0.2-2.2,1c-0.7,1-1.1,2.3-2.7,2.4c-0.2,0-0.3,0.6-0.5,1
				c-0.3,0.9-0.6,1.8-0.9,2.7c-0.1,0.3-0.3,0.6-0.7,0.6c-0.4,0-0.3-0.4-0.3-0.7c-0.1-0.8-0.5-0.6-0.8-0.1c-0.2,0.5-0.4,0.7-0.9,0.6
				c-0.6-0.1-0.9-0.4-0.9-1.1c1.2-1.9,1.5-4.1,1.6-6.2c0.1-1.5,0.4-3-0.3-4.5c0.1-0.4,0.1-0.7,0.2-1.1
				C258.4,77.7,258.6,76.9,258.7,76.1z"/>
			<path class="st9" d="M222.2,160c0,1,0.1,1.9,0.1,2.9c-0.1,0.5-0.3,0.9-0.3,1.4c-1.4,7.4-5.7,12.7-11.7,16.8
				c-2.1,1.4-4.4,2.1-6.9,2c-2-0.1-2.7-1.1-2.1-3c0.3-1,0.7-2,1.5-2.7c1.4,1.2,2.8,1.1,4.3,0.4c5.9-2.6,9.6-7.3,12.4-13
				c0.5-1,1-2.1,0.9-3.3c0-0.2,0-0.4,0.1-0.5c0.3-0.2,0.2-0.6,0.2-0.9c0.3-0.2,0.2-0.6,0.3-0.9c0.3-0.4,0.5-0.4,0.7,0
				C221.8,159.5,222.3,159.6,222.2,160z"/>
			<path class="st6" d="M220.3,161.5c0.1,1.2-0.4,2.3-0.9,3.3c-2.7,5.7-6.4,10.5-12.4,13c-1.5,0.7-3,0.7-4.3-0.4
				c0.4-1.1,1.2-2,1.9-2.9c1.6-2.2,2.8-4.7,3.3-7.5c2.5,0.6,4.5-0.9,6.6-1.9c1.4-0.7,2.7-1.7,4.4-1.6c0.5,0,0.5-0.2,0.4-0.6
				C219.1,162,219.6,161.6,220.3,161.5z"/>
			<path class="st11" d="M222.4,46.8c0.1,1.9,0.2,3.8,1.2,5.6c0.3,0.5,0,0.8-0.4,1c-3,1.9-6.1,3.1-9.7,2.4c-4.1-0.7-6.8-5.6-5.6-9.6
				c0.3,0.2,0.7,0.3,1,0.5c2,1.7,4.3,2.1,6.8,2.1C218.2,48.9,220.4,47.9,222.4,46.8z"/>
			<path class="st3" d="M249.9,63c1.8,2.9,1.8,6.1,1,9.3c-0.2,0.7-0.5,0.8-1.1,0.7c-4.7-0.2-9,0.9-12.6,4.1
				c-0.6,0.6-0.9,0.1-1.2-0.2c-2-2.4-3.1-5.1-3-8.3c2,0.2,3.6,1.3,5.3,2.2c0.9,0.5,1.5,0.5,2.2-0.2c0.1,0.3,0.2,0.5,0.4,0.8
				c0.4,0.8,0.8,1.7,1.9,1.7c1.1,0,1.6-0.9,2-1.8c0.5-1,0.5-2.1,0.6-3.2c1.4-1,2.7-2.3,3.1-3.9C248.7,62.9,249.1,62.9,249.9,63z"/>
			<path class="st7" d="M222.4,46.8c-2.1,1.1-4.2,2.1-6.6,2.1c-2.5,0-4.8-0.5-6.8-2.1c-0.3-0.2-0.7-0.3-1-0.5c0-0.3,0-0.5,0-0.8
				c0.1-0.1,0.1-0.2,0.2-0.4c1.1-3.9,3.5-7,6.2-9.8c0.2,0.2,0.4,0.4,0.6,0.6c-2,2-3.7,4.2-4.6,7c-0.3,1-0.5,2.1,0.6,2.5
				c1.1,0.5,1.3-0.8,1.7-1.4c0.8-1.3,1.2-2.9,2.5-3.9c0.1,0,0.2,0.1,0.2,0.1c2.2,3,4.8,1.6,7.3,0.7c0.8-0.3,1,0,1.3,0.5
				C223.3,43,222.6,44.8,222.4,46.8z"/>
			<path class="st1" d="M256.7,90.3c-0.1,0.7,0.3,1,0.9,1.1c0.5,0.1,0.7-0.1,0.9-0.6c0.2-0.5,0.6-0.7,0.8,0.1c0,0.3-0.1,0.7,0.3,0.7
				s0.6-0.3,0.7-0.6c0.3-0.9,0.6-1.8,0.9-2.7c0.1-0.4,0.3-1,0.5-1c1.6-0.1,2-1.4,2.7-2.4c0.5-0.8,1.5-0.8,2.2-1c0,0.3,0,0.6-0.1,0.8
				c-1.7,6.6-4.5,12.7-8.2,18.4c-0.7,1.1-1.3,2.5-2.9,2.8c1.3-4.4,1-8.9,0.6-13.3c-0.1-0.7-0.1-1.3-0.1-2
				C256.2,90.5,256.5,90.4,256.7,90.3z"/>
			<path class="st11" d="M250.6,125.5c3,1.4,4.2,5.2,2.7,7.8c-1.7,3.2-6.2,5.3-9.6,4.4c-2.5-0.6-4.3-2.8-4.8-5.6
				c-0.4-2.2-0.2-4.4-0.2-6.6c0.6,0.4,0.6,1,0.8,1.6c0.4,1,0.3,2.2,1.1,3.1c0,0.3,0,0.7,0.3,0.9c1.3,1.7,3.1,2.3,5.1,1.9
				c1.9-0.4,3.5-1.3,4.4-3.2C251.1,128.4,250.5,127,250.6,125.5z"/>
			<path class="st9" d="M255.4,105.9c1.6-0.2,2.2-1.7,2.9-2.8c3.7-5.6,6.5-11.8,8.2-18.4c0.1-0.3,0.1-0.6,0.1-0.8
				c0.2-1.2,0.3-2.3,0.5-3.5c0-0.2,0-0.4,0-0.6c-0.2-1.9-0.3-3.8-1.1-5.6c-0.1-0.3-0.3-0.6,0-0.9c1.9,1.8,2.6,4.2,2.8,6.7
				c0.5,6.5-1.7,12.2-4.7,17.6c-1.6,2.9-3.4,5.7-5.1,8.6c-1.3,2.1-3,3.6-5.4,4.3C254.2,109,254.8,107.4,255.4,105.9z"/>
			<path class="st11" d="M236.4,109.7c0.1,0,0.2,0,0.3,0c-0.3,1,0.1,1.3,1,1.1c0.4-0.1,0.8-0.2,1.1-0.4c2.7-2,5-4.4,6.2-7.6
				c1-2.6,0.9-5.3,1.3-7.9c1.2-0.6,2.2-0.3,3.2,0.5s0.7,1.7,0.5,2.6c-0.3,1.3-0.6,2.6-1.2,3.8c-0.2-1.6-0.6-3.1-1.1-4.8
				c-0.4,1.1,0,1.9,0.1,2.8c0.3,3.2-0.4,6-2.5,8.5c-2.8,3.4-7.3,6.1-11.5,6.3c0.5-2.5,0-5.1,0.3-7.6c0.6,0.7,0.6,1.6,0.9,2.3
				C235.2,110.3,235.7,110.5,236.4,109.7z"/>
			<path class="st8" d="M181.9,81.9c-0.2-2.4-1.5-4-3.2-5.4c-0.7-0.6-1.3-1.2-1.6-2.1c3.2-1.2,6.5-2.2,10-1.8
				c0.7,0.1,1.3,0.2,1.8,0.6c1.3,3.1,1.2,4.2-1.1,5.8C186,80.3,184,81.2,181.9,81.9z"/>
			<path class="st1" d="M230.8,110.3c-1-0.8-2.1-1.6-3.1-2.4c-3.3-2.9-3.4-9.2-0.3-12.4c4,2.4,6.2,9,4.4,13.3
				C231.6,109.4,231.3,109.9,230.8,110.3z"/>
			<path class="st13" d="M234.1,62.2c1.5-4.1,5-6.1,8.8-4.9c0,0.5,0.1,1,0.7,1.1c0.5,0.1,0.7-0.1,0.8-0.6c0.2,0.1,0.4,0.2,0.6,0.3
				c0,1.2,0,2.5,0,3.7c0,0.9-0.2,1.5-1.1,1.7c-1.3-0.7-2.1-0.1-2.7,1c-0.2,0.5-0.4,0.9-0.6,1.4c-2.5,0.4-3.2,0.5-4.6-2.3
				C235.4,63,235,62.3,234.1,62.2z"/>
			<path class="st9" d="M258.7,76.1c-0.1,0.8-0.3,1.6-0.4,2.4c-0.6,0.3-0.9,0.8-1.3,1.3c-4.4,4.7-9.8,6.9-16.2,6.5
				c-0.7,0-1.5-0.3-2.2-0.5c-3.4-1.3-3.9-4.9-1.1-7.4c0.1,1-0.7,2,0.4,3c1.3,1.2,2.5,2.1,4.3,2.1c5,0.1,9.4-1.2,13.3-4.5
				C256.5,78,257.2,76.5,258.7,76.1z"/>
			<path class="st9" d="M184.7,161.7c2.8-1.1,5.4-2.5,7.3-5c0.5-0.6,0.8-1.3,1.7-1.4c-0.7,2.4-2,4.5-3.1,6.7
				c-0.4,0.8-1.3,1.2-2.1,1.6c-4.8,2.3-9.8,3.5-15.1,2c-0.7-0.2-1.3-0.4-1.9-0.8c-1.5-0.9-1.5-1.8,0-2.9c0.3,1.5,1.2,2.1,2.6,2
				C177.8,164,181.3,163.2,184.7,161.7z"/>
			<path class="st9" d="M176.5,64.8c1.1,2.1,1.5,4.4,1.5,6.8c0,0.9-0.6,1-1.1,1.2c-4.9,1.8-9.5,4.1-13.7,7.3
				c-0.9,0.6-1.6,1.4-2.5,2.2c0-0.1-0.1-0.1-0.2-0.2c1-3.1,2.5-6,4-8.8c1,0.4,2,1.2,3.2,0.9c3.2-0.8,5.7-2.5,7.5-5.3
				c0.4-0.6,0.8-1.3,0.7-2.2C176.4,66,176,65.3,176.5,64.8z"/>
			<path class="st2" d="M221.3,62.7c1-2.6,2.6-4.7,4.6-6.6c0.5-0.4,0.9-0.6,1.5-0.3c0.4,0.2,0.9,0.5,1.3,0.5
				c1.8-0.1,1.9,1.1,1.9,2.4c0,1.4,0,2.8-0.3,4.2c-1.3-1.1-2.2-0.7-3,1.4c-0.3,0.7-0.4,1.5-0.5,2.3c-1.6-0.2-2.9-0.8-3.9-2.2
				C222.6,63.7,222.2,62.9,221.3,62.7z"/>
			<path class="st9" d="M168.3,111.4c-0.2-0.1-0.5-0.3-0.7-0.4c-0.5-0.4-1-0.8-0.7-1.4c0.2-0.5,0.8,0,1.3,0.1
				c5.7,1.3,10.9,0.1,15.9-2.8c1.7-1,3.4-1.7,5.1-2.8c0.3-0.2,0.6-0.5,1-0.2c0.4,0.4,0.1,0.8,0,1.2c-0.2,1-1.2,1.2-1.7,1.8
				c-0.6-0.1-0.8,0.4-1.2,0.7c-2.2,1.8-4.6,3.5-7.3,4.5C176,113.5,172.1,113.6,168.3,111.4z"/>
			<path class="st3" d="M197.8,169.6c-1.2,1.6-3.1,2.2-4.8,3.2c-2.1,1.2-4.2,2.3-6.5,3c-1.9,0.5-3.6,0-4.3-1.2
				c2.1-1.9,4.5-3.4,6.3-5.7c0.5-0.6,0.7-1.4,1.3-1.9C192.1,169.2,195,169.1,197.8,169.6z"/>
			<path class="st3" d="M176.5,64.8c-0.5,0.5-0.1,1.2-0.5,1.7c-0.5-0.1-0.9-0.1-1.4,0.1c-0.9,0.4-1.6,1-2.4,1.6
				c-1.8,1.2-3.8,1.4-5.9,1.2c0.2-0.8,0.5-1.5,0.7-2.3c0.1,0,0.2,0,0.3,0c0.4,0.2,0.1,0.9,0.7,1c0.2-1.5-0.3-2.8-0.5-4.2
				c1.9,0,3.4-0.9,4.5-2.5c0.5-0.7,1-1.4,1.9-1.6C175.1,61.3,176,62.9,176.5,64.8z"/>
			<path class="st9" d="M177.9,98.8c-0.3-1.6,0.5-2.7,1.7-3.6c2.3-1.7,4.9-2.8,7.8-2.9c2.2-0.1,4.5-0.2,6.3-1.7
				c0.5,1.6,0.5,3.2,0.5,4.8c0,0.5-0.1,0.8-0.8,0.6c-4.8-1.7-9.2-0.3-13.6,1.6c-0.6,0.3-1.4,0.3-1.7,1.1
				C178.1,98.7,178,98.7,177.9,98.8z"/>
			<path class="st7" d="M250.6,125.5c-0.1,1.5,0.5,2.9-0.2,4.4c-0.9,1.9-2.5,2.8-4.4,3.2c-2,0.4-3.8-0.2-5.1-1.9
				c-0.2-0.3-0.3-0.6-0.3-0.9c0.8-0.4,1.6,0.3,2.3,0c0.6,0.5,1.3,1,2.1,1.2c0.6,0.1,1.1-0.1,1.4-0.6c0.3-0.5-0.1-0.9-0.5-1.2
				c-0.5-0.4-1-0.8-1.5-1.3c1.3-1.8,1.5-3.7,1-5.8c1.2,0,1.9,1.2,3.1,1.2l0,0c0.1,0.1,0.2,0.2,0.3,0.3
				C249.6,124.2,250.2,124.8,250.6,125.5z"/>
			<path class="st9" d="M188.4,107.3c0.7,0.2,1.4,0.4,2.2,0.3c0.4,0,0.9-0.2,1.1,0.3c0.2,0.5-0.2,0.9-0.5,1.2
				c-0.3,0.3-0.8,0.3-1,0.9c2.4-0.2,4.1-1.6,5.5-3.4c0.3-0.4,0.5-1.1,1.1-1.2c-0.2,4-3.2,7.6-6.9,8.2c-2.2,0.4-4.2-0.7-6.2-1.5
				c-0.6-0.2-0.5-0.6,0-0.9c0.8-0.5,1.5-1.1,2.3-1.7c0.5-0.4,0.8-0.8,1.3-0.1c0.1,0.2,0.4,0.5,0.7,0.2s0-0.5-0.2-0.7
				C186.8,108.2,187.9,107.9,188.4,107.3z"/>
			<path class="st10" d="M245.4,122.4c0.5,2.1,0.4,4.1-1,5.8c-1.1-0.4-1.6-1.7-2.7-2.4c-0.2,1.7,0.4,3,1.1,4.3
				c-0.8,0.3-1.6-0.4-2.3,0c-0.8-0.9-0.7-2-1.1-3.1c-0.2-0.6-0.3-1.2-0.8-1.6c-0.9,0.2-0.4,1-0.6,1.5c-0.9-0.3-1.1-1.1-1.5-1.8
				c-0.3-0.6,0.4-1,0.7-1.4c0.3-0.3,0-0.6-0.1-0.9C239.9,121.4,242.6,121,245.4,122.4z"/>
			<path class="st9" d="M219.7,123.3c0.6,0,0.6,0.5,0.7,0.9c0.6,1.2,1,2.5,2,3.5c1.6,1.5,3.2,1.5,4.8,0c1.3-1.2,2-2.8,2.8-4.4
				c0.2-0.4,0.2-1.2,1-1c0.6,0.1,0.4,0.7,0.6,1.2c0.2,0.5,0,1.2,0.8,1.3c-0.1,0.9-0.2,1.8-0.8,2.6c-0.3-0.1-0.4-0.3-0.3-0.5
				c0.1-0.4,0.3-0.9-0.3-1c-0.5-0.1-0.6,0.3-0.8,0.7c-0.5,1.4-1.2,2.6-2,3.8c-2.4,3-5.8,2.7-7.6-0.6
				C219.5,127.7,219.3,125.5,219.7,123.3z"/>
			<path class="st9" d="M272.2,185.5c0.7-0.2,1.1,0.4,1.5,0.8c1.7,1.7,3.6,2.9,6,3.4c2.4,0.4,3.2-0.3,2.9-2.8c0-0.2,0-0.4,0-0.6
				c1.2,1.2,2,2.6,2.4,4.3c0.4,1.9-0.5,3.4-2.4,3.6c-2.9,0.4-5.3-0.9-7.4-2.9c-0.1-0.1-0.3-0.3-0.3-0.5
				C274.9,188.6,273.5,187.1,272.2,185.5z"/>
			<path class="st14" d="M234.7,25.9c-6.5-0.7-12.6,0.8-18.5,3.5c-1,0.5-1.9,1.2-2.7,2.1c-0.4,0.5-0.8,1-1.5,0.6
				c-0.7-0.4-0.5-1.1-0.3-1.7c0.1-0.3,0.1-0.6,0.2-1l0,0c0.4,0,0.6-0.2,0.6-0.5l0,0c0.3,0,0.5-0.1,0.5-0.4c0.1-0.1,0.2-0.1,0.3-0.2
				c0.6-0.1,1.2-0.4,1.5-0.9l0,0c0.2,0,0.4-0.1,0.4-0.3l0,0c0.3,0,0.5,0,0.6-0.3l0,0c0.6,0.1,1.2-0.2,1.8-0.4
				c3.8-1.4,7.8-2,11.8-2.3c2.8,0,5.4,0.6,8.2,1.3c-0.4,0.7-1,0.4-1.4,0.5c-0.2-0.3-0.4-0.3-0.6-0.1C235.2,25.9,235,25.9,234.7,25.9
				z"/>
			<path class="st8" d="M173.8,59.8c-0.9,0.3-1.3,0.9-1.9,1.6c-1.1,1.5-2.6,2.4-4.5,2.5c-0.7-1.5-1.4-2.9-2.4-4.2
				c-0.6-0.9-1.1-1.9-0.5-2.9c0.6-1.2,1.8-1.1,2.9-0.9C170.2,56.2,172.1,57.8,173.8,59.8z"/>
			<path class="st9" d="M181.9,81.9c2.1-0.7,4.1-1.6,5.9-2.9c2.3-1.6,2.4-2.7,1.1-5.8c2.3,0.7,3.8,3.9,3.3,6.9
				c0,0.2-0.1,0.4-0.1,0.6c-0.5,2.1-0.5,2.1-2.5,1.6c-1.4-0.4-2.9-0.4-4.3,0c-3.7,1-6.8,2.9-9.3,5.8c-0.2,0.3-0.1,0.8-0.5,1.1
				c-0.7-1.9,1.4-4.5,5.1-6.3c0.1-0.1,0.2-0.2,0.3-0.2C181.2,82.4,181.6,82.3,181.9,81.9z"/>
			<path class="st6" d="M184.7,161.7c-3.4,1.4-7,2.2-10.6,2.3c-1.4,0-2.3-0.5-2.6-2c0.4-0.3,0.8-0.6,1.3-0.8c3-0.9,5.6-2.5,8-4.5
				c-0.1,1.1,0.2,2.2,0.3,3.2c0.1,0.9,1.9,1.9,2.9,1.5C184.4,161.3,184.6,161.1,184.7,161.7z"/>
			<path class="st4" d="M166.2,69.4c2.1,0.2,4.1,0,5.9-1.2c0.8-0.5,1.5-1.2,2.4-1.6c0.5-0.2,0.9-0.2,1.4-0.1
				c0.1,0.8-0.3,1.5-0.7,2.2c-1.8,2.8-4.3,4.6-7.5,5.3c-1.2,0.3-2.1-0.5-3.2-0.9C165.2,71.9,165.7,70.7,166.2,69.4z"/>
			<path class="st7" d="M246.3,94.9c-0.4,2.7-0.3,5.4-1.3,7.9c-1.3,3.3-3.5,5.6-6.2,7.6c-0.3,0.2-0.7,0.3-1.1,0.4
				c-0.9,0.2-1.3-0.1-1-1.1c1.1-1,1.3-2.5,1.8-3.8c0.2-0.5,0.3-1,0.5-1.5c0.5,0,0.6,0.7,1.2,0.6c0,0.4-0.2,0.8,0.1,1.2
				c2-1.8,3-4.2,4.3-6.5c0.5-0.8,1.5-1.9,0.7-2.6s-1.7,0.5-2.5,1c-0.3-0.1-0.6-0.2-0.9-0.3C242.9,96.3,244.3,95.2,246.3,94.9z"/>
			<path class="st11" d="M239,136c1,0.8,1.7,1.9,2.8,2.6c1,0.6,0,0.9-0.4,1.1c-2.5,1.1-6.6-0.1-8.3-2.7c-1.4-2.2-1.7-4.6-0.6-7.1
				c0.5,0.2,0.5,0.8,0.6,1.2C233.8,134,236.3,136,239,136z"/>
			<path class="st7" d="M239,136c-2.7,0-5.2-2-5.9-4.8c-0.1-0.5,0-1-0.6-1.2c0.2-1.7,0.9-3.2,1.2-4.9c1.2-0.6,2.1-1.9,3.6-2.1
				c0.1,0.3,0.4,0.6,0.1,0.9c-0.4,0.4-1.1,0.7-0.7,1.4c0.4,0.7,0.6,1.5,1.5,1.8c-0.3,1.6-0.3,3.3-0.3,4.9c-1.1-1.1-1.8-2.5-2.5-3.9
				c-0.4,1.5-0.5,2.9,0.1,4.2c0.5,1.2,1.1,2.4,2.8,2C238.6,134.7,238.8,135.4,239,136z"/>
			<path class="st2" d="M234.1,62.2c0.9,0.1,1.3,0.8,1.7,1.5c1.4,2.8,2.1,2.6,4.6,2.3c-0.1,0.6-0.2,1.2-0.1,1.7c0.1,1-0.5,2,0.3,2.9
				c-0.7,0.7-1.3,0.6-2.2,0.2c-1.7-0.9-3.3-2-5.3-2.2C232.8,66.3,233.1,64.2,234.1,62.2z"/>
			<path class="st9" d="M255.6,117.8c0.4-0.9,0.9-0.2,1.3,0c2.3,0.8,4.5,1.5,7,1c2.3-0.5,2.7-1.2,2.1-3.6c-0.1-0.4-0.2-0.7-0.3-1.1
				c1,0.4,1.9,1,2.6,1.9c1.5,1.9,1.2,3.7-1,4.6c-3.5,1.5-6.9,0.9-10-1.3C256.8,118.8,256.2,118.3,255.6,117.8z"/>
			<path class="st9" d="M183.4,167.1c1.9-0.7,3.8-1.2,5.8-2.4c-0.6,1.6-1.3,2.7-2.2,3.7c-2.6,2.7-5.4,5.2-9.3,5.9
				c-1.7,0.3-2-0.1-1.5-1.8C179.4,172.7,181.9,170.4,183.4,167.1z"/>
			<path class="st9" d="M263.7,186.1c1.8,1.6,3.8,2.7,6,3.4c1.6,0.5,1.8-1,2.3-2c0.7,0.7,1.2,1.6,1.6,2.5c0.6,1.6,0,2.4-1.6,2.5
				s-3-0.5-4.4-1.3c-3.1-1.8-5.5-4.4-8.1-6.7c0.5-0.7,0.8,0.1,1.3,0.2c0.5,0.1,0.8,0.6,1.3,0.7c0.4,0.3,0.8,0.6,1.1,0.8
				C263.4,186.1,263.6,186.1,263.7,186.1z"/>
			<path class="st4" d="M280.7,127.6c-0.5,0-1.3-0.2-0.9,0.9c0.1,0.3,0.2,0.7-0.2,0.8c-0.4,0.1-0.7-0.1-0.9-0.5
				c-0.1-0.3-0.2-0.7-0.2-1c0-0.7-0.1-1.1-0.9-1.5c-1.3-0.7-1.1-2.4-1-3.6c0.1-1.9-0.2-3.9,0.2-5.8c1.6,1.5,2.7,3.3,3.3,5.4
				c0.1,0.4,0,0.9,0.6,1C280.9,124.7,280.8,126.2,280.7,127.6z"/>
			<path class="st9" d="M280.7,123.3c-0.6,0-0.5-0.6-0.6-1c-0.6-2.1-1.7-3.9-3.3-5.4c-0.1-0.2-0.3-0.3-0.5-0.3
				c-0.2-0.4-0.5-0.7-0.9-0.8c-1.2-0.6-2.3-1.1-3.7-0.6c-0.3,0.1-0.6,0.1-0.9-0.3c1.4-0.9,2.9-1.7,4-3.1c0.6-0.8,1-0.1,1.4,0.2
				c2.8,2.4,4.1,5.7,4.5,9.3C280.8,121.9,280.7,122.6,280.7,123.3z"/>
			<path class="st11" d="M237.2,122.9c-1.5,0.2-2.3,1.5-3.6,2.1c0-1.3-0.5-3,0.1-3.9c0.7-1.1,2.4-0.3,3.7-0.4c2.1-0.2,4.1-0.6,6-1.5
				c0.7-0.3,1.2-0.3,1.6,0.5c0.9,1.6,2.5,2.5,3.5,3.9c-1.2,0-1.9-1.2-3.1-1.2C242.6,121,239.9,121.4,237.2,122.9z"/>
			<path class="st8" d="M221.3,62.7c0.9,0.2,1.2,1,1.7,1.6c1,1.4,2.3,2,3.9,2.2c-0.2,1.5-0.2,3-0.1,4.5c-0.8,0-1.2-0.6-1.8-0.9
				c-1.4-0.9-2.9-1.7-4.5-2.1c-0.7-0.2-0.9-0.4-0.7-1.2C220.3,65.5,220.6,64,221.3,62.7z"/>
			<path class="st8" d="M243.7,63.5c0.9-0.2,1.1-0.9,1.1-1.7c0-1.2,0-2.5,0-3.7c2.4,0.9,3.6,3,5,4.9c-0.8-0.1-1.2-0.1-1.5,1.1
				c-0.4,1.6-1.7,2.9-3.1,3.9C245.2,66.4,244.9,64.8,243.7,63.5z"/>
			<path class="st9" d="M255.9,50.3c-0.3,0.1-0.6,0-0.9-0.2c-3.9-2.7-8-2.5-12.1-0.8c-0.4,0.2-0.7,0.4-1.2,0.4
				c0.9-1.3,1.7-2.5,2.5-3.8c0.2-0.3,0.5-0.6,0.9-0.6C249.3,45.6,253.1,46.8,255.9,50.3z"/>
			<path class="st9" d="M256.7,90.3c-0.3,0.1-0.6,0.2-0.8,0.3c-0.5-2-1.1-4.1-1.6-6.1c-0.1-0.4,0.1-0.6,0.3-0.8
				c1.5-1.1,2.5-2.6,3.4-4.1c0.7,1.5,0.4,3,0.3,4.5C258.3,86.2,257.9,88.4,256.7,90.3z"/>
			<path class="st5" d="M251.7,92.6c2.4,6.3,1.2,14-4.2,18.5c-0.1,0.1-0.3,0.1-0.4,0.2c0-0.7,0.4-1,0.8-1.4c1.2-1.5,2.3-3,2.4-5
				c0-0.6,0-1.1-0.8-0.7C250.9,100.5,252,96.7,251.7,92.6z"/>
			<path class="st15" d="M249.4,104.2c0.8-0.5,0.9,0,0.8,0.7c-0.1,2-1.1,3.6-2.4,5c-0.4,0.4-0.8,0.8-0.8,1.4l0,0
				c-0.2,0-0.4,0.1-0.5,0.3l0,0c-0.1,0.1-0.2,0.2-0.3,0.3l0,0c-0.2,0-0.4,0.1-0.6,0.3c-0.2,0.2-0.4,0.4-0.6,0.5
				c-0.2,0-0.4,0.1-0.5,0.3c-0.3,0.4-0.9,0.3-1.2,0.8c-1,0.3-2,0.6-2.9,0.9c-0.4,0.1-0.9,0.5-1.2-0.2
				C243.9,112.4,247.1,108.8,249.4,104.2z"/>
			<path class="st9" d="M207.2,123c4.4,1,8.2,0.1,11.4-3.3c0.3-0.3,0.8-1.6,1.2,0c-1,1.3-2.2,2.5-3.5,3.5c-1.5,1.2-3.1,2.1-5,2.5
				c-1.4,0.2-2.6-0.1-3.7-1C207,124.3,206.8,123.7,207.2,123z"/>
			<path class="st4" d="M165.8,172.5c-0.1-0.9,0.4-1.5,0.9-2.2c0.9-1.1,1.9-2.1,1.8-3.7c0.6,0.4,1,0.7,1.5,0.9
				c0.3,0.1,0.5,0.6,0.8,0.2c0.3-0.3-0.1-0.6-0.3-0.8c-0.1-0.1-0.1-0.2-0.3-0.5c1.6,0.5,3.1,0.9,4.5,1.3
				C172.1,169.8,169.3,171.8,165.8,172.5z"/>
			<path class="st9" d="M279.7,181.8c-0.6-0.6,0-0.6,0.3-0.6c1.1-0.1,2.2,0.4,3.3,0.6c2.1,0.4,2.4,0.3,3.1-1.7
				c1.2,0.8,2,1.9,2.2,3.4c0.2,1.7-0.9,2.7-2.5,2.1c-1.9-0.7-3.4-2-4.9-3.3C280.7,181.9,280.3,181.5,279.7,181.8z"/>
			<path class="st9" d="M252.2,124.7c2.9-0.5,3.5-1.3,3.1-4.2c0-0.3,0-0.6,0.3-0.7c1.2,2.1,1.9,4.3,1.7,6.7c-0.2,1.4-0.8,2.6-2,3.8
				C255,127.9,253.7,126.2,252.2,124.7z"/>
			<path class="st4" d="M183.4,167.1c-1.6,3.3-4,5.6-7.2,5.3c0-1.1,0.8-2,0.6-3.2c0.2-0.5,0.7-0.8,0.6-1.4
				C179.4,167.8,181.4,167.5,183.4,167.1z"/>
			<path class="st9" d="M265.2,112.9c0.8-0.4,1.5,0.1,2.3,0c3.5-0.3,5.4-2.9,4.8-6.4c1-0.1,1.9,0.2,2.3,1.2c0.5,1,0.3,2-0.3,2.9
				c-1.5,2-3.4,3.3-5.9,3.7C267.2,114.4,266.2,113.6,265.2,112.9z"/>
			<path class="st9" d="M177.4,167.9c0.1,0.6-0.3,1-0.6,1.4c-0.7-0.3-1.1,0.2-1.5,0.6c-2.2,1.6-4.5,2.9-7.1,3.6
				c-0.9,0.2-2.1,0.7-2.4-1c3.5-0.6,6.3-2.7,9-4.9C175.7,167.7,176.5,167.8,177.4,167.9z"/>
			<path class="st1" d="M225.9,55c-3.7,3.1-5.9,7.1-6.9,11.7c-0.1,0.4,0.1,1-0.6,0.9c-0.7-0.1-0.3-0.7-0.2-1.1c0.7-4,2.4-7.6,4.4-11
				c0.4-0.7,1.2-1.2,1.9-1.5C225.2,53.7,225.3,54.8,225.9,55z"/>
			<path class="st5" d="M225.8,114.6c-0.6-0.4-1.5-0.2-1.8-1.2c3.3,0.3,6.3-0.2,8.3-3.2c0.4,0.3,0.2,0.6,0.2,0.9
				c0.4,4-0.2,4.1-4.2,4c-0.7,0-1.4-0.5-2.2-0.2l0,0C226.3,114.5,226,114.5,225.8,114.6z"/>
			<path class="st9" d="M222.6,163.2c1.6-0.8,3.3-3.8,2.9-5.5c-0.1-0.5-0.2-1.1,0.3-1.2c0.6-0.1,0.4,0.6,0.5,1
				c0.6,1.7,0.6,3.3-0.1,4.9c-0.5,0.9-1,1.9-1.5,2.8c-0.5,0.9-1.2,1.7-2.3,2.2C222.4,165.9,222.5,164.6,222.6,163.2z"/>
			<path class="st7" d="M236.4,109.7c-0.7,0.9-1.2,0.6-1.6-0.3c-0.3-0.8-0.4-1.7-0.9-2.3c-0.1-3.3,0.7-6.3,3.3-8.5
				c-0.9,3.1-1.2,6.2-0.3,9.4C236.8,108.5,236.6,109.1,236.4,109.7z M235.1,102.9c-0.6,1.4-0.5,2.6,0.1,3.7c0.1,0.2,0.3,0.4,0.6,0.3
				c0.4-0.1,0.4-0.4,0.4-0.7C236,105.2,235.8,104.1,235.1,102.9z"/>
			<path class="st11" d="M236.9,107.9c-0.9-3.2-0.6-6.3,0.3-9.4c0.9-1.1,2.1-1.5,3.7-1.9c-1.9,2.6-2.7,5.3-3.3,8.1
				C237.4,105.8,237.4,106.9,236.9,107.9z"/>
			<path class="st9" d="M264.9,146.9c0.6,1.1,1.7,1.7,2.6,2.5c1.5,1.5,2.2,3.4,2.7,5.4c0.2,0.8,0,1.5-0.7,2
				c-1.1-4.9-1.9-5.8-8.2-10.4c0.8,0,1.5,0,2.2,0c0.1,0.2,0.4,0.3,0.6,0.2v-0.1C264.2,147.1,264.6,147,264.9,146.9L264.9,146.9z"/>
			<path class="st11" d="M210.1,31.7c0.1,1.6,0.3,3.1,1.8,3.9c-0.8,1.1-1.6,2.2-2.4,3.3c-0.3,0.4-0.6,0.4-0.8-0.1
				c-0.4-0.7-0.5-1.5-0.4-2.4C208.3,34.7,208.8,33.1,210.1,31.7z"/>
			<path class="st9" d="M230.5,133.4c-1.7,1.1-3.4,2.3-5.6,1.5c-0.6-0.2-1.3-0.4-1.5-1.2c2.9,0.2,5.1-1,6.7-3.7
				C230.4,131.2,230.6,132.3,230.5,133.4z"/>
			<path class="st9" d="M218.3,126.2c-0.9,0.1-1.5,0.8-2.2,1.1c-1.7,0.8-3.5,0.6-5.4,0.6c0-0.4,0.1-0.7,0.5-0.8
				c2.7-0.3,4.8-1.9,7.1-3.8C218.3,124.4,218.3,125.3,218.3,126.2z"/>
			<path class="st9" d="M206.5,132.3c0.5,0.5,1,0.2,1.6,0c1.5-0.4,3.1-0.7,4.7-0.9c-0.8,1.1-1.7,2.1-3.1,2.3
				c0.2-0.8-0.2-0.6-0.7-0.4c-1.5,0.4-2.9,0.9-4.7,0.5C204.9,132.9,205.7,132.6,206.5,132.3z"/>
			<path class="st14" d="M238.2,134.2c-1.7,0.4-2.3-0.8-2.8-2c-0.6-1.4-0.5-2.8-0.1-4.2c0.6,1.5,1.3,2.8,2.5,3.9
				C237.9,132.7,238.1,133.4,238.2,134.2z"/>
			<path class="st10" d="M229.3,24.3c-4,0.3-8,0.8-11.8,2.3c-0.6,0.2-1.1,0.5-1.8,0.4c2.7-1.6,5.7-2.2,8.7-2.9
				c1.6-0.3,3.2-0.6,4.8-0.6C229.3,23.8,229.3,24,229.3,24.3z"/>
			<path class="st5" d="M239.3,114.6c0.3,0.7,0.8,0.3,1.2,0.2c1-0.3,2-0.6,2.9-0.9c-2,1.6-4.4,1.9-6.8,2.3c-1.5,0.3-3,0.3-4.5,0.3
				c-0.4,0-0.9,0.2-1.1-0.4C233.9,116,236.6,115.6,239.3,114.6z"/>
			<path class="st4" d="M279.3,149.3c-0.3,0-0.7-0.1-0.7-0.4c0-1.5-1.2-3-0.4-4.6c0.5-0.9-0.1-1.9,0.2-2.8c0.2-0.5,0.3-0.9,0.9-0.8
				C279.3,143.5,279.3,146.4,279.3,149.3z"/>
			<path class="st10" d="M241.8,97.8c0.3,0.1,0.6,0.2,0.9,0.3c-1.4,2.1-2.1,4.5-2.5,6.9c-0.5,0.1-0.7-0.6-1.2-0.6
				C239.5,102.1,240.1,99.7,241.8,97.8z"/>
			<path class="st4" d="M279.4,139.2c-0.9-0.1-0.9-0.9-0.9-1.5c0.1-1.9,0.4-3.8,0.3-5.8c0.6-0.1,0.9,0.5,1.4,0.4
				C279.9,134.6,279.6,136.9,279.4,139.2z"/>
			<path class="st9" d="M172.3,116c-1.2,0.2-2.3-0.2-3.4-0.3c-0.3,0-0.5-0.2-0.5-0.5c0.1,0,0.2,0,0.2,0c1.1,0,2.2,0.1,3.2-0.6
				c0.4-0.1,0.8,0.1,1.1-0.4c1.2,0,2.5,0,4.1,0c-1,0.9-2,1-3,1.3C173.4,115.7,172.8,115.5,172.3,116z"/>
			<path class="st5" d="M232.1,96.4c1,1.9,2.4,3.6,1,6.1c-0.5-1.9-1.2-3.5-2-5C231.4,97.1,231.8,96.8,232.1,96.4z"/>
			<path class="st12" d="M232.1,96.4c-0.3,0.4-0.7,0.7-1,1.1c-0.7-0.8-1.4-1.6-2.2-2.4C231,94.5,231.3,94.6,232.1,96.4z"/>
			<path class="st3" d="M171.8,114.6c-1,0.6-2.1,0.5-3.2,0.6c0.2-0.7-0.5-1.6,0.6-2.1c0,0.4,0.1,0.7,0.5,0.7c0.3,0,0.3-0.3,0.3-0.5
				c0.4,0.1,0.7,0.3,1.1,0.4C171.2,114.2,171.5,114.5,171.8,114.6z"/>
			<path class="st9" d="M233.3,61.3c-0.6-1.7,0.7-2.3,1.6-3.2c0.3,0.1,0.4,0.2,0.2,0.5C234.5,59.6,233.9,60.5,233.3,61.3z"/>
			<path class="st4" d="M222.4,111.2c1.4-0.2,2.3,0.9,3.5,1.3C224.6,112.6,223.3,112.7,222.4,111.2z"/>
			<path class="st1" d="M159.9,113.7c0,0.4-0.2,0.5-0.5,0.2c-0.4-0.4-1-0.2-1.5-0.2c0-0.6,0-1.1,0.3-1.7c0.4,0.5,0.4,1.5,1.3,1
				C159.6,113.3,159.6,113.6,159.9,113.7z"/>
			<path class="st3" d="M244,147.1c0,0.2,0.1,0.4,0,0.6c0,0.4,0.2,1-0.5,1c-0.5,0-0.6-0.5-0.6-0.9c0-0.1,0-0.3,0-0.4
				C243.2,147.2,243.6,147.2,244,147.1z"/>
			<path class="st8" d="M244.3,57.8c0,0.5-0.3,0.7-0.8,0.6c-0.6-0.1-0.7-0.6-0.7-1.1C243.4,57.3,243.9,57.5,244.3,57.8z"/>
			<path class="st8" d="M172.9,76.1c-0.3,1.2-1.1,1.5-2.1,1.1C171.4,76.7,172.1,76.3,172.9,76.1z"/>
			<path class="st8" d="M174.8,75.3c-0.1,0.5,0.1,1-0.2,1.5c-0.6,0-0.5-0.8-1-1C174,75.5,174.4,75.3,174.8,75.3z"/>
			<path class="st4" d="M171.8,114.6c-0.4-0.2-0.6-0.4-0.6-0.9c0.6,0.2,1.2,0.3,1.7,0.5C172.7,114.7,172.2,114.6,171.8,114.6z"/>
			<path class="st4" d="M280.3,131.1c-0.4-0.1-1,0.1-0.9-0.5c0-0.6,0.6-0.3,1-0.4C280.4,130.5,280.4,130.8,280.3,131.1z"/>
			<path class="st4" d="M170.1,113.4c-0.1,0.2,0,0.5-0.3,0.5c-0.4,0-0.5-0.4-0.5-0.7c0-0.1,0-0.2,0-0.3
				C169.5,113,169.8,113.2,170.1,113.4z"/>
			<path class="st9" d="M270.6,184.2c0.8-0.3,1.1,0,1.1,0.8C271.2,184.9,270.9,184.5,270.6,184.2z"/>
			<path class="st10" d="M214.8,27.4c-0.4,0.5-0.9,0.8-1.5,0.9C213.6,27.8,214.1,27.6,214.8,27.4z"/>
			<path class="st9" d="M270.3,115c0,0.6-0.7,0.4-0.9,0.8C269.1,115.1,269.1,115,270.3,115z"/>
			<path class="st6" d="M229.1,145.8c0,0.2,0,0.5-0.3,0.5c-0.4,0-0.5-0.4-0.5-0.7C228.5,145.6,228.8,145.6,229.1,145.8z"/>
			<path class="st1" d="M259,148.2c0-0.3,0.1-0.5,0.4-0.6c0.3,0,0.6,0,0.8,0.3C259.8,148.2,259.4,148.2,259,148.2z"/>
			<path class="st3" d="M235.9,140.9c-0.4,0.2-0.9,0.5-0.8-0.4C235.3,140.6,235.6,140.6,235.9,140.9z"/>
			<path class="st4" d="M177.9,98.8c0.1,0,0.2-0.1,0.3-0.1c0.1,0.1,0.2,0.2,0.3,0.3C178.1,99.4,178,99.1,177.9,98.8z"/>
			<path class="st3" d="M241.2,147.3c0,0.2,0,0.4-0.3,0.4c-0.2,0-0.3-0.2-0.3-0.4C240.8,147.3,241,147.3,241.2,147.3z"/>
			<path class="st1" d="M264.9,147c-0.3,0-0.7,0.1-0.9-0.3C264.5,146.4,264.8,146.6,264.9,147z"/>
			<path class="st9" d="M265.9,73.2c-0.6,0.2-0.4-0.3-0.5-0.5C265.7,72.8,265.9,72.9,265.9,73.2z"/>
			<path class="st4" d="M167.3,67.1c-0.1,0-0.2,0-0.3,0c0-0.2,0.1-0.4,0.1-0.6C167.3,66.6,167.2,66.9,167.3,67.1z"/>
			<path class="st10" d="M212.4,29c0,0.4-0.2,0.6-0.6,0.5C211.9,29.2,212.1,29,212.4,29z"/>
			<path class="st10" d="M213,28.6c-0.1,0.3-0.3,0.4-0.5,0.4C212.5,28.7,212.7,28.6,213,28.6z"/>
			<path class="st10" d="M215.8,26.9c-0.1,0.3-0.3,0.3-0.6,0.3C215.3,26.9,215.6,26.9,215.8,26.9z"/>
			<path class="st1" d="M264.1,146.7c-0.2,0-0.5,0-0.6-0.2C263.7,146.5,264,146.3,264.1,146.7z"/>
			<path class="st10" d="M215.2,27.2c-0.1,0.2-0.2,0.3-0.4,0.3C214.9,27.4,215.1,27.3,215.2,27.2z"/>
			<path class="st9" d="M160.7,82.2c0,0.1-0.1,0.2-0.2,0.1c0,0,0-0.2,0.1-0.3C160.6,82.1,160.7,82.1,160.7,82.2z"/>
			<path class="st11" d="M248.8,123.8c-0.1-0.1-0.2-0.2-0.3-0.3C248.6,123.7,248.7,123.8,248.8,123.8z"/>
			<path class="st11" d="M208.1,45.1c-0.1,0.1-0.1,0.2-0.2,0.4C208,45.3,208.1,45.2,208.1,45.1z"/>
			<path class="st9" d="M226.3,162.9c0,0.1,0.1,0.1,0.1,0.2l-0.1,0.1C226.3,163.1,226.3,163,226.3,162.9z"/>
			<path class="st4" d="M270.3,177.9c0,0.6-0.1,1.1-0.7,1.1c-0.5,0-0.4-0.5-0.5-0.8c0-0.5,0-1,0.7-1
				C270.4,177.2,270.2,177.7,270.3,177.9z"/>
			<path class="st4" d="M273.1,173.2c0,0.3-0.2,0.4-0.5,0.4c-0.4,0-0.6-0.3-0.6-0.7c0-0.3,0.2-0.4,0.5-0.4
				C272.8,172.6,273,172.8,273.1,173.2z"/>
			<path class="st4" d="M263.2,186.1c-0.4-0.3-0.8-0.6-1.1-0.8C263.2,184.5,263.2,185.2,263.2,186.1z"/>
			<path class="st4" d="M275.4,115.8c0.4,0.2,0.7,0.5,0.9,0.8C275.6,116.7,275.3,116.4,275.4,115.8z"/>
			<path class="st6" d="M221.7,159.2c-0.2-0.4-0.5-0.4-0.7,0c-0.4-0.4-0.5-1,0-1.3c0.3-0.3,1-0.3,1.3,0.1
				C222.5,158.5,222.2,158.9,221.7,159.2z"/>
			<path class="st6" d="M215.4,161.8c0.2,0,0.3,0.2,0.3,0.4c0,0.3-0.2,0.4-0.5,0.3c-0.2-0.1-0.3-0.2-0.2-0.4
				C215.1,161.9,215.2,161.8,215.4,161.8z"/>
			<path class="st6" d="M211.6,164.3c0-0.2,0-0.4,0.3-0.3c0.1,0,0.2,0.3,0.2,0.4c0,0.2,0,0.4-0.3,0.4
				C211.6,164.7,211.6,164.5,211.6,164.3z"/>
			<path class="st6" d="M220.6,160.1c0,0.3,0,0.6-0.2,0.9c-0.3-0.1-0.7-0.3-0.5-0.7C220,159.9,220.4,160.1,220.6,160.1z"/>
			<path class="st6" d="M209.9,164.5c-0.1,0.1-0.1,0.3-0.2,0.3c-0.2,0.1-0.3-0.1-0.3-0.3c0-0.1,0.1-0.2,0.2-0.2
				C209.7,164.2,209.8,164.4,209.9,164.5z"/>
			<path class="st8" d="M173.4,76.8c0.1,0,0.2,0.1,0.2,0.1c0,0.1-0.1,0.2-0.1,0.2c-0.1,0-0.2-0.1-0.2-0.1
				C173.3,77,173.3,76.9,173.4,76.8z"/>
			<path class="st8" d="M180.8,82.5c-0.1,0.1-0.2,0.2-0.3,0.2C180.6,82.6,180.7,82.5,180.8,82.5z"/>
			<path class="st1" d="M259.1,151.2c-0.6-0.1-1-0.1-1.3-0.2c-0.5-0.1-0.4-0.6-0.4-0.9c0.1-0.4,0.3-0.4,0.6-0.3
				c0.4,0.1,0.7,0,1.1,0.1s1.3-0.3,1.2,0.5C260.2,151,259.4,151.1,259.1,151.2z"/>
			<path class="st1" d="M256.4,157.4c0,0.6-0.5,0.6-0.8,0.7c-0.3,0.1-0.5,0-0.5-0.3c0-0.6,0.5-0.8,0.9-0.9
				C256.3,156.9,256.4,157.1,256.4,157.4z"/>
			<path class="st1" d="M256.5,152.2c0.4,0.6,0.3,0.9,0,1.5C256.1,153.1,256.1,152.8,256.5,152.2z"/>
			<path class="st1" d="M248.9,171.6c-0.2,0-0.4,0-0.4-0.2c-0.1-0.3,0.2-0.3,0.4-0.3s0.4,0,0.4,0.2
				C249.3,171.6,249,171.5,248.9,171.6z"/>
			<path class="st1" d="M258.9,148.4c0,0-0.1,0.1-0.2,0.2c-0.1,0.1-0.3-0.1-0.2-0.2c0-0.1,0.2-0.1,0.3-0.2
				C259,148.1,259,148.2,258.9,148.4z"/>
			<path class="st15" d="M209.1,87.9c-0.9-4.2-0.4-8.2,1.9-12c1.6-2.6,3.7-4.4,6.6-4.9c1.6-0.3,3.3-0.4,4.8,0.5
				c0.5,0.3,1.1,0.7,1,1.5c-0.2,0.8-0.9,0.5-1.4,0.5c-1.8,0.1-3.6-0.3-5.4,0.6c-3.1,1.6-4.6,4.4-5.7,7.5
				C210.1,83.7,209.6,85.8,209.1,87.9z"/>
			<path class="st14" d="M237.5,37.1c0.4,0,0.6,0,0.7,0c0.4,0.1,1,0,1.2,0.6s-0.5,0.8-0.8,1c-0.8,0.5-1.6,0.9-2.4,1.2
				c-2.3,0.9-4.4,2.1-6,4c-0.6,0.7-1.3,1.1-2.1,0.4c-0.8-0.7-0.4-1.4,0.1-2C230.6,39,233.8,37.4,237.5,37.1z"/>
			<path class="st10" d="M235.5,25.9c0.2-0.2,0.4-0.2,0.6,0.1C235.9,26.3,235.7,26.3,235.5,25.9z"/>
			<path class="st3" d="M232.1,171.1c-0.6-0.5-1.1-1-1.7-1.5c1,0.3,2-0.8,3,0.2C233.2,170.4,232.2,170.2,232.1,171.1z"/>
			<path class="st3" d="M160.4,113.7c0,0,0-0.1,0.1-0.1C160.5,113.6,160.5,113.7,160.4,113.7C160.5,113.7,160.4,113.7,160.4,113.7z"
				/>
			<path class="st14" d="M215.2,39.9c-1.3,1-1.7,2.6-2.5,3.9c-0.4,0.7-0.6,1.9-1.7,1.4c-1.1-0.5-0.9-1.5-0.6-2.5
				c0.8-2.8,2.6-5,4.6-7c2.8-2.4,5.8-4.5,9.5-5.3c0.8-0.2,1.6-0.1,2.4-0.2c0.3,0,0.7,0,0.8,0.4s-0.2,0.7-0.5,0.8
				c-0.9,0.5-1.8,1-2.8,1.4C220.8,34.6,217.7,36.8,215.2,39.9z"/>
			<path class="st0" d="M247.7,41.1c0.1-0.1,0.2-0.1,0.3-0.2c0,0.1,0.1,0.1,0.1,0.2C247.9,41,247.8,41.1,247.7,41.1L247.7,41.1z"/>
			<path class="st0" d="M247.4,41.3c0.1-0.1,0.2-0.2,0.3-0.2l0,0c-0.1,0.1-0.2,0.2-0.2,0.3C247.4,41.4,247.4,41.4,247.4,41.3z"/>
			<path class="st1" d="M259.4,129.4c0-0.1,0.1-0.2,0.1-0.2c0.1,0,0.2,0.1,0.2,0.1c0,0.1-0.1,0.2-0.1,0.2
				C259.5,129.5,259.5,129.5,259.4,129.4z"/>
			<path class="st5" d="M246.5,111.7c0.1-0.2,0.3-0.3,0.5-0.3C247,111.6,246.8,111.7,246.5,111.7z"/>
			<path class="st5" d="M244.6,113.1c0.1-0.2,0.3-0.3,0.5-0.3C245,113.1,244.8,113.1,244.6,113.1z"/>
			<path class="st5" d="M245.7,112.3c0.1-0.2,0.3-0.3,0.6-0.3C246.2,112.2,245.9,112.3,245.7,112.3z"/>
			<path class="st5" d="M246.3,112c0.1-0.1,0.2-0.2,0.3-0.3C246.5,111.8,246.4,111.9,246.3,112z"/>
			<path class="st0" d="M225.8,114.6c0.2,0,0.5-0.1,0.5,0.3C226,114.9,225.9,114.8,225.8,114.6z"/>
			<path class="st1" d="M267.1,79.9c0,0.2,0,0.4,0,0.6c-0.2,0-0.4-0.1-0.4-0.3C266.7,79.9,266.9,79.9,267.1,79.9z"/>
			<path class="st0" d="M243.7,63.5c1.2,1.2,1.4,2.8,1.6,4.5c-0.1,1.1-0.1,2.2-0.6,3.2c-0.4,0.9-0.9,1.8-2,1.8s-1.5-0.8-1.9-1.7
				c-0.1-0.3-0.2-0.5-0.4-0.8c-0.8-0.9-0.2-1.9-0.3-2.9c0-0.6,0.1-1.1,0.1-1.7c0.2-0.5,0.4-1,0.6-1.4
				C241.6,63.4,242.5,62.9,243.7,63.5z"/>
			<path class="st14" d="M243,130.2c-0.8-1.3-1.3-2.6-1.1-4.3c1.1,0.6,1.5,1.9,2.7,2.4c0.5,0.4,1,0.8,1.5,1.3
				c0.3,0.3,0.8,0.7,0.5,1.2c-0.3,0.6-0.8,0.8-1.4,0.6C244.2,131.2,243.6,130.7,243,130.2z"/>
			<path class="st14" d="M240.1,105c0.5-2.5,1.2-4.8,2.5-6.9c0.8-0.5,1.7-1.7,2.5-1c0.9,0.8-0.2,1.8-0.7,2.6
				c-1.3,2.3-2.3,4.7-4.3,6.5C239.9,105.9,240.2,105.4,240.1,105z"/>
			<path class="st14" d="M235.1,102.9c0.7,1.2,0.9,2.3,1,3.4c0,0.3,0,0.6-0.4,0.7c-0.2,0-0.5-0.1-0.6-0.3
				C234.6,105.5,234.5,104.3,235.1,102.9z"/>
		</g>
	</g>
	<text transform="matrix(0.9885 0 0 1 97.168 241.0444)" class="st16 st17">Riko Pollo</text>
</g>
</svg>
